<?xml version="1.0" encoding="utf-8" standalone="no"?>
<!DOCTYPE svg PUBLIC "-//W3C//DTD SVG 1.1//EN"
  "http://www.w3.org/Graphics/SVG/1.1/DTD/svg11.dtd">
<svg xmlns:xlink="http://www.w3.org/1999/xlink" width="587.374375pt" height="396.309844pt" viewBox="0 0 587.374375 396.309844" xmlns="http://www.w3.org/2000/svg" version="1.1">
 <metadata>
  <rdf:RDF xmlns:dc="http://purl.org/dc/elements/1.1/" xmlns:cc="http://creativecommons.org/ns#" xmlns:rdf="http://www.w3.org/1999/02/22-rdf-syntax-ns#">
   <cc:Work>
    <dc:type rdf:resource="http://purl.org/dc/dcmitype/StillImage"/>
    <dc:date>2024-06-16T21:16:34.303814</dc:date>
    <dc:format>image/svg+xml</dc:format>
    <dc:creator>
     <cc:Agent>
      <dc:title>Matplotlib v3.7.2, https://matplotlib.org/</dc:title>
     </cc:Agent>
    </dc:creator>
   </cc:Work>
  </rdf:RDF>
 </metadata>
 <defs>
  <style type="text/css">*{stroke-linejoin: round; stroke-linecap: butt}</style>
 </defs>
 <g id="figure_1">
  <g id="patch_1">
   <path d="M 0 396.309844 
L 587.374375 396.309844 
L 587.374375 0 
L 0 0 
z
" style="fill: #ffffff"/>
  </g>
  <g id="axes_1">
   <g id="patch_2">
    <path d="M 22.174375 354.575625 
L 580.174375 354.575625 
L 580.174375 21.935625 
L 22.174375 21.935625 
z
" style="fill: #eaeaf2"/>
   </g>
   <g id="matplotlib.axis_1">
    <g id="xtick_1">
     <g id="line2d_1">
      <path d="M 66.002292 354.575625 
L 66.002292 21.935625 
" clip-path="url(#p352ac10aa0)" style="fill: none; stroke: #ffffff; stroke-linecap: round"/>
     </g>
     <g id="text_1">
      <text style="fill: #262626; font: 11px 'Arial'; text-anchor: middle" x="66.002292" y="371.949219" transform="rotate(-0 66.002292 371.949219)">−0.2</text>
     </g>
    </g>
    <g id="xtick_2">
     <g id="line2d_2">
      <path d="M 142.917535 354.575625 
L 142.917535 21.935625 
" clip-path="url(#p352ac10aa0)" style="fill: none; stroke: #ffffff; stroke-linecap: round"/>
     </g>
     <g id="text_2">
      <text style="fill: #262626; font: 11px 'Arial'; text-anchor: middle" x="142.917535" y="371.949219" transform="rotate(-0 142.917535 371.949219)">−0.1</text>
     </g>
    </g>
    <g id="xtick_3">
     <g id="line2d_3">
      <path d="M 219.832779 354.575625 
L 219.832779 21.935625 
" clip-path="url(#p352ac10aa0)" style="fill: none; stroke: #ffffff; stroke-linecap: round"/>
     </g>
     <g id="text_3">
      <text style="fill: #262626; font: 11px 'Arial'; text-anchor: middle" x="219.832779" y="371.949219" transform="rotate(-0 219.832779 371.949219)">0.0</text>
     </g>
    </g>
    <g id="xtick_4">
     <g id="line2d_4">
      <path d="M 296.748022 354.575625 
L 296.748022 21.935625 
" clip-path="url(#p352ac10aa0)" style="fill: none; stroke: #ffffff; stroke-linecap: round"/>
     </g>
     <g id="text_4">
      <text style="fill: #262626; font: 11px 'Arial'; text-anchor: middle" x="296.748022" y="371.949219" transform="rotate(-0 296.748022 371.949219)">0.1</text>
     </g>
    </g>
    <g id="xtick_5">
     <g id="line2d_5">
      <path d="M 373.663265 354.575625 
L 373.663265 21.935625 
" clip-path="url(#p352ac10aa0)" style="fill: none; stroke: #ffffff; stroke-linecap: round"/>
     </g>
     <g id="text_5">
      <text style="fill: #262626; font: 11px 'Arial'; text-anchor: middle" x="373.663265" y="371.949219" transform="rotate(-0 373.663265 371.949219)">0.2</text>
     </g>
    </g>
    <g id="xtick_6">
     <g id="line2d_6">
      <path d="M 450.578508 354.575625 
L 450.578508 21.935625 
" clip-path="url(#p352ac10aa0)" style="fill: none; stroke: #ffffff; stroke-linecap: round"/>
     </g>
     <g id="text_6">
      <text style="fill: #262626; font: 11px 'Arial'; text-anchor: middle" x="450.578508" y="371.949219" transform="rotate(-0 450.578508 371.949219)">0.3</text>
     </g>
    </g>
    <g id="xtick_7">
     <g id="line2d_7">
      <path d="M 527.493752 354.575625 
L 527.493752 21.935625 
" clip-path="url(#p352ac10aa0)" style="fill: none; stroke: #ffffff; stroke-linecap: round"/>
     </g>
     <g id="text_7">
      <text style="fill: #262626; font: 11px 'Arial'; text-anchor: middle" x="527.493752" y="371.949219" transform="rotate(-0 527.493752 371.949219)">0.4</text>
     </g>
    </g>
    <g id="text_8">
     <text style="fill: #262626; font: 12px 'Arial'; text-anchor: middle" x="301.174375" y="386.724844" transform="rotate(-0 301.174375 386.724844)">Valor de silhouette</text>
    </g>
   </g>
   <g id="matplotlib.axis_2">
    <g id="text_9">
     <text style="fill: #262626; font: 12px 'Arial'; text-anchor: middle" x="15.789375" y="188.255625" transform="rotate(-90 15.789375 188.255625)">Cluster</text>
    </g>
   </g>
   <g id="PolyCollection_1">
    <defs>
     <path id="m11894b4148" d="M 113.269849 -56.854219 
L 219.832779 -56.854219 
L 219.832779 -57.915271 
L 219.832779 -58.976324 
L 219.832779 -60.037377 
L 219.832779 -61.098429 
L 219.832779 -62.159482 
L 219.832779 -63.220535 
L 219.832779 -64.281587 
L 219.832779 -65.34264 
L 219.832779 -66.403692 
L 219.832779 -67.464745 
L 219.832779 -68.525798 
L 219.832779 -69.58685 
L 219.832779 -70.647903 
L 219.832779 -71.708956 
L 219.832779 -72.770008 
L 219.832779 -73.831061 
L 219.832779 -74.892113 
L 219.832779 -75.953166 
L 219.832779 -77.014219 
L 219.832779 -78.075271 
L 219.832779 -79.136324 
L 219.832779 -80.197377 
L 219.832779 -81.258429 
L 219.832779 -82.319482 
L 219.832779 -83.380535 
L 219.832779 -84.441587 
L 219.832779 -85.50264 
L 219.832779 -86.563692 
L 219.832779 -87.624745 
L 219.832779 -88.685798 
L 219.832779 -89.74685 
L 219.832779 -90.807903 
L 219.832779 -91.868956 
L 219.832779 -92.930008 
L 219.832779 -93.991061 
L 219.832779 -95.052113 
L 219.832779 -96.113166 
L 219.832779 -97.174219 
L 219.832779 -98.235271 
L 219.832779 -99.296324 
L 219.832779 -100.357377 
L 219.832779 -101.418429 
L 219.832779 -102.479482 
L 219.832779 -103.540535 
L 219.832779 -104.601587 
L 219.832779 -105.66264 
L 219.832779 -106.723692 
L 219.832779 -107.784745 
L 219.832779 -108.845798 
L 219.832779 -109.90685 
L 219.832779 -110.967903 
L 219.832779 -112.028956 
L 219.832779 -113.090008 
L 219.832779 -114.151061 
L 219.832779 -115.212113 
L 219.832779 -116.273166 
L 219.832779 -117.334219 
L 219.832779 -118.395271 
L 219.832779 -119.456324 
L 219.832779 -120.517377 
L 219.832779 -121.578429 
L 219.832779 -122.639482 
L 219.832779 -123.700535 
L 219.832779 -124.761587 
L 219.832779 -125.82264 
L 219.832779 -126.883692 
L 219.832779 -127.944745 
L 219.832779 -129.005798 
L 219.832779 -130.06685 
L 219.832779 -131.127903 
L 219.832779 -132.188956 
L 219.832779 -133.250008 
L 219.832779 -134.311061 
L 219.832779 -135.372113 
L 219.832779 -136.433166 
L 219.832779 -137.494219 
L 219.832779 -138.555271 
L 219.832779 -139.616324 
L 219.832779 -140.677377 
L 219.832779 -141.738429 
L 219.832779 -142.799482 
L 219.832779 -143.860535 
L 219.832779 -144.921587 
L 219.832779 -145.98264 
L 219.832779 -147.043692 
L 219.832779 -148.104745 
L 219.832779 -149.165798 
L 219.832779 -150.22685 
L 219.832779 -151.287903 
L 219.832779 -152.348956 
L 219.832779 -153.410008 
L 219.832779 -154.471061 
L 219.832779 -155.532113 
L 219.832779 -156.593166 
L 219.832779 -157.654219 
L 219.832779 -158.715271 
L 219.832779 -159.776324 
L 219.832779 -160.837377 
L 219.832779 -161.898429 
L 219.832779 -162.959482 
L 219.832779 -164.020535 
L 219.832779 -165.081587 
L 219.832779 -166.14264 
L 219.832779 -167.203692 
L 219.832779 -168.264745 
L 219.832779 -169.325798 
L 219.832779 -170.38685 
L 219.832779 -171.447903 
L 219.832779 -172.508956 
L 219.832779 -173.570008 
L 219.832779 -174.631061 
L 219.832779 -175.692113 
L 219.832779 -176.753166 
L 219.832779 -177.814219 
L 219.832779 -178.875271 
L 219.832779 -179.936324 
L 219.832779 -180.997377 
L 219.832779 -182.058429 
L 219.832779 -183.119482 
L 219.832779 -184.180535 
L 219.832779 -185.241587 
L 219.832779 -186.30264 
L 219.832779 -187.363692 
L 219.832779 -188.424745 
L 219.832779 -189.485798 
L 219.832779 -190.54685 
L 219.832779 -191.607903 
L 219.832779 -192.668956 
L 219.832779 -193.730008 
L 464.997204 -193.730008 
L 464.997204 -193.730008 
L 459.23726 -192.668956 
L 444.282247 -191.607903 
L 441.733708 -190.54685 
L 439.242398 -189.485798 
L 438.583924 -188.424745 
L 436.52813 -187.363692 
L 432.212786 -186.30264 
L 428.32571 -185.241587 
L 428.012615 -184.180535 
L 427.310609 -183.119482 
L 427.030886 -182.058429 
L 426.321056 -180.997377 
L 424.562267 -179.936324 
L 422.731551 -178.875271 
L 420.783541 -177.814219 
L 420.437938 -176.753166 
L 418.008869 -175.692113 
L 417.950059 -174.631061 
L 416.60126 -173.570008 
L 415.553451 -172.508956 
L 414.834434 -171.447903 
L 410.669314 -170.38685 
L 407.939018 -169.325798 
L 405.136515 -168.264745 
L 402.93047 -167.203692 
L 402.256758 -166.14264 
L 398.607633 -165.081587 
L 397.957522 -164.020535 
L 397.298568 -162.959482 
L 394.746534 -161.898429 
L 394.281516 -160.837377 
L 391.614971 -159.776324 
L 391.183989 -158.715271 
L 389.73873 -157.654219 
L 389.189945 -156.593166 
L 389.019156 -155.532113 
L 388.639429 -154.471061 
L 385.420473 -153.410008 
L 381.656004 -152.348956 
L 380.37674 -151.287903 
L 380.281219 -150.22685 
L 379.554689 -149.165798 
L 377.807016 -148.104745 
L 372.949788 -147.043692 
L 372.869902 -145.98264 
L 372.741852 -144.921587 
L 368.355913 -143.860535 
L 364.379493 -142.799482 
L 362.074345 -141.738429 
L 359.722944 -140.677377 
L 359.450049 -139.616324 
L 359.184928 -138.555271 
L 356.145845 -137.494219 
L 350.963686 -136.433166 
L 349.475037 -135.372113 
L 349.086905 -134.311061 
L 347.290818 -133.250008 
L 346.742837 -132.188956 
L 346.55717 -131.127903 
L 343.140206 -130.06685 
L 342.563901 -129.005798 
L 342.413735 -127.944745 
L 341.961512 -126.883692 
L 339.754088 -125.82264 
L 334.83423 -124.761587 
L 333.759642 -123.700535 
L 333.723247 -122.639482 
L 332.865286 -121.578429 
L 329.608753 -120.517377 
L 328.062831 -119.456324 
L 327.4986 -118.395271 
L 327.417754 -117.334219 
L 325.688253 -116.273166 
L 320.937419 -115.212113 
L 320.626231 -114.151061 
L 320.269753 -113.090008 
L 316.571813 -112.028956 
L 316.416286 -110.967903 
L 313.989054 -109.90685 
L 313.750626 -108.845798 
L 307.408578 -107.784745 
L 305.093974 -106.723692 
L 303.392674 -105.66264 
L 296.6302 -104.601587 
L 295.318431 -103.540535 
L 294.817862 -102.479482 
L 293.380895 -101.418429 
L 292.963315 -100.357377 
L 288.7461 -99.296324 
L 287.124442 -98.235271 
L 279.576624 -97.174219 
L 277.344739 -96.113166 
L 276.247963 -95.052113 
L 274.624706 -93.991061 
L 271.839811 -92.930008 
L 266.3107 -91.868956 
L 264.482631 -90.807903 
L 260.612325 -89.74685 
L 254.796144 -88.685798 
L 253.594144 -87.624745 
L 252.959274 -86.563692 
L 252.514578 -85.50264 
L 251.871272 -84.441587 
L 246.381314 -83.380535 
L 239.510522 -82.319482 
L 234.559378 -81.258429 
L 233.139572 -80.197377 
L 229.940372 -79.136324 
L 222.969665 -78.075271 
L 221.33884 -77.014219 
L 220.201014 -75.953166 
L 218.432662 -74.892113 
L 210.268139 -73.831061 
L 208.668083 -72.770008 
L 204.063702 -71.708956 
L 197.818821 -70.647903 
L 192.518633 -69.58685 
L 185.480414 -68.525798 
L 180.37802 -67.464745 
L 176.322458 -66.403692 
L 174.248027 -65.34264 
L 166.131345 -64.281587 
L 157.648322 -63.220535 
L 153.943293 -62.159482 
L 152.734194 -61.098429 
L 143.208306 -60.037377 
L 136.155182 -58.976324 
L 133.925131 -57.915271 
L 113.269849 -56.854219 
z
" style="stroke: #000000; stroke-opacity: 0.7"/>
    </defs>
    <g clip-path="url(#p352ac10aa0)">
     <use xlink:href="#m11894b4148" x="0" y="396.309844" style="fill-opacity: 0.7; stroke: #000000; stroke-opacity: 0.7"/>
    </g>
   </g>
   <g id="PolyCollection_2">
    <defs>
     <path id="md7d5888f22" d="M 163.737839 -205.401587 
L 219.832779 -205.401587 
L 219.832779 -206.46264 
L 219.832779 -207.523692 
L 219.832779 -208.584745 
L 219.832779 -209.645798 
L 219.832779 -210.70685 
L 219.832779 -211.767903 
L 219.832779 -212.828956 
L 219.832779 -213.890008 
L 219.832779 -214.951061 
L 219.832779 -216.012113 
L 219.832779 -217.073166 
L 219.832779 -218.134219 
L 219.832779 -219.195271 
L 219.832779 -220.256324 
L 219.832779 -221.317377 
L 219.832779 -222.378429 
L 219.832779 -223.439482 
L 219.832779 -224.500535 
L 219.832779 -225.561587 
L 219.832779 -226.62264 
L 219.832779 -227.683692 
L 219.832779 -228.744745 
L 219.832779 -229.805798 
L 219.832779 -230.86685 
L 219.832779 -231.927903 
L 219.832779 -232.988956 
L 219.832779 -234.050008 
L 219.832779 -235.111061 
L 219.832779 -236.172113 
L 219.832779 -237.233166 
L 219.832779 -238.294219 
L 219.832779 -239.355271 
L 219.832779 -240.416324 
L 219.832779 -241.477377 
L 219.832779 -242.538429 
L 219.832779 -243.599482 
L 219.832779 -244.660535 
L 219.832779 -245.721587 
L 219.832779 -246.78264 
L 219.832779 -247.843692 
L 219.832779 -248.904745 
L 219.832779 -249.965798 
L 219.832779 -251.02685 
L 219.832779 -252.087903 
L 219.832779 -253.148956 
L 219.832779 -254.210008 
L 219.832779 -255.271061 
L 219.832779 -256.332113 
L 219.832779 -257.393166 
L 219.832779 -258.454219 
L 219.832779 -259.515271 
L 219.832779 -260.576324 
L 219.832779 -261.637377 
L 219.832779 -262.698429 
L 219.832779 -263.759482 
L 219.832779 -264.820535 
L 219.832779 -265.881587 
L 219.832779 -266.94264 
L 219.832779 -268.003692 
L 219.832779 -269.064745 
L 219.832779 -270.125798 
L 219.832779 -271.18685 
L 219.832779 -272.247903 
L 219.832779 -273.308956 
L 219.832779 -274.370008 
L 219.832779 -275.431061 
L 219.832779 -276.492113 
L 219.832779 -277.553166 
L 219.832779 -278.614219 
L 219.832779 -279.675271 
L 219.832779 -280.736324 
L 219.832779 -281.797377 
L 219.832779 -282.858429 
L 219.832779 -283.919482 
L 219.832779 -284.980535 
L 219.832779 -286.041587 
L 219.832779 -287.10264 
L 219.832779 -288.163692 
L 219.832779 -289.224745 
L 219.832779 -290.285798 
L 219.832779 -291.34685 
L 219.832779 -292.407903 
L 219.832779 -293.468956 
L 219.832779 -294.530008 
L 219.832779 -295.591061 
L 219.832779 -296.652113 
L 219.832779 -297.713166 
L 219.832779 -298.774219 
L 219.832779 -299.835271 
L 219.832779 -300.896324 
L 219.832779 -301.957377 
L 219.832779 -303.018429 
L 219.832779 -304.079482 
L 219.832779 -305.140535 
L 219.832779 -306.201587 
L 219.832779 -307.26264 
L 219.832779 -308.323692 
L 219.832779 -309.384745 
L 219.832779 -310.445798 
L 219.832779 -311.50685 
L 219.832779 -312.567903 
L 219.832779 -313.628956 
L 219.832779 -314.690008 
L 219.832779 -315.751061 
L 219.832779 -316.812113 
L 219.832779 -317.873166 
L 219.832779 -318.934219 
L 219.832779 -319.995271 
L 542.203118 -319.995271 
L 542.203118 -319.995271 
L 541.909101 -318.934219 
L 535.507098 -317.873166 
L 528.619526 -316.812113 
L 528.058666 -315.751061 
L 527.011514 -314.690008 
L 519.799037 -313.628956 
L 512.487594 -312.567903 
L 506.985965 -311.50685 
L 506.75561 -310.445798 
L 497.202917 -309.384745 
L 495.391486 -308.323692 
L 493.645417 -307.26264 
L 490.849042 -306.201587 
L 490.239043 -305.140535 
L 486.017 -304.079482 
L 485.042591 -303.018429 
L 484.41195 -301.957377 
L 482.686765 -300.896324 
L 482.221486 -299.835271 
L 481.357582 -298.774219 
L 480.164679 -297.713166 
L 478.907019 -296.652113 
L 478.521378 -295.591061 
L 475.904977 -294.530008 
L 475.63387 -293.468956 
L 471.9329 -292.407903 
L 470.93761 -291.34685 
L 467.590474 -290.285798 
L 466.683729 -289.224745 
L 465.548468 -288.163692 
L 465.241301 -287.10264 
L 465.188466 -286.041587 
L 464.908403 -284.980535 
L 464.385512 -283.919482 
L 464.022743 -282.858429 
L 462.235046 -281.797377 
L 461.90767 -280.736324 
L 461.722644 -279.675271 
L 460.998375 -278.614219 
L 449.821054 -277.553166 
L 449.635306 -276.492113 
L 444.880297 -275.431061 
L 442.847751 -274.370008 
L 436.681576 -273.308956 
L 436.063715 -272.247903 
L 435.628544 -271.18685 
L 433.914098 -270.125798 
L 430.456151 -269.064745 
L 429.733803 -268.003692 
L 428.750416 -266.94264 
L 428.238901 -265.881587 
L 427.656935 -264.820535 
L 425.607476 -263.759482 
L 417.903076 -262.698429 
L 417.766677 -261.637377 
L 416.344821 -260.576324 
L 415.676004 -259.515271 
L 415.2844 -258.454219 
L 411.508388 -257.393166 
L 410.397218 -256.332113 
L 407.523091 -255.271061 
L 405.529598 -254.210008 
L 404.472326 -253.148956 
L 402.173208 -252.087903 
L 401.879894 -251.02685 
L 400.429191 -249.965798 
L 398.909035 -248.904745 
L 397.97564 -247.843692 
L 397.856417 -246.78264 
L 396.006924 -245.721587 
L 395.50289 -244.660535 
L 394.426399 -243.599482 
L 390.093898 -242.538429 
L 387.525724 -241.477377 
L 385.853913 -240.416324 
L 384.847382 -239.355271 
L 381.36021 -238.294219 
L 375.139049 -237.233166 
L 371.657861 -236.172113 
L 367.916265 -235.111061 
L 365.15147 -234.050008 
L 363.212535 -232.988956 
L 361.463319 -231.927903 
L 360.101381 -230.86685 
L 358.223188 -229.805798 
L 354.52313 -228.744745 
L 350.41489 -227.683692 
L 349.67807 -226.62264 
L 340.560309 -225.561587 
L 337.007851 -224.500535 
L 332.307968 -223.439482 
L 330.017411 -222.378429 
L 328.793955 -221.317377 
L 323.690889 -220.256324 
L 303.602165 -219.195271 
L 303.388074 -218.134219 
L 299.446248 -217.073166 
L 295.991571 -216.012113 
L 278.667532 -214.951061 
L 277.19691 -213.890008 
L 276.329367 -212.828956 
L 275.74012 -211.767903 
L 263.253371 -210.70685 
L 252.654522 -209.645798 
L 250.551328 -208.584745 
L 225.156468 -207.523692 
L 215.701753 -206.46264 
L 163.737839 -205.401587 
z
" style="stroke: #0078dd; stroke-opacity: 0.7"/>
    </defs>
    <g clip-path="url(#p352ac10aa0)">
     <use xlink:href="#md7d5888f22" x="0" y="396.309844" style="fill: #0078dd; fill-opacity: 0.7; stroke: #0078dd; stroke-opacity: 0.7"/>
    </g>
   </g>
   <g id="PolyCollection_3">
    <defs>
     <path id="md1966cd79f" d="M 283.180099 -331.66685 
L 219.832779 -331.66685 
L 219.832779 -332.727903 
L 219.832779 -333.788956 
L 219.832779 -334.850008 
L 219.832779 -335.911061 
L 219.832779 -336.972113 
L 219.832779 -338.033166 
L 219.832779 -339.094219 
L 219.832779 -340.155271 
L 219.832779 -341.216324 
L 219.832779 -342.277377 
L 219.832779 -343.338429 
L 219.832779 -344.399482 
L 219.832779 -345.460535 
L 219.832779 -346.521587 
L 554.810739 -346.521587 
L 554.810739 -346.521587 
L 552.643309 -345.460535 
L 550.736972 -344.399482 
L 510.190555 -343.338429 
L 468.846981 -342.277377 
L 455.370959 -341.216324 
L 437.112739 -340.155271 
L 428.594937 -339.094219 
L 423.711171 -338.033166 
L 420.680428 -336.972113 
L 402.414882 -335.911061 
L 387.589387 -334.850008 
L 380.336899 -333.788956 
L 330.394006 -332.727903 
L 283.180099 -331.66685 
z
" style="stroke: #00bc00; stroke-opacity: 0.7"/>
    </defs>
    <g clip-path="url(#p352ac10aa0)">
     <use xlink:href="#md1966cd79f" x="0" y="396.309844" style="fill: #00bc00; fill-opacity: 0.7; stroke: #00bc00; stroke-opacity: 0.7"/>
    </g>
   </g>
   <g id="PolyCollection_4">
    <defs>
     <path id="m7c0adef077" d="M 47.538011 -358.193166 
L 219.832779 -358.193166 
L 219.832779 -359.254219 
L 512.994808 -359.254219 
L 512.994808 -359.254219 
L 47.538011 -358.193166 
z
" style="stroke: #ffc900; stroke-opacity: 0.7"/>
    </defs>
    <g clip-path="url(#p352ac10aa0)">
     <use xlink:href="#m7c0adef077" x="0" y="396.309844" style="fill: #ffc900; fill-opacity: 0.7; stroke: #ffc900; stroke-opacity: 0.7"/>
    </g>
   </g>
   <g id="line2d_8">
    <path d="M 367.799857 354.575625 
L 367.799857 21.935625 
" clip-path="url(#p352ac10aa0)" style="fill: none; stroke-dasharray: 5.55,2.4; stroke-dashoffset: 0; stroke: #ff0000; stroke-width: 1.5"/>
   </g>
   <g id="patch_3">
    <path d="M 22.174375 354.575625 
L 22.174375 21.935625 
" style="fill: none; stroke: #ffffff; stroke-width: 1.25; stroke-linejoin: miter; stroke-linecap: square"/>
   </g>
   <g id="patch_4">
    <path d="M 580.174375 354.575625 
L 580.174375 21.935625 
" style="fill: none; stroke: #ffffff; stroke-width: 1.25; stroke-linejoin: miter; stroke-linecap: square"/>
   </g>
   <g id="patch_5">
    <path d="M 22.174375 354.575625 
L 580.174375 354.575625 
" style="fill: none; stroke: #ffffff; stroke-width: 1.25; stroke-linejoin: miter; stroke-linecap: square"/>
   </g>
   <g id="patch_6">
    <path d="M 22.174375 21.935625 
L 580.174375 21.935625 
" style="fill: none; stroke: #ffffff; stroke-width: 1.25; stroke-linejoin: miter; stroke-linecap: square"/>
   </g>
   <g id="text_10">
    <text style="fill: #262626; font: 12px 'Arial'; text-anchor: start" x="181.375157" y="270.487204" transform="rotate(-0 181.375157 270.487204)">0</text>
   </g>
   <g id="text_11">
    <text style="fill: #262626; font: 12px 'Arial'; text-anchor: start" x="181.375157" y="133.080888" transform="rotate(-0 181.375157 133.080888)">1</text>
   </g>
   <g id="text_12">
    <text style="fill: #262626; font: 12px 'Arial'; text-anchor: start" x="181.375157" y="56.685099" transform="rotate(-0 181.375157 56.685099)">2</text>
   </g>
   <g id="text_13">
    <text style="fill: #262626; font: 12px 'Arial'; text-anchor: start" x="181.375157" y="37.055625" transform="rotate(-0 181.375157 37.055625)">3</text>
   </g>
   <g id="text_14">
    <text style="fill: #262626; font: 12px 'Arial'; text-anchor: middle" x="301.174375" y="15.935625" transform="rotate(-0 301.174375 15.935625)">Gráfico de Silhouette para Agglomerative Clustering</text>
   </g>
  </g>
 </g>
 <defs>
  <clipPath id="p352ac10aa0">
   <rect x="22.174375" y="21.935625" width="558" height="332.64"/>
  </clipPath>
 </defs>
</svg>
