<?xml version="1.0" encoding="utf-8" standalone="no"?>
<!DOCTYPE svg PUBLIC "-//W3C//DTD SVG 1.1//EN"
  "http://www.w3.org/Graphics/SVG/1.1/DTD/svg11.dtd">
<svg xmlns:xlink="http://www.w3.org/1999/xlink" width="713.525329pt" height="480.76375pt" viewBox="0 0 713.525329 480.76375" xmlns="http://www.w3.org/2000/svg" version="1.1">
 <metadata>
  <rdf:RDF xmlns:dc="http://purl.org/dc/elements/1.1/" xmlns:cc="http://creativecommons.org/ns#" xmlns:rdf="http://www.w3.org/1999/02/22-rdf-syntax-ns#">
   <cc:Work>
    <dc:type rdf:resource="http://purl.org/dc/dcmitype/StillImage"/>
    <dc:date>2024-06-16T01:23:31.428119</dc:date>
    <dc:format>image/svg+xml</dc:format>
    <dc:creator>
     <cc:Agent>
      <dc:title>Matplotlib v3.7.2, https://matplotlib.org/</dc:title>
     </cc:Agent>
    </dc:creator>
   </cc:Work>
  </rdf:RDF>
 </metadata>
 <defs>
  <style type="text/css">*{stroke-linejoin: round; stroke-linecap: butt}</style>
 </defs>
 <g id="figure_1">
  <g id="patch_1">
   <path d="M 0 480.76375 
L 713.525329 480.76375 
L 713.525329 0 
L 0 0 
z
" style="fill: #ffffff"/>
  </g>
  <g id="axes_1">
   <g id="patch_2">
    <path d="M 285.432484 137.768086 
C 265.487073 161.538101 252.122612 190.130139 246.678631 220.678399 
C 241.234651 251.226658 243.899322 282.675235 254.405564 311.872015 
L 304.484364 293.851535 
C 297.129995 273.413789 295.264725 251.399785 299.075511 230.016004 
C 302.886297 208.632223 312.24142 188.617796 326.203208 171.978785 
z
" style="fill: #1f77b4; stroke: #ffffff; stroke-linejoin: miter"/>
   </g>
   <g id="patch_3">
    <path d="M 254.405564 311.872015 
C 264.79179 340.735273 282.488603 366.417303 305.761378 386.400779 
C 329.034153 406.384255 357.096816 419.994204 387.198696 425.896594 
L 397.439556 373.668741 
C 376.368241 369.537068 356.724376 360.010103 340.433433 346.02167 
C 324.142491 332.033237 311.754722 314.055816 304.484364 293.851535 
z
" style="fill: #aec7e8; stroke: #ffffff; stroke-linejoin: miter"/>
   </g>
   <g id="patch_4">
    <path d="M 387.198696 425.896594 
C 414.67102 431.283379 443.032251 430.091633 469.95582 422.419119 
C 496.879389 414.746606 521.608389 400.809023 542.114216 381.749718 
L 505.88042 342.765927 
C 491.526341 356.107441 474.216041 365.863749 455.369543 371.234509 
C 436.523045 376.605268 416.670183 377.43949 397.439556 373.668741 
z
" style="fill: #ff7f0e; stroke: #ffffff; stroke-linejoin: miter"/>
   </g>
   <g id="patch_5">
    <path d="M 542.114216 381.749718 
C 560.367187 364.784348 574.842429 344.161915 584.594381 321.229533 
C 594.346332 298.297151 599.157925 273.565269 598.714853 248.649443 
L 545.500866 249.595735 
C 545.811017 267.036813 542.442902 284.34913 535.616535 300.401798 
C 528.790169 316.454466 518.6575 330.890169 505.88042 342.765927 
z
" style="fill: #ffbb78; stroke: #ffffff; stroke-linejoin: miter"/>
   </g>
   <g id="patch_6">
    <path d="M 598.714853 248.649443 
C 598.278494 224.111141 592.754993 199.928249 582.494511 177.633829 
C 572.234028 155.339408 557.458064 135.414745 539.103332 119.122953 
L 503.772802 158.927192 
C 516.621114 170.331447 526.964289 184.278711 534.146626 199.884805 
C 541.328964 215.490899 545.195415 232.418924 545.500866 249.595735 
z
" style="fill: #2ca02c; stroke: #ffffff; stroke-linejoin: miter"/>
   </g>
   <g id="patch_7">
    <path d="M 539.103332 119.122953 
C 530.398423 111.396412 520.954219 104.545257 510.907342 98.668596 
C 500.860465 92.791935 490.259595 87.918243 479.258086 84.118024 
L 461.881129 134.423742 
C 469.582186 137.083895 477.002795 140.49548 484.035609 144.609142 
C 491.068423 148.722805 497.679365 153.518613 503.772802 158.927192 
z
" style="fill: #98df8a; stroke: #ffffff; stroke-linejoin: miter"/>
   </g>
   <g id="patch_8">
    <path d="M 479.258086 84.118024 
C 470.827177 81.20576 462.188626 78.933473 453.41595 77.3205 
C 444.643275 75.707528 435.761433 74.758459 426.846012 74.481371 
L 425.192677 127.678085 
C 431.433472 127.872046 437.650762 128.536394 443.791634 129.665475 
C 449.932507 130.794556 455.979493 132.385157 461.881129 134.423742 
z
" style="fill: #d62728; stroke: #ffffff; stroke-linejoin: miter"/>
   </g>
   <g id="patch_9">
    <path d="M 426.846012 74.481371 
C 419.351124 74.248433 411.849001 74.490908 404.384798 75.207338 
C 396.920594 75.923768 389.509315 77.112713 382.195569 78.767015 
L 393.937367 130.678036 
C 399.05699 129.520024 404.244885 128.687763 409.469827 128.186262 
C 414.69477 127.684761 419.946256 127.515028 425.192677 127.678085 
z
" style="fill: #ff9896; stroke: #ffffff; stroke-linejoin: miter"/>
   </g>
   <g id="patch_10">
    <path d="M 382.195569 78.767015 
C 377.82284 79.756087 373.489173 80.910555 369.203903 82.227932 
C 364.918633 83.54531 360.684838 85.024651 356.511639 86.662769 
L 375.958616 136.205063 
C 378.879856 135.058381 381.843512 134.022842 384.843201 133.100678 
C 387.84289 132.178513 390.876457 131.370386 393.937367 130.678036 
z
" style="fill: #9467bd; stroke: #ffffff; stroke-linejoin: miter"/>
   </g>
   <g id="patch_11">
    <path d="M 356.511639 86.662769 
C 353.381903 87.891293 350.287724 89.20854 347.232851 90.612915 
C 344.177979 92.017289 341.163646 93.508224 338.193508 95.083911 
L 363.135924 142.099863 
C 365.215022 140.996882 367.325054 139.953228 369.463465 138.970165 
C 371.601876 137.987103 373.767801 137.06503 375.958616 136.205063 
z
" style="fill: #c5b0d5; stroke: #ffffff; stroke-linejoin: miter"/>
   </g>
   <g id="patch_12">
    <path d="M 338.193508 95.083911 
C 335.971469 96.262724 333.774753 97.488661 331.604849 98.76089 
C 329.434944 100.033119 327.292343 101.351354 325.178497 102.714698 
L 354.025417 147.441414 
C 355.505109 146.487073 357.00493 145.564309 358.523863 144.673748 
C 360.042796 143.783187 361.580498 142.925032 363.135924 142.099863 
z
" style="fill: #8c564b; stroke: #ffffff; stroke-linejoin: miter"/>
   </g>
   <g id="patch_13">
    <path d="M 325.178497 102.714698 
C 323.504187 103.79456 321.848187 104.90255 320.211201 106.038196 
C 318.574215 107.173842 316.956476 108.336984 315.358671 109.527125 
L 347.151539 152.210112 
C 348.270002 151.377013 349.402419 150.562815 350.54831 149.767862 
C 351.6942 148.97291 352.8534 148.197317 354.025417 147.441414 
z
" style="fill: #c49c94; stroke: #ffffff; stroke-linejoin: miter"/>
   </g>
   <g id="patch_14">
    <path d="M 315.358671 109.527125 
C 313.880707 110.628002 312.419987 111.751841 310.977042 112.898234 
C 309.534097 114.044627 308.109102 115.213435 306.702578 116.40423 
L 341.092273 157.024086 
C 342.076841 156.190529 343.074337 155.372364 344.084398 154.569889 
C 345.09446 153.767414 346.116964 152.980726 347.151539 152.210112 
z
" style="fill: #e377c2; stroke: #ffffff; stroke-linejoin: miter"/>
   </g>
   <g id="patch_15">
    <path d="M 306.702578 116.40423 
C 305.31506 117.578934 303.945682 118.774896 302.594928 119.991693 
C 301.244174 121.20849 299.912203 122.445978 298.599488 123.703719 
L 335.420111 162.133728 
C 336.339011 161.25331 337.271391 160.387068 338.216919 159.53531 
C 339.162447 158.683552 340.121011 157.846379 341.092273 157.024086 
z
" style="fill: #f7b6d2; stroke: #ffffff; stroke-linejoin: miter"/>
   </g>
   <g id="patch_16">
    <path d="M 298.599488 123.703719 
C 297.736343 124.530717 296.881578 125.366418 296.035325 126.210694 
C 295.189072 127.05497 294.351373 127.907777 293.522358 128.768985 
L 331.866119 165.679415 
C 332.44643 165.076569 333.032819 164.479604 333.625196 163.888611 
C 334.217574 163.297618 334.815909 162.712627 335.420111 162.133728 
z
" style="fill: #7f7f7f; stroke: #ffffff; stroke-linejoin: miter"/>
   </g>
   <g id="patch_17">
    <path d="M 293.522358 128.768985 
C 293.021497 129.289296 292.523818 129.81266 292.029349 130.339048 
C 291.53488 130.865437 291.043629 131.394839 290.555626 131.927227 
L 329.789407 167.890184 
C 330.13101 167.517513 330.474885 167.146931 330.821013 166.778459 
C 331.167142 166.409987 331.515517 166.043632 331.866119 165.679415 
z
" style="fill: #c7c7c7; stroke: #ffffff; stroke-linejoin: miter"/>
   </g>
   <g id="patch_18">
    <path d="M 290.555626 131.927227 
C 290.185416 132.331107 289.81708 132.7367 289.450628 133.143992 
C 289.084176 133.551284 288.719613 133.960272 288.356951 134.370942 
L 328.250335 169.600784 
C 328.504198 169.313315 328.759392 169.027024 329.015909 168.741919 
C 329.272425 168.456815 329.53026 168.1729 329.789407 167.890184 
z
" style="fill: #bcbd22; stroke: #ffffff; stroke-linejoin: miter"/>
   </g>
   <g id="patch_19">
    <path d="M 288.356951 134.370942 
C 288.076712 134.688277 287.79761 135.006615 287.51965 135.325949 
C 287.24169 135.645283 286.964874 135.96561 286.689207 136.286926 
L 327.082914 170.941973 
C 327.275881 170.717052 327.469652 170.492823 327.664224 170.269289 
C 327.858796 170.045756 328.054167 169.822919 328.250335 169.600784 
z
" style="fill: #dbdb8d; stroke: #ffffff; stroke-linejoin: miter"/>
   </g>
   <g id="patch_20">
    <path d="M 286.689207 136.286926 
C 286.510834 136.494836 286.332944 136.703158 286.155536 136.911892 
C 285.978129 137.120626 285.801205 137.329771 285.624766 137.539324 
L 326.337805 171.818652 
C 326.461312 171.671965 326.585159 171.525563 326.709344 171.37945 
C 326.83353 171.233336 326.958053 171.08751 327.082914 170.941973 
z
" style="fill: #17becf; stroke: #ffffff; stroke-linejoin: miter"/>
   </g>
   <g id="patch_21">
    <path d="M 285.624766 137.539324 
C 285.608726 137.558375 285.592691 137.577428 285.576659 137.596485 
C 285.560627 137.615542 285.544599 137.634603 285.528575 137.653667 
L 326.270472 171.898692 
C 326.281688 171.885347 326.292908 171.872005 326.30413 171.858665 
C 326.315352 171.845325 326.326577 171.831987 326.337805 171.818652 
z
" style="fill: #9edae5; stroke: #ffffff; stroke-linejoin: miter"/>
   </g>
   <g id="patch_22">
    <path d="M 285.528575 137.653667 
C 285.512551 137.67273 285.496532 137.691798 285.480516 137.710868 
C 285.4645 137.729939 285.448488 137.749013 285.43248 137.76809 
L 326.203205 171.978788 
C 326.214411 171.965434 326.225619 171.952082 326.23683 171.938733 
C 326.248041 171.925383 326.259255 171.912036 326.270472 171.898692 
z
" style="fill: #1f77b4; stroke: #ffffff; stroke-linejoin: miter"/>
   </g>
   <g id="matplotlib.axis_1"/>
   <g id="matplotlib.axis_2"/>
   <g id="text_1">
    <!-- Aves -->
    <g transform="translate(200.971755 220.877113) scale(0.12 -0.12)">
     <defs>
      <path id="DejaVuSans-41" d="M 2188 4044 
L 1331 1722 
L 3047 1722 
L 2188 4044 
z
M 1831 4666 
L 2547 4666 
L 4325 0 
L 3669 0 
L 3244 1197 
L 1141 1197 
L 716 0 
L 50 0 
L 1831 4666 
z
" transform="scale(0.015625)"/>
      <path id="DejaVuSans-76" d="M 191 3500 
L 800 3500 
L 1894 563 
L 2988 3500 
L 3597 3500 
L 2284 0 
L 1503 0 
L 191 3500 
z
" transform="scale(0.015625)"/>
      <path id="DejaVuSans-65" d="M 3597 1894 
L 3597 1613 
L 953 1613 
Q 991 1019 1311 708 
Q 1631 397 2203 397 
Q 2534 397 2845 478 
Q 3156 559 3463 722 
L 3463 178 
Q 3153 47 2828 -22 
Q 2503 -91 2169 -91 
Q 1331 -91 842 396 
Q 353 884 353 1716 
Q 353 2575 817 3079 
Q 1281 3584 2069 3584 
Q 2775 3584 3186 3129 
Q 3597 2675 3597 1894 
z
M 3022 2063 
Q 3016 2534 2758 2815 
Q 2500 3097 2075 3097 
Q 1594 3097 1305 2825 
Q 1016 2553 972 2059 
L 3022 2063 
z
" transform="scale(0.015625)"/>
      <path id="DejaVuSans-73" d="M 2834 3397 
L 2834 2853 
Q 2591 2978 2328 3040 
Q 2066 3103 1784 3103 
Q 1356 3103 1142 2972 
Q 928 2841 928 2578 
Q 928 2378 1081 2264 
Q 1234 2150 1697 2047 
L 1894 2003 
Q 2506 1872 2764 1633 
Q 3022 1394 3022 966 
Q 3022 478 2636 193 
Q 2250 -91 1575 -91 
Q 1294 -91 989 -36 
Q 684 19 347 128 
L 347 722 
Q 666 556 975 473 
Q 1284 391 1588 391 
Q 1994 391 2212 530 
Q 2431 669 2431 922 
Q 2431 1156 2273 1281 
Q 2116 1406 1581 1522 
L 1381 1569 
Q 847 1681 609 1914 
Q 372 2147 372 2553 
Q 372 3047 722 3315 
Q 1072 3584 1716 3584 
Q 2034 3584 2315 3537 
Q 2597 3491 2834 3397 
z
" transform="scale(0.015625)"/>
     </defs>
     <use xlink:href="#DejaVuSans-41"/>
     <use xlink:href="#DejaVuSans-76" x="62.533203"/>
     <use xlink:href="#DejaVuSans-65" x="121.712891"/>
     <use xlink:href="#DejaVuSans-73" x="183.236328"/>
    </g>
   </g>
   <g id="text_2">
    <!-- 16.6% -->
    <g transform="translate(300.657544 235.887914) scale(0.1 -0.1)">
     <defs>
      <path id="DejaVuSans-31" d="M 794 531 
L 1825 531 
L 1825 4091 
L 703 3866 
L 703 4441 
L 1819 4666 
L 2450 4666 
L 2450 531 
L 3481 531 
L 3481 0 
L 794 0 
L 794 531 
z
" transform="scale(0.015625)"/>
      <path id="DejaVuSans-36" d="M 2113 2584 
Q 1688 2584 1439 2293 
Q 1191 2003 1191 1497 
Q 1191 994 1439 701 
Q 1688 409 2113 409 
Q 2538 409 2786 701 
Q 3034 994 3034 1497 
Q 3034 2003 2786 2293 
Q 2538 2584 2113 2584 
z
M 3366 4563 
L 3366 3988 
Q 3128 4100 2886 4159 
Q 2644 4219 2406 4219 
Q 1781 4219 1451 3797 
Q 1122 3375 1075 2522 
Q 1259 2794 1537 2939 
Q 1816 3084 2150 3084 
Q 2853 3084 3261 2657 
Q 3669 2231 3669 1497 
Q 3669 778 3244 343 
Q 2819 -91 2113 -91 
Q 1303 -91 875 529 
Q 447 1150 447 2328 
Q 447 3434 972 4092 
Q 1497 4750 2381 4750 
Q 2619 4750 2861 4703 
Q 3103 4656 3366 4563 
z
" transform="scale(0.015625)"/>
      <path id="DejaVuSans-2e" d="M 684 794 
L 1344 794 
L 1344 0 
L 684 0 
L 684 794 
z
" transform="scale(0.015625)"/>
      <path id="DejaVuSans-25" d="M 4653 2053 
Q 4381 2053 4226 1822 
Q 4072 1591 4072 1178 
Q 4072 772 4226 539 
Q 4381 306 4653 306 
Q 4919 306 5073 539 
Q 5228 772 5228 1178 
Q 5228 1588 5073 1820 
Q 4919 2053 4653 2053 
z
M 4653 2450 
Q 5147 2450 5437 2106 
Q 5728 1763 5728 1178 
Q 5728 594 5436 251 
Q 5144 -91 4653 -91 
Q 4153 -91 3862 251 
Q 3572 594 3572 1178 
Q 3572 1766 3864 2108 
Q 4156 2450 4653 2450 
z
M 1428 4353 
Q 1159 4353 1004 4120 
Q 850 3888 850 3481 
Q 850 3069 1003 2837 
Q 1156 2606 1428 2606 
Q 1700 2606 1854 2837 
Q 2009 3069 2009 3481 
Q 2009 3884 1853 4118 
Q 1697 4353 1428 4353 
z
M 4250 4750 
L 4750 4750 
L 1831 -91 
L 1331 -91 
L 4250 4750 
z
M 1428 4750 
Q 1922 4750 2215 4408 
Q 2509 4066 2509 3481 
Q 2509 2891 2217 2550 
Q 1925 2209 1428 2209 
Q 931 2209 642 2551 
Q 353 2894 353 3481 
Q 353 4063 643 4406 
Q 934 4750 1428 4750 
z
" transform="scale(0.015625)"/>
     </defs>
     <use xlink:href="#DejaVuSans-31"/>
     <use xlink:href="#DejaVuSans-36" x="63.623047"/>
     <use xlink:href="#DejaVuSans-2e" x="127.246094"/>
     <use xlink:href="#DejaVuSans-36" x="159.033203"/>
     <use xlink:href="#DejaVuSans-25" x="222.65625"/>
    </g>
   </g>
   <g id="text_3">
    <!-- Veículos -->
    <g transform="translate(245.077151 403.171732) scale(0.12 -0.12)">
     <defs>
      <path id="DejaVuSans-56" d="M 1831 0 
L 50 4666 
L 709 4666 
L 2188 738 
L 3669 4666 
L 4325 4666 
L 2547 0 
L 1831 0 
z
" transform="scale(0.015625)"/>
      <path id="DejaVuSans-ed" d="M 1325 5119 
L 1947 5119 
L 928 3944 
L 450 3944 
L 1325 5119 
z
M 603 3500 
L 1178 3500 
L 1178 0 
L 603 0 
L 603 3500 
z
M 891 3584 
L 891 3584 
z
" transform="scale(0.015625)"/>
      <path id="DejaVuSans-63" d="M 3122 3366 
L 3122 2828 
Q 2878 2963 2633 3030 
Q 2388 3097 2138 3097 
Q 1578 3097 1268 2742 
Q 959 2388 959 1747 
Q 959 1106 1268 751 
Q 1578 397 2138 397 
Q 2388 397 2633 464 
Q 2878 531 3122 666 
L 3122 134 
Q 2881 22 2623 -34 
Q 2366 -91 2075 -91 
Q 1284 -91 818 406 
Q 353 903 353 1747 
Q 353 2603 823 3093 
Q 1294 3584 2113 3584 
Q 2378 3584 2631 3529 
Q 2884 3475 3122 3366 
z
" transform="scale(0.015625)"/>
      <path id="DejaVuSans-75" d="M 544 1381 
L 544 3500 
L 1119 3500 
L 1119 1403 
Q 1119 906 1312 657 
Q 1506 409 1894 409 
Q 2359 409 2629 706 
Q 2900 1003 2900 1516 
L 2900 3500 
L 3475 3500 
L 3475 0 
L 2900 0 
L 2900 538 
Q 2691 219 2414 64 
Q 2138 -91 1772 -91 
Q 1169 -91 856 284 
Q 544 659 544 1381 
z
M 1991 3584 
L 1991 3584 
z
" transform="scale(0.015625)"/>
      <path id="DejaVuSans-6c" d="M 603 4863 
L 1178 4863 
L 1178 0 
L 603 0 
L 603 4863 
z
" transform="scale(0.015625)"/>
      <path id="DejaVuSans-6f" d="M 1959 3097 
Q 1497 3097 1228 2736 
Q 959 2375 959 1747 
Q 959 1119 1226 758 
Q 1494 397 1959 397 
Q 2419 397 2687 759 
Q 2956 1122 2956 1747 
Q 2956 2369 2687 2733 
Q 2419 3097 1959 3097 
z
M 1959 3584 
Q 2709 3584 3137 3096 
Q 3566 2609 3566 1747 
Q 3566 888 3137 398 
Q 2709 -91 1959 -91 
Q 1206 -91 779 398 
Q 353 888 353 1747 
Q 353 2609 779 3096 
Q 1206 3584 1959 3584 
z
" transform="scale(0.015625)"/>
     </defs>
     <use xlink:href="#DejaVuSans-56"/>
     <use xlink:href="#DejaVuSans-65" x="60.658203"/>
     <use xlink:href="#DejaVuSans-ed" x="122.181641"/>
     <use xlink:href="#DejaVuSans-63" x="149.964844"/>
     <use xlink:href="#DejaVuSans-75" x="204.945312"/>
     <use xlink:href="#DejaVuSans-6c" x="268.324219"/>
     <use xlink:href="#DejaVuSans-6f" x="296.107422"/>
     <use xlink:href="#DejaVuSans-73" x="357.289062"/>
    </g>
   </g>
   <g id="text_4">
    <!-- 16.4% -->
    <g transform="translate(336.107191 335.321342) scale(0.1 -0.1)">
     <defs>
      <path id="DejaVuSans-34" d="M 2419 4116 
L 825 1625 
L 2419 1625 
L 2419 4116 
z
M 2253 4666 
L 3047 4666 
L 3047 1625 
L 3713 1625 
L 3713 1100 
L 3047 1100 
L 3047 0 
L 2419 0 
L 2419 1100 
L 313 1100 
L 313 1709 
L 2253 4666 
z
" transform="scale(0.015625)"/>
     </defs>
     <use xlink:href="#DejaVuSans-31"/>
     <use xlink:href="#DejaVuSans-36" x="63.623047"/>
     <use xlink:href="#DejaVuSans-2e" x="127.246094"/>
     <use xlink:href="#DejaVuSans-34" x="159.033203"/>
     <use xlink:href="#DejaVuSans-25" x="222.65625"/>
    </g>
   </g>
   <g id="text_5">
    <!-- Malfeitoria/Vandalismo -->
    <g transform="translate(474.817912 442.791906) scale(0.12 -0.12)">
     <defs>
      <path id="DejaVuSans-4d" d="M 628 4666 
L 1569 4666 
L 2759 1491 
L 3956 4666 
L 4897 4666 
L 4897 0 
L 4281 0 
L 4281 4097 
L 3078 897 
L 2444 897 
L 1241 4097 
L 1241 0 
L 628 0 
L 628 4666 
z
" transform="scale(0.015625)"/>
      <path id="DejaVuSans-61" d="M 2194 1759 
Q 1497 1759 1228 1600 
Q 959 1441 959 1056 
Q 959 750 1161 570 
Q 1363 391 1709 391 
Q 2188 391 2477 730 
Q 2766 1069 2766 1631 
L 2766 1759 
L 2194 1759 
z
M 3341 1997 
L 3341 0 
L 2766 0 
L 2766 531 
Q 2569 213 2275 61 
Q 1981 -91 1556 -91 
Q 1019 -91 701 211 
Q 384 513 384 1019 
Q 384 1609 779 1909 
Q 1175 2209 1959 2209 
L 2766 2209 
L 2766 2266 
Q 2766 2663 2505 2880 
Q 2244 3097 1772 3097 
Q 1472 3097 1187 3025 
Q 903 2953 641 2809 
L 641 3341 
Q 956 3463 1253 3523 
Q 1550 3584 1831 3584 
Q 2591 3584 2966 3190 
Q 3341 2797 3341 1997 
z
" transform="scale(0.015625)"/>
      <path id="DejaVuSans-66" d="M 2375 4863 
L 2375 4384 
L 1825 4384 
Q 1516 4384 1395 4259 
Q 1275 4134 1275 3809 
L 1275 3500 
L 2222 3500 
L 2222 3053 
L 1275 3053 
L 1275 0 
L 697 0 
L 697 3053 
L 147 3053 
L 147 3500 
L 697 3500 
L 697 3744 
Q 697 4328 969 4595 
Q 1241 4863 1831 4863 
L 2375 4863 
z
" transform="scale(0.015625)"/>
      <path id="DejaVuSans-69" d="M 603 3500 
L 1178 3500 
L 1178 0 
L 603 0 
L 603 3500 
z
M 603 4863 
L 1178 4863 
L 1178 4134 
L 603 4134 
L 603 4863 
z
" transform="scale(0.015625)"/>
      <path id="DejaVuSans-74" d="M 1172 4494 
L 1172 3500 
L 2356 3500 
L 2356 3053 
L 1172 3053 
L 1172 1153 
Q 1172 725 1289 603 
Q 1406 481 1766 481 
L 2356 481 
L 2356 0 
L 1766 0 
Q 1100 0 847 248 
Q 594 497 594 1153 
L 594 3053 
L 172 3053 
L 172 3500 
L 594 3500 
L 594 4494 
L 1172 4494 
z
" transform="scale(0.015625)"/>
      <path id="DejaVuSans-72" d="M 2631 2963 
Q 2534 3019 2420 3045 
Q 2306 3072 2169 3072 
Q 1681 3072 1420 2755 
Q 1159 2438 1159 1844 
L 1159 0 
L 581 0 
L 581 3500 
L 1159 3500 
L 1159 2956 
Q 1341 3275 1631 3429 
Q 1922 3584 2338 3584 
Q 2397 3584 2469 3576 
Q 2541 3569 2628 3553 
L 2631 2963 
z
" transform="scale(0.015625)"/>
      <path id="DejaVuSans-2f" d="M 1625 4666 
L 2156 4666 
L 531 -594 
L 0 -594 
L 1625 4666 
z
" transform="scale(0.015625)"/>
      <path id="DejaVuSans-6e" d="M 3513 2113 
L 3513 0 
L 2938 0 
L 2938 2094 
Q 2938 2591 2744 2837 
Q 2550 3084 2163 3084 
Q 1697 3084 1428 2787 
Q 1159 2491 1159 1978 
L 1159 0 
L 581 0 
L 581 3500 
L 1159 3500 
L 1159 2956 
Q 1366 3272 1645 3428 
Q 1925 3584 2291 3584 
Q 2894 3584 3203 3211 
Q 3513 2838 3513 2113 
z
" transform="scale(0.015625)"/>
      <path id="DejaVuSans-64" d="M 2906 2969 
L 2906 4863 
L 3481 4863 
L 3481 0 
L 2906 0 
L 2906 525 
Q 2725 213 2448 61 
Q 2172 -91 1784 -91 
Q 1150 -91 751 415 
Q 353 922 353 1747 
Q 353 2572 751 3078 
Q 1150 3584 1784 3584 
Q 2172 3584 2448 3432 
Q 2725 3281 2906 2969 
z
M 947 1747 
Q 947 1113 1208 752 
Q 1469 391 1925 391 
Q 2381 391 2643 752 
Q 2906 1113 2906 1747 
Q 2906 2381 2643 2742 
Q 2381 3103 1925 3103 
Q 1469 3103 1208 2742 
Q 947 2381 947 1747 
z
" transform="scale(0.015625)"/>
      <path id="DejaVuSans-6d" d="M 3328 2828 
Q 3544 3216 3844 3400 
Q 4144 3584 4550 3584 
Q 5097 3584 5394 3201 
Q 5691 2819 5691 2113 
L 5691 0 
L 5113 0 
L 5113 2094 
Q 5113 2597 4934 2840 
Q 4756 3084 4391 3084 
Q 3944 3084 3684 2787 
Q 3425 2491 3425 1978 
L 3425 0 
L 2847 0 
L 2847 2094 
Q 2847 2600 2669 2842 
Q 2491 3084 2119 3084 
Q 1678 3084 1418 2786 
Q 1159 2488 1159 1978 
L 1159 0 
L 581 0 
L 581 3500 
L 1159 3500 
L 1159 2956 
Q 1356 3278 1631 3431 
Q 1906 3584 2284 3584 
Q 2666 3584 2933 3390 
Q 3200 3197 3328 2828 
z
" transform="scale(0.015625)"/>
     </defs>
     <use xlink:href="#DejaVuSans-4d"/>
     <use xlink:href="#DejaVuSans-61" x="86.279297"/>
     <use xlink:href="#DejaVuSans-6c" x="147.558594"/>
     <use xlink:href="#DejaVuSans-66" x="175.341797"/>
     <use xlink:href="#DejaVuSans-65" x="210.546875"/>
     <use xlink:href="#DejaVuSans-69" x="272.070312"/>
     <use xlink:href="#DejaVuSans-74" x="299.853516"/>
     <use xlink:href="#DejaVuSans-6f" x="339.0625"/>
     <use xlink:href="#DejaVuSans-72" x="400.244141"/>
     <use xlink:href="#DejaVuSans-69" x="441.357422"/>
     <use xlink:href="#DejaVuSans-61" x="469.140625"/>
     <use xlink:href="#DejaVuSans-2f" x="530.419922"/>
     <use xlink:href="#DejaVuSans-56" x="564.111328"/>
     <use xlink:href="#DejaVuSans-61" x="624.769531"/>
     <use xlink:href="#DejaVuSans-6e" x="686.048828"/>
     <use xlink:href="#DejaVuSans-64" x="749.427734"/>
     <use xlink:href="#DejaVuSans-61" x="812.904297"/>
     <use xlink:href="#DejaVuSans-6c" x="874.183594"/>
     <use xlink:href="#DejaVuSans-69" x="901.966797"/>
     <use xlink:href="#DejaVuSans-73" x="929.75"/>
     <use xlink:href="#DejaVuSans-6d" x="981.849609"/>
     <use xlink:href="#DejaVuSans-6f" x="1079.261719"/>
    </g>
   </g>
   <g id="text_6">
    <!-- 15.0% -->
    <g transform="translate(434.623857 356.932347) scale(0.1 -0.1)">
     <defs>
      <path id="DejaVuSans-35" d="M 691 4666 
L 3169 4666 
L 3169 4134 
L 1269 4134 
L 1269 2991 
Q 1406 3038 1543 3061 
Q 1681 3084 1819 3084 
Q 2600 3084 3056 2656 
Q 3513 2228 3513 1497 
Q 3513 744 3044 326 
Q 2575 -91 1722 -91 
Q 1428 -91 1123 -41 
Q 819 9 494 109 
L 494 744 
Q 775 591 1075 516 
Q 1375 441 1709 441 
Q 2250 441 2565 725 
Q 2881 1009 2881 1497 
Q 2881 1984 2565 2268 
Q 2250 2553 1709 2553 
Q 1456 2553 1204 2497 
Q 953 2441 691 2322 
L 691 4666 
z
" transform="scale(0.015625)"/>
      <path id="DejaVuSans-30" d="M 2034 4250 
Q 1547 4250 1301 3770 
Q 1056 3291 1056 2328 
Q 1056 1369 1301 889 
Q 1547 409 2034 409 
Q 2525 409 2770 889 
Q 3016 1369 3016 2328 
Q 3016 3291 2770 3770 
Q 2525 4250 2034 4250 
z
M 2034 4750 
Q 2819 4750 3233 4129 
Q 3647 3509 3647 2328 
Q 3647 1150 3233 529 
Q 2819 -91 2034 -91 
Q 1250 -91 836 529 
Q 422 1150 422 2328 
Q 422 3509 836 4129 
Q 1250 4750 2034 4750 
z
" transform="scale(0.015625)"/>
     </defs>
     <use xlink:href="#DejaVuSans-31"/>
     <use xlink:href="#DejaVuSans-35" x="63.623047"/>
     <use xlink:href="#DejaVuSans-2e" x="127.246094"/>
     <use xlink:href="#DejaVuSans-30" x="159.033203"/>
     <use xlink:href="#DejaVuSans-25" x="222.65625"/>
    </g>
   </g>
   <g id="text_7">
    <!-- Abate De Árvores -->
    <g transform="translate(600.920329 331.483361) scale(0.12 -0.12)">
     <defs>
      <path id="DejaVuSans-62" d="M 3116 1747 
Q 3116 2381 2855 2742 
Q 2594 3103 2138 3103 
Q 1681 3103 1420 2742 
Q 1159 2381 1159 1747 
Q 1159 1113 1420 752 
Q 1681 391 2138 391 
Q 2594 391 2855 752 
Q 3116 1113 3116 1747 
z
M 1159 2969 
Q 1341 3281 1617 3432 
Q 1894 3584 2278 3584 
Q 2916 3584 3314 3078 
Q 3713 2572 3713 1747 
Q 3713 922 3314 415 
Q 2916 -91 2278 -91 
Q 1894 -91 1617 61 
Q 1341 213 1159 525 
L 1159 0 
L 581 0 
L 581 4863 
L 1159 4863 
L 1159 2969 
z
" transform="scale(0.015625)"/>
      <path id="DejaVuSans-20" transform="scale(0.015625)"/>
      <path id="DejaVuSans-44" d="M 1259 4147 
L 1259 519 
L 2022 519 
Q 2988 519 3436 956 
Q 3884 1394 3884 2338 
Q 3884 3275 3436 3711 
Q 2988 4147 2022 4147 
L 1259 4147 
z
M 628 4666 
L 1925 4666 
Q 3281 4666 3915 4102 
Q 4550 3538 4550 2338 
Q 4550 1131 3912 565 
Q 3275 0 1925 0 
L 628 0 
L 628 4666 
z
" transform="scale(0.015625)"/>
      <path id="DejaVuSans-c1" d="M 2188 4044 
L 1331 1722 
L 3047 1722 
L 2188 4044 
z
M 1831 4666 
L 2547 4666 
L 4325 0 
L 3669 0 
L 3244 1197 
L 1141 1197 
L 716 0 
L 50 0 
L 1831 4666 
z
M 2359 5935 
L 2938 5935 
L 2225 5110 
L 1747 5110 
L 2359 5935 
z
" transform="scale(0.015625)"/>
     </defs>
     <use xlink:href="#DejaVuSans-41"/>
     <use xlink:href="#DejaVuSans-62" x="68.408203"/>
     <use xlink:href="#DejaVuSans-61" x="131.884766"/>
     <use xlink:href="#DejaVuSans-74" x="193.164062"/>
     <use xlink:href="#DejaVuSans-65" x="232.373047"/>
     <use xlink:href="#DejaVuSans-20" x="293.896484"/>
     <use xlink:href="#DejaVuSans-44" x="325.683594"/>
     <use xlink:href="#DejaVuSans-65" x="402.685547"/>
     <use xlink:href="#DejaVuSans-20" x="464.208984"/>
     <use xlink:href="#DejaVuSans-c1" x="495.996094"/>
     <use xlink:href="#DejaVuSans-72" x="564.404297"/>
     <use xlink:href="#DejaVuSans-76" x="605.517578"/>
     <use xlink:href="#DejaVuSans-6f" x="664.697266"/>
     <use xlink:href="#DejaVuSans-72" x="725.878906"/>
     <use xlink:href="#DejaVuSans-65" x="764.742188"/>
     <use xlink:href="#DejaVuSans-73" x="826.265625"/>
    </g>
   </g>
   <g id="text_8">
    <!-- 13.4% -->
    <g transform="translate(503.406993 296.218595) scale(0.1 -0.1)">
     <defs>
      <path id="DejaVuSans-33" d="M 2597 2516 
Q 3050 2419 3304 2112 
Q 3559 1806 3559 1356 
Q 3559 666 3084 287 
Q 2609 -91 1734 -91 
Q 1441 -91 1130 -33 
Q 819 25 488 141 
L 488 750 
Q 750 597 1062 519 
Q 1375 441 1716 441 
Q 2309 441 2620 675 
Q 2931 909 2931 1356 
Q 2931 1769 2642 2001 
Q 2353 2234 1838 2234 
L 1294 2234 
L 1294 2753 
L 1863 2753 
Q 2328 2753 2575 2939 
Q 2822 3125 2822 3475 
Q 2822 3834 2567 4026 
Q 2313 4219 1838 4219 
Q 1578 4219 1281 4162 
Q 984 4106 628 3988 
L 628 4550 
Q 988 4650 1302 4700 
Q 1616 4750 1894 4750 
Q 2613 4750 3031 4423 
Q 3450 4097 3450 3541 
Q 3450 3153 3228 2886 
Q 3006 2619 2597 2516 
z
" transform="scale(0.015625)"/>
     </defs>
     <use xlink:href="#DejaVuSans-31"/>
     <use xlink:href="#DejaVuSans-33" x="63.623047"/>
     <use xlink:href="#DejaVuSans-2e" x="127.246094"/>
     <use xlink:href="#DejaVuSans-34" x="159.033203"/>
     <use xlink:href="#DejaVuSans-25" x="222.65625"/>
    </g>
   </g>
   <g id="text_9">
    <!-- Escavações -->
    <g transform="translate(598.610472 173.539336) scale(0.12 -0.12)">
     <defs>
      <path id="DejaVuSans-45" d="M 628 4666 
L 3578 4666 
L 3578 4134 
L 1259 4134 
L 1259 2753 
L 3481 2753 
L 3481 2222 
L 1259 2222 
L 1259 531 
L 3634 531 
L 3634 0 
L 628 0 
L 628 4666 
z
" transform="scale(0.015625)"/>
      <path id="DejaVuSans-e7" d="M 3122 3366 
L 3122 2828 
Q 2878 2963 2633 3030 
Q 2388 3097 2138 3097 
Q 1578 3097 1268 2742 
Q 959 2388 959 1747 
Q 959 1106 1268 751 
Q 1578 397 2138 397 
Q 2388 397 2633 464 
Q 2878 531 3122 666 
L 3122 134 
Q 2881 22 2623 -34 
Q 2366 -91 2075 -91 
Q 1284 -91 818 406 
Q 353 903 353 1747 
Q 353 2603 823 3093 
Q 1294 3584 2113 3584 
Q 2378 3584 2631 3529 
Q 2884 3475 3122 3366 
z
M 2309 0 
Q 2481 -194 2565 -358 
Q 2650 -522 2650 -672 
Q 2650 -950 2462 -1092 
Q 2275 -1234 1906 -1234 
Q 1763 -1234 1627 -1215 
Q 1491 -1197 1356 -1159 
L 1356 -750 
Q 1463 -803 1578 -826 
Q 1694 -850 1841 -850 
Q 2025 -850 2119 -775 
Q 2213 -700 2213 -556 
Q 2213 -463 2145 -327 
Q 2078 -191 1938 0 
L 2309 0 
z
" transform="scale(0.015625)"/>
      <path id="DejaVuSans-f5" d="M 1959 3097 
Q 1497 3097 1228 2736 
Q 959 2375 959 1747 
Q 959 1119 1226 758 
Q 1494 397 1959 397 
Q 2419 397 2687 759 
Q 2956 1122 2956 1747 
Q 2956 2369 2687 2733 
Q 2419 3097 1959 3097 
z
M 1959 3584 
Q 2709 3584 3137 3096 
Q 3566 2609 3566 1747 
Q 3566 888 3137 398 
Q 2709 -91 1959 -91 
Q 1206 -91 779 398 
Q 353 888 353 1747 
Q 353 2609 779 3096 
Q 1206 3584 1959 3584 
z
M 1947 4281 
L 1769 4453 
Q 1700 4516 1648 4545 
Q 1597 4575 1556 4575 
Q 1438 4575 1381 4461 
Q 1325 4347 1319 4091 
L 928 4091 
Q 934 4513 1093 4742 
Q 1253 4972 1538 4972 
Q 1656 4972 1756 4928 
Q 1856 4884 1972 4781 
L 2150 4609 
Q 2219 4547 2270 4517 
Q 2322 4488 2363 4488 
Q 2481 4488 2537 4602 
Q 2594 4716 2600 4972 
L 2991 4972 
Q 2984 4550 2825 4320 
Q 2666 4091 2381 4091 
Q 2263 4091 2163 4134 
Q 2063 4178 1947 4281 
z
" transform="scale(0.015625)"/>
     </defs>
     <use xlink:href="#DejaVuSans-45"/>
     <use xlink:href="#DejaVuSans-73" x="63.183594"/>
     <use xlink:href="#DejaVuSans-63" x="115.283203"/>
     <use xlink:href="#DejaVuSans-61" x="170.263672"/>
     <use xlink:href="#DejaVuSans-76" x="231.542969"/>
     <use xlink:href="#DejaVuSans-61" x="290.722656"/>
     <use xlink:href="#DejaVuSans-e7" x="352.001953"/>
     <use xlink:href="#DejaVuSans-f5" x="406.982422"/>
     <use xlink:href="#DejaVuSans-65" x="468.164062"/>
     <use xlink:href="#DejaVuSans-73" x="529.6875"/>
    </g>
   </g>
   <g id="text_10">
    <!-- 13.2% -->
    <g transform="translate(502.147071 210.061172) scale(0.1 -0.1)">
     <defs>
      <path id="DejaVuSans-32" d="M 1228 531 
L 3431 531 
L 3431 0 
L 469 0 
L 469 531 
Q 828 903 1448 1529 
Q 2069 2156 2228 2338 
Q 2531 2678 2651 2914 
Q 2772 3150 2772 3378 
Q 2772 3750 2511 3984 
Q 2250 4219 1831 4219 
Q 1534 4219 1204 4116 
Q 875 4013 500 3803 
L 500 4441 
Q 881 4594 1212 4672 
Q 1544 4750 1819 4750 
Q 2544 4750 2975 4387 
Q 3406 4025 3406 3419 
Q 3406 3131 3298 2873 
Q 3191 2616 2906 2266 
Q 2828 2175 2409 1742 
Q 1991 1309 1228 531 
z
" transform="scale(0.015625)"/>
     </defs>
     <use xlink:href="#DejaVuSans-31"/>
     <use xlink:href="#DejaVuSans-33" x="63.623047"/>
     <use xlink:href="#DejaVuSans-2e" x="127.246094"/>
     <use xlink:href="#DejaVuSans-32" x="159.033203"/>
     <use xlink:href="#DejaVuSans-25" x="222.65625"/>
    </g>
   </g>
   <g id="text_11">
    <!-- Incêndio -->
    <g transform="translate(519.864587 86.66633) scale(0.12 -0.12)">
     <defs>
      <path id="DejaVuSans-49" d="M 628 4666 
L 1259 4666 
L 1259 0 
L 628 0 
L 628 4666 
z
" transform="scale(0.015625)"/>
      <path id="DejaVuSans-ea" d="M 3597 1894 
L 3597 1613 
L 953 1613 
Q 991 1019 1311 708 
Q 1631 397 2203 397 
Q 2534 397 2845 478 
Q 3156 559 3463 722 
L 3463 178 
Q 3153 47 2828 -22 
Q 2503 -91 2169 -91 
Q 1331 -91 842 396 
Q 353 884 353 1716 
Q 353 2575 817 3079 
Q 1281 3584 2069 3584 
Q 2775 3584 3186 3129 
Q 3597 2675 3597 1894 
z
M 3022 2063 
Q 3016 2534 2758 2815 
Q 2500 3097 2075 3097 
Q 1594 3097 1305 2825 
Q 1016 2553 972 2059 
L 3022 2063 
z
M 1803 5119 
L 2266 5119 
L 3031 3944 
L 2597 3944 
L 2034 4709 
L 1472 3944 
L 1038 3944 
L 1803 5119 
z
" transform="scale(0.015625)"/>
     </defs>
     <use xlink:href="#DejaVuSans-49"/>
     <use xlink:href="#DejaVuSans-6e" x="29.492188"/>
     <use xlink:href="#DejaVuSans-63" x="92.871094"/>
     <use xlink:href="#DejaVuSans-ea" x="147.851562"/>
     <use xlink:href="#DejaVuSans-6e" x="209.375"/>
     <use xlink:href="#DejaVuSans-64" x="272.753906"/>
     <use xlink:href="#DejaVuSans-69" x="336.230469"/>
     <use xlink:href="#DejaVuSans-6f" x="364.013672"/>
    </g>
   </g>
   <g id="text_12">
    <!-- 6.3% -->
    <g transform="translate(462.37602 162.682032) scale(0.1 -0.1)">
     <use xlink:href="#DejaVuSans-36"/>
     <use xlink:href="#DejaVuSans-2e" x="63.623047"/>
     <use xlink:href="#DejaVuSans-33" x="95.410156"/>
     <use xlink:href="#DejaVuSans-25" x="159.033203"/>
    </g>
   </g>
   <g id="text_13">
    <!-- Descarga Atmosférica Directa -->
    <g transform="translate(456.624056 63.423425) scale(0.12 -0.12)">
     <defs>
      <path id="DejaVuSans-67" d="M 2906 1791 
Q 2906 2416 2648 2759 
Q 2391 3103 1925 3103 
Q 1463 3103 1205 2759 
Q 947 2416 947 1791 
Q 947 1169 1205 825 
Q 1463 481 1925 481 
Q 2391 481 2648 825 
Q 2906 1169 2906 1791 
z
M 3481 434 
Q 3481 -459 3084 -895 
Q 2688 -1331 1869 -1331 
Q 1566 -1331 1297 -1286 
Q 1028 -1241 775 -1147 
L 775 -588 
Q 1028 -725 1275 -790 
Q 1522 -856 1778 -856 
Q 2344 -856 2625 -561 
Q 2906 -266 2906 331 
L 2906 616 
Q 2728 306 2450 153 
Q 2172 0 1784 0 
Q 1141 0 747 490 
Q 353 981 353 1791 
Q 353 2603 747 3093 
Q 1141 3584 1784 3584 
Q 2172 3584 2450 3431 
Q 2728 3278 2906 2969 
L 2906 3500 
L 3481 3500 
L 3481 434 
z
" transform="scale(0.015625)"/>
      <path id="DejaVuSans-e9" d="M 3597 1894 
L 3597 1613 
L 953 1613 
Q 991 1019 1311 708 
Q 1631 397 2203 397 
Q 2534 397 2845 478 
Q 3156 559 3463 722 
L 3463 178 
Q 3153 47 2828 -22 
Q 2503 -91 2169 -91 
Q 1331 -91 842 396 
Q 353 884 353 1716 
Q 353 2575 817 3079 
Q 1281 3584 2069 3584 
Q 2775 3584 3186 3129 
Q 3597 2675 3597 1894 
z
M 3022 2063 
Q 3016 2534 2758 2815 
Q 2500 3097 2075 3097 
Q 1594 3097 1305 2825 
Q 1016 2553 972 2059 
L 3022 2063 
z
M 2469 5119 
L 3091 5119 
L 2072 3944 
L 1594 3944 
L 2469 5119 
z
" transform="scale(0.015625)"/>
     </defs>
     <use xlink:href="#DejaVuSans-44"/>
     <use xlink:href="#DejaVuSans-65" x="77.001953"/>
     <use xlink:href="#DejaVuSans-73" x="138.525391"/>
     <use xlink:href="#DejaVuSans-63" x="190.625"/>
     <use xlink:href="#DejaVuSans-61" x="245.605469"/>
     <use xlink:href="#DejaVuSans-72" x="306.884766"/>
     <use xlink:href="#DejaVuSans-67" x="346.248047"/>
     <use xlink:href="#DejaVuSans-61" x="409.724609"/>
     <use xlink:href="#DejaVuSans-20" x="471.003906"/>
     <use xlink:href="#DejaVuSans-41" x="502.791016"/>
     <use xlink:href="#DejaVuSans-74" x="569.449219"/>
     <use xlink:href="#DejaVuSans-6d" x="608.658203"/>
     <use xlink:href="#DejaVuSans-6f" x="706.070312"/>
     <use xlink:href="#DejaVuSans-73" x="767.251953"/>
     <use xlink:href="#DejaVuSans-66" x="819.351562"/>
     <use xlink:href="#DejaVuSans-e9" x="854.556641"/>
     <use xlink:href="#DejaVuSans-72" x="916.080078"/>
     <use xlink:href="#DejaVuSans-69" x="957.193359"/>
     <use xlink:href="#DejaVuSans-63" x="984.976562"/>
     <use xlink:href="#DejaVuSans-61" x="1039.957031"/>
     <use xlink:href="#DejaVuSans-20" x="1101.236328"/>
     <use xlink:href="#DejaVuSans-44" x="1133.023438"/>
     <use xlink:href="#DejaVuSans-69" x="1210.025391"/>
     <use xlink:href="#DejaVuSans-72" x="1237.808594"/>
     <use xlink:href="#DejaVuSans-65" x="1276.671875"/>
     <use xlink:href="#DejaVuSans-63" x="1338.195312"/>
     <use xlink:href="#DejaVuSans-74" x="1393.175781"/>
     <use xlink:href="#DejaVuSans-61" x="1432.384766"/>
    </g>
   </g>
   <g id="text_14">
    <!-- 4.8% -->
    <g transform="translate(427.881185 149.873175) scale(0.1 -0.1)">
     <defs>
      <path id="DejaVuSans-38" d="M 2034 2216 
Q 1584 2216 1326 1975 
Q 1069 1734 1069 1313 
Q 1069 891 1326 650 
Q 1584 409 2034 409 
Q 2484 409 2743 651 
Q 3003 894 3003 1313 
Q 3003 1734 2745 1975 
Q 2488 2216 2034 2216 
z
M 1403 2484 
Q 997 2584 770 2862 
Q 544 3141 544 3541 
Q 544 4100 942 4425 
Q 1341 4750 2034 4750 
Q 2731 4750 3128 4425 
Q 3525 4100 3525 3541 
Q 3525 3141 3298 2862 
Q 3072 2584 2669 2484 
Q 3125 2378 3379 2068 
Q 3634 1759 3634 1313 
Q 3634 634 3220 271 
Q 2806 -91 2034 -91 
Q 1263 -91 848 271 
Q 434 634 434 1313 
Q 434 1759 690 2068 
Q 947 2378 1403 2484 
z
M 1172 3481 
Q 1172 3119 1398 2916 
Q 1625 2713 2034 2713 
Q 2441 2713 2670 2916 
Q 2900 3119 2900 3481 
Q 2900 3844 2670 4047 
Q 2441 4250 2034 4250 
Q 1625 4250 1398 4047 
Q 1172 3844 1172 3481 
z
" transform="scale(0.015625)"/>
     </defs>
     <use xlink:href="#DejaVuSans-34"/>
     <use xlink:href="#DejaVuSans-2e" x="63.623047"/>
     <use xlink:href="#DejaVuSans-38" x="95.410156"/>
     <use xlink:href="#DejaVuSans-25" x="159.033203"/>
    </g>
   </g>
   <g id="text_15">
    <!-- Furtos -->
    <g transform="translate(365.611663 60.858947) scale(0.12 -0.12)">
     <defs>
      <path id="DejaVuSans-46" d="M 628 4666 
L 3309 4666 
L 3309 4134 
L 1259 4134 
L 1259 2759 
L 3109 2759 
L 3109 2228 
L 1259 2228 
L 1259 0 
L 628 0 
L 628 4666 
z
" transform="scale(0.015625)"/>
     </defs>
     <use xlink:href="#DejaVuSans-46"/>
     <use xlink:href="#DejaVuSans-75" x="52.019531"/>
     <use xlink:href="#DejaVuSans-72" x="115.398438"/>
     <use xlink:href="#DejaVuSans-74" x="156.511719"/>
     <use xlink:href="#DejaVuSans-6f" x="195.720703"/>
     <use xlink:href="#DejaVuSans-73" x="256.902344"/>
    </g>
   </g>
   <g id="text_16">
    <!-- 4.0% -->
    <g transform="translate(398.462493 148.605278) scale(0.1 -0.1)">
     <use xlink:href="#DejaVuSans-34"/>
     <use xlink:href="#DejaVuSans-2e" x="63.623047"/>
     <use xlink:href="#DejaVuSans-30" x="95.410156"/>
     <use xlink:href="#DejaVuSans-25" x="159.033203"/>
    </g>
   </g>
   <g id="text_17">
    <!-- Intervenções À Superficie -->
    <g transform="translate(210.289553 69.586601) scale(0.12 -0.12)">
     <defs>
      <path id="DejaVuSans-c0" d="M 2188 4044 
L 1331 1722 
L 3047 1722 
L 2188 4044 
z
M 1831 4666 
L 2547 4666 
L 4325 0 
L 3669 0 
L 3244 1197 
L 1141 1197 
L 716 0 
L 50 0 
L 1831 4666 
z
M 2009 5935 
L 2622 5110 
L 2144 5110 
L 1425 5935 
L 2009 5935 
z
" transform="scale(0.015625)"/>
      <path id="DejaVuSans-53" d="M 3425 4513 
L 3425 3897 
Q 3066 4069 2747 4153 
Q 2428 4238 2131 4238 
Q 1616 4238 1336 4038 
Q 1056 3838 1056 3469 
Q 1056 3159 1242 3001 
Q 1428 2844 1947 2747 
L 2328 2669 
Q 3034 2534 3370 2195 
Q 3706 1856 3706 1288 
Q 3706 609 3251 259 
Q 2797 -91 1919 -91 
Q 1588 -91 1214 -16 
Q 841 59 441 206 
L 441 856 
Q 825 641 1194 531 
Q 1563 422 1919 422 
Q 2459 422 2753 634 
Q 3047 847 3047 1241 
Q 3047 1584 2836 1778 
Q 2625 1972 2144 2069 
L 1759 2144 
Q 1053 2284 737 2584 
Q 422 2884 422 3419 
Q 422 4038 858 4394 
Q 1294 4750 2059 4750 
Q 2388 4750 2728 4690 
Q 3069 4631 3425 4513 
z
" transform="scale(0.015625)"/>
      <path id="DejaVuSans-70" d="M 1159 525 
L 1159 -1331 
L 581 -1331 
L 581 3500 
L 1159 3500 
L 1159 2969 
Q 1341 3281 1617 3432 
Q 1894 3584 2278 3584 
Q 2916 3584 3314 3078 
Q 3713 2572 3713 1747 
Q 3713 922 3314 415 
Q 2916 -91 2278 -91 
Q 1894 -91 1617 61 
Q 1341 213 1159 525 
z
M 3116 1747 
Q 3116 2381 2855 2742 
Q 2594 3103 2138 3103 
Q 1681 3103 1420 2742 
Q 1159 2381 1159 1747 
Q 1159 1113 1420 752 
Q 1681 391 2138 391 
Q 2594 391 2855 752 
Q 3116 1113 3116 1747 
z
" transform="scale(0.015625)"/>
     </defs>
     <use xlink:href="#DejaVuSans-49"/>
     <use xlink:href="#DejaVuSans-6e" x="29.492188"/>
     <use xlink:href="#DejaVuSans-74" x="92.871094"/>
     <use xlink:href="#DejaVuSans-65" x="132.080078"/>
     <use xlink:href="#DejaVuSans-72" x="193.603516"/>
     <use xlink:href="#DejaVuSans-76" x="234.716797"/>
     <use xlink:href="#DejaVuSans-65" x="293.896484"/>
     <use xlink:href="#DejaVuSans-6e" x="355.419922"/>
     <use xlink:href="#DejaVuSans-e7" x="418.798828"/>
     <use xlink:href="#DejaVuSans-f5" x="473.779297"/>
     <use xlink:href="#DejaVuSans-65" x="534.960938"/>
     <use xlink:href="#DejaVuSans-73" x="596.484375"/>
     <use xlink:href="#DejaVuSans-20" x="648.583984"/>
     <use xlink:href="#DejaVuSans-c0" x="680.371094"/>
     <use xlink:href="#DejaVuSans-20" x="748.779297"/>
     <use xlink:href="#DejaVuSans-53" x="780.566406"/>
     <use xlink:href="#DejaVuSans-75" x="844.042969"/>
     <use xlink:href="#DejaVuSans-70" x="907.421875"/>
     <use xlink:href="#DejaVuSans-65" x="970.898438"/>
     <use xlink:href="#DejaVuSans-72" x="1032.421875"/>
     <use xlink:href="#DejaVuSans-66" x="1073.535156"/>
     <use xlink:href="#DejaVuSans-69" x="1108.740234"/>
     <use xlink:href="#DejaVuSans-63" x="1136.523438"/>
     <use xlink:href="#DejaVuSans-69" x="1191.503906"/>
     <use xlink:href="#DejaVuSans-65" x="1219.287109"/>
    </g>
   </g>
   <g id="text_18">
    <!-- 2.4% -->
    <g transform="translate(377.353956 152.817634) scale(0.1 -0.1)">
     <use xlink:href="#DejaVuSans-32"/>
     <use xlink:href="#DejaVuSans-2e" x="63.623047"/>
     <use xlink:href="#DejaVuSans-34" x="95.410156"/>
     <use xlink:href="#DejaVuSans-25" x="159.033203"/>
    </g>
   </g>
   <g id="text_19">
    <!-- Corpos Estranhos Na Rede -->
    <g transform="translate(180.370772 77.805081) scale(0.12 -0.12)">
     <defs>
      <path id="DejaVuSans-43" d="M 4122 4306 
L 4122 3641 
Q 3803 3938 3442 4084 
Q 3081 4231 2675 4231 
Q 1875 4231 1450 3742 
Q 1025 3253 1025 2328 
Q 1025 1406 1450 917 
Q 1875 428 2675 428 
Q 3081 428 3442 575 
Q 3803 722 4122 1019 
L 4122 359 
Q 3791 134 3420 21 
Q 3050 -91 2638 -91 
Q 1578 -91 968 557 
Q 359 1206 359 2328 
Q 359 3453 968 4101 
Q 1578 4750 2638 4750 
Q 3056 4750 3426 4639 
Q 3797 4528 4122 4306 
z
" transform="scale(0.015625)"/>
      <path id="DejaVuSans-68" d="M 3513 2113 
L 3513 0 
L 2938 0 
L 2938 2094 
Q 2938 2591 2744 2837 
Q 2550 3084 2163 3084 
Q 1697 3084 1428 2787 
Q 1159 2491 1159 1978 
L 1159 0 
L 581 0 
L 581 4863 
L 1159 4863 
L 1159 2956 
Q 1366 3272 1645 3428 
Q 1925 3584 2291 3584 
Q 2894 3584 3203 3211 
Q 3513 2838 3513 2113 
z
" transform="scale(0.015625)"/>
      <path id="DejaVuSans-4e" d="M 628 4666 
L 1478 4666 
L 3547 763 
L 3547 4666 
L 4159 4666 
L 4159 0 
L 3309 0 
L 1241 3903 
L 1241 0 
L 628 0 
L 628 4666 
z
" transform="scale(0.015625)"/>
      <path id="DejaVuSans-52" d="M 2841 2188 
Q 3044 2119 3236 1894 
Q 3428 1669 3622 1275 
L 4263 0 
L 3584 0 
L 2988 1197 
Q 2756 1666 2539 1819 
Q 2322 1972 1947 1972 
L 1259 1972 
L 1259 0 
L 628 0 
L 628 4666 
L 2053 4666 
Q 2853 4666 3247 4331 
Q 3641 3997 3641 3322 
Q 3641 2881 3436 2590 
Q 3231 2300 2841 2188 
z
M 1259 4147 
L 1259 2491 
L 2053 2491 
Q 2509 2491 2742 2702 
Q 2975 2913 2975 3322 
Q 2975 3731 2742 3939 
Q 2509 4147 2053 4147 
L 1259 4147 
z
" transform="scale(0.015625)"/>
     </defs>
     <use xlink:href="#DejaVuSans-43"/>
     <use xlink:href="#DejaVuSans-6f" x="69.824219"/>
     <use xlink:href="#DejaVuSans-72" x="131.005859"/>
     <use xlink:href="#DejaVuSans-70" x="172.119141"/>
     <use xlink:href="#DejaVuSans-6f" x="235.595703"/>
     <use xlink:href="#DejaVuSans-73" x="296.777344"/>
     <use xlink:href="#DejaVuSans-20" x="348.876953"/>
     <use xlink:href="#DejaVuSans-45" x="380.664062"/>
     <use xlink:href="#DejaVuSans-73" x="443.847656"/>
     <use xlink:href="#DejaVuSans-74" x="495.947266"/>
     <use xlink:href="#DejaVuSans-72" x="535.15625"/>
     <use xlink:href="#DejaVuSans-61" x="576.269531"/>
     <use xlink:href="#DejaVuSans-6e" x="637.548828"/>
     <use xlink:href="#DejaVuSans-68" x="700.927734"/>
     <use xlink:href="#DejaVuSans-6f" x="764.306641"/>
     <use xlink:href="#DejaVuSans-73" x="825.488281"/>
     <use xlink:href="#DejaVuSans-20" x="877.587891"/>
     <use xlink:href="#DejaVuSans-4e" x="909.375"/>
     <use xlink:href="#DejaVuSans-61" x="984.179688"/>
     <use xlink:href="#DejaVuSans-20" x="1045.458984"/>
     <use xlink:href="#DejaVuSans-52" x="1077.246094"/>
     <use xlink:href="#DejaVuSans-65" x="1142.228516"/>
     <use xlink:href="#DejaVuSans-64" x="1203.751953"/>
     <use xlink:href="#DejaVuSans-65" x="1267.228516"/>
    </g>
   </g>
   <g id="text_20">
    <!-- 1.8% -->
    <g transform="translate(364.171326 157.848624) scale(0.1 -0.1)">
     <use xlink:href="#DejaVuSans-31"/>
     <use xlink:href="#DejaVuSans-2e" x="63.623047"/>
     <use xlink:href="#DejaVuSans-38" x="95.410156"/>
     <use xlink:href="#DejaVuSans-25" x="159.033203"/>
    </g>
   </g>
   <g id="text_21">
    <!-- Animais Não Aves -->
    <g transform="translate(215.314344 86.767854) scale(0.12 -0.12)">
     <defs>
      <path id="DejaVuSans-e3" d="M 2194 1759 
Q 1497 1759 1228 1600 
Q 959 1441 959 1056 
Q 959 750 1161 570 
Q 1363 391 1709 391 
Q 2188 391 2477 730 
Q 2766 1069 2766 1631 
L 2766 1759 
L 2194 1759 
z
M 3341 1997 
L 3341 0 
L 2766 0 
L 2766 531 
Q 2569 213 2275 61 
Q 1981 -91 1556 -91 
Q 1019 -91 701 211 
Q 384 513 384 1019 
Q 384 1609 779 1909 
Q 1175 2209 1959 2209 
L 2766 2209 
L 2766 2266 
Q 2766 2663 2505 2880 
Q 2244 3097 1772 3097 
Q 1472 3097 1187 3025 
Q 903 2953 641 2809 
L 641 3341 
Q 956 3463 1253 3523 
Q 1550 3584 1831 3584 
Q 2591 3584 2966 3190 
Q 3341 2797 3341 1997 
z
M 1844 4281 
L 1666 4453 
Q 1597 4516 1545 4545 
Q 1494 4575 1453 4575 
Q 1334 4575 1278 4461 
Q 1222 4347 1216 4091 
L 825 4091 
Q 831 4513 990 4742 
Q 1150 4972 1434 4972 
Q 1553 4972 1653 4928 
Q 1753 4884 1869 4781 
L 2047 4609 
Q 2116 4547 2167 4517 
Q 2219 4488 2259 4488 
Q 2378 4488 2434 4602 
Q 2491 4716 2497 4972 
L 2888 4972 
Q 2881 4550 2722 4320 
Q 2563 4091 2278 4091 
Q 2159 4091 2059 4134 
Q 1959 4178 1844 4281 
z
" transform="scale(0.015625)"/>
     </defs>
     <use xlink:href="#DejaVuSans-41"/>
     <use xlink:href="#DejaVuSans-6e" x="68.408203"/>
     <use xlink:href="#DejaVuSans-69" x="131.787109"/>
     <use xlink:href="#DejaVuSans-6d" x="159.570312"/>
     <use xlink:href="#DejaVuSans-61" x="256.982422"/>
     <use xlink:href="#DejaVuSans-69" x="318.261719"/>
     <use xlink:href="#DejaVuSans-73" x="346.044922"/>
     <use xlink:href="#DejaVuSans-20" x="398.144531"/>
     <use xlink:href="#DejaVuSans-4e" x="429.931641"/>
     <use xlink:href="#DejaVuSans-e3" x="504.736328"/>
     <use xlink:href="#DejaVuSans-6f" x="566.015625"/>
     <use xlink:href="#DejaVuSans-20" x="627.197266"/>
     <use xlink:href="#DejaVuSans-41" x="658.984375"/>
     <use xlink:href="#DejaVuSans-76" x="721.517578"/>
     <use xlink:href="#DejaVuSans-65" x="780.697266"/>
     <use xlink:href="#DejaVuSans-73" x="842.220703"/>
    </g>
   </g>
   <g id="text_22">
    <!-- 1.4% -->
    <g transform="translate(354.794524 162.737409) scale(0.1 -0.1)">
     <use xlink:href="#DejaVuSans-31"/>
     <use xlink:href="#DejaVuSans-2e" x="63.623047"/>
     <use xlink:href="#DejaVuSans-34" x="95.410156"/>
     <use xlink:href="#DejaVuSans-25" x="159.033203"/>
    </g>
   </g>
   <g id="text_23">
    <!-- Trabalhos De Terceiros ( Gruas,... ) -->
    <g transform="translate(104.086956 94.772891) scale(0.12 -0.12)">
     <defs>
      <path id="DejaVuSans-54" d="M -19 4666 
L 3928 4666 
L 3928 4134 
L 2272 4134 
L 2272 0 
L 1638 0 
L 1638 4134 
L -19 4134 
L -19 4666 
z
" transform="scale(0.015625)"/>
      <path id="DejaVuSans-28" d="M 1984 4856 
Q 1566 4138 1362 3434 
Q 1159 2731 1159 2009 
Q 1159 1288 1364 580 
Q 1569 -128 1984 -844 
L 1484 -844 
Q 1016 -109 783 600 
Q 550 1309 550 2009 
Q 550 2706 781 3412 
Q 1013 4119 1484 4856 
L 1984 4856 
z
" transform="scale(0.015625)"/>
      <path id="DejaVuSans-47" d="M 3809 666 
L 3809 1919 
L 2778 1919 
L 2778 2438 
L 4434 2438 
L 4434 434 
Q 4069 175 3628 42 
Q 3188 -91 2688 -91 
Q 1594 -91 976 548 
Q 359 1188 359 2328 
Q 359 3472 976 4111 
Q 1594 4750 2688 4750 
Q 3144 4750 3555 4637 
Q 3966 4525 4313 4306 
L 4313 3634 
Q 3963 3931 3569 4081 
Q 3175 4231 2741 4231 
Q 1884 4231 1454 3753 
Q 1025 3275 1025 2328 
Q 1025 1384 1454 906 
Q 1884 428 2741 428 
Q 3075 428 3337 486 
Q 3600 544 3809 666 
z
" transform="scale(0.015625)"/>
      <path id="DejaVuSans-2c" d="M 750 794 
L 1409 794 
L 1409 256 
L 897 -744 
L 494 -744 
L 750 256 
L 750 794 
z
" transform="scale(0.015625)"/>
      <path id="DejaVuSans-29" d="M 513 4856 
L 1013 4856 
Q 1481 4119 1714 3412 
Q 1947 2706 1947 2009 
Q 1947 1309 1714 600 
Q 1481 -109 1013 -844 
L 513 -844 
Q 928 -128 1133 580 
Q 1338 1288 1338 2009 
Q 1338 2731 1133 3434 
Q 928 4138 513 4856 
z
" transform="scale(0.015625)"/>
     </defs>
     <use xlink:href="#DejaVuSans-54"/>
     <use xlink:href="#DejaVuSans-72" x="46.333984"/>
     <use xlink:href="#DejaVuSans-61" x="87.447266"/>
     <use xlink:href="#DejaVuSans-62" x="148.726562"/>
     <use xlink:href="#DejaVuSans-61" x="212.203125"/>
     <use xlink:href="#DejaVuSans-6c" x="273.482422"/>
     <use xlink:href="#DejaVuSans-68" x="301.265625"/>
     <use xlink:href="#DejaVuSans-6f" x="364.644531"/>
     <use xlink:href="#DejaVuSans-73" x="425.826172"/>
     <use xlink:href="#DejaVuSans-20" x="477.925781"/>
     <use xlink:href="#DejaVuSans-44" x="509.712891"/>
     <use xlink:href="#DejaVuSans-65" x="586.714844"/>
     <use xlink:href="#DejaVuSans-20" x="648.238281"/>
     <use xlink:href="#DejaVuSans-54" x="680.025391"/>
     <use xlink:href="#DejaVuSans-65" x="724.109375"/>
     <use xlink:href="#DejaVuSans-72" x="785.632812"/>
     <use xlink:href="#DejaVuSans-63" x="824.496094"/>
     <use xlink:href="#DejaVuSans-65" x="879.476562"/>
     <use xlink:href="#DejaVuSans-69" x="941"/>
     <use xlink:href="#DejaVuSans-72" x="968.783203"/>
     <use xlink:href="#DejaVuSans-6f" x="1007.646484"/>
     <use xlink:href="#DejaVuSans-73" x="1068.828125"/>
     <use xlink:href="#DejaVuSans-20" x="1120.927734"/>
     <use xlink:href="#DejaVuSans-28" x="1152.714844"/>
     <use xlink:href="#DejaVuSans-20" x="1191.728516"/>
     <use xlink:href="#DejaVuSans-47" x="1223.515625"/>
     <use xlink:href="#DejaVuSans-72" x="1301.005859"/>
     <use xlink:href="#DejaVuSans-75" x="1342.119141"/>
     <use xlink:href="#DejaVuSans-61" x="1405.498047"/>
     <use xlink:href="#DejaVuSans-73" x="1466.777344"/>
     <use xlink:href="#DejaVuSans-2c" x="1518.876953"/>
     <use xlink:href="#DejaVuSans-2e" x="1550.664062"/>
     <use xlink:href="#DejaVuSans-2e" x="1582.451172"/>
     <use xlink:href="#DejaVuSans-2e" x="1614.238281"/>
     <use xlink:href="#DejaVuSans-20" x="1646.025391"/>
     <use xlink:href="#DejaVuSans-29" x="1677.8125"/>
    </g>
   </g>
   <g id="text_24">
    <!-- 1.1% -->
    <g transform="translate(347.958335 167.103793) scale(0.1 -0.1)">
     <use xlink:href="#DejaVuSans-31"/>
     <use xlink:href="#DejaVuSans-2e" x="63.623047"/>
     <use xlink:href="#DejaVuSans-31" x="95.410156"/>
     <use xlink:href="#DejaVuSans-25" x="159.033203"/>
    </g>
   </g>
   <g id="text_25">
    <!-- Risco Iminente Pessoas Ou Bens -->
    <g transform="translate(105.419381 102.318933) scale(0.12 -0.12)">
     <defs>
      <path id="DejaVuSans-50" d="M 1259 4147 
L 1259 2394 
L 2053 2394 
Q 2494 2394 2734 2622 
Q 2975 2850 2975 3272 
Q 2975 3691 2734 3919 
Q 2494 4147 2053 4147 
L 1259 4147 
z
M 628 4666 
L 2053 4666 
Q 2838 4666 3239 4311 
Q 3641 3956 3641 3272 
Q 3641 2581 3239 2228 
Q 2838 1875 2053 1875 
L 1259 1875 
L 1259 0 
L 628 0 
L 628 4666 
z
" transform="scale(0.015625)"/>
      <path id="DejaVuSans-4f" d="M 2522 4238 
Q 1834 4238 1429 3725 
Q 1025 3213 1025 2328 
Q 1025 1447 1429 934 
Q 1834 422 2522 422 
Q 3209 422 3611 934 
Q 4013 1447 4013 2328 
Q 4013 3213 3611 3725 
Q 3209 4238 2522 4238 
z
M 2522 4750 
Q 3503 4750 4090 4092 
Q 4678 3434 4678 2328 
Q 4678 1225 4090 567 
Q 3503 -91 2522 -91 
Q 1538 -91 948 565 
Q 359 1222 359 2328 
Q 359 3434 948 4092 
Q 1538 4750 2522 4750 
z
" transform="scale(0.015625)"/>
      <path id="DejaVuSans-42" d="M 1259 2228 
L 1259 519 
L 2272 519 
Q 2781 519 3026 730 
Q 3272 941 3272 1375 
Q 3272 1813 3026 2020 
Q 2781 2228 2272 2228 
L 1259 2228 
z
M 1259 4147 
L 1259 2741 
L 2194 2741 
Q 2656 2741 2882 2914 
Q 3109 3088 3109 3444 
Q 3109 3797 2882 3972 
Q 2656 4147 2194 4147 
L 1259 4147 
z
M 628 4666 
L 2241 4666 
Q 2963 4666 3353 4366 
Q 3744 4066 3744 3513 
Q 3744 3084 3544 2831 
Q 3344 2578 2956 2516 
Q 3422 2416 3680 2098 
Q 3938 1781 3938 1306 
Q 3938 681 3513 340 
Q 3088 0 2303 0 
L 628 0 
L 628 4666 
z
" transform="scale(0.015625)"/>
     </defs>
     <use xlink:href="#DejaVuSans-52"/>
     <use xlink:href="#DejaVuSans-69" x="69.482422"/>
     <use xlink:href="#DejaVuSans-73" x="97.265625"/>
     <use xlink:href="#DejaVuSans-63" x="149.365234"/>
     <use xlink:href="#DejaVuSans-6f" x="204.345703"/>
     <use xlink:href="#DejaVuSans-20" x="265.527344"/>
     <use xlink:href="#DejaVuSans-49" x="297.314453"/>
     <use xlink:href="#DejaVuSans-6d" x="326.806641"/>
     <use xlink:href="#DejaVuSans-69" x="424.21875"/>
     <use xlink:href="#DejaVuSans-6e" x="452.001953"/>
     <use xlink:href="#DejaVuSans-65" x="515.380859"/>
     <use xlink:href="#DejaVuSans-6e" x="576.904297"/>
     <use xlink:href="#DejaVuSans-74" x="640.283203"/>
     <use xlink:href="#DejaVuSans-65" x="679.492188"/>
     <use xlink:href="#DejaVuSans-20" x="741.015625"/>
     <use xlink:href="#DejaVuSans-50" x="772.802734"/>
     <use xlink:href="#DejaVuSans-65" x="829.480469"/>
     <use xlink:href="#DejaVuSans-73" x="891.003906"/>
     <use xlink:href="#DejaVuSans-73" x="943.103516"/>
     <use xlink:href="#DejaVuSans-6f" x="995.203125"/>
     <use xlink:href="#DejaVuSans-61" x="1056.384766"/>
     <use xlink:href="#DejaVuSans-73" x="1117.664062"/>
     <use xlink:href="#DejaVuSans-20" x="1169.763672"/>
     <use xlink:href="#DejaVuSans-4f" x="1201.550781"/>
     <use xlink:href="#DejaVuSans-75" x="1280.261719"/>
     <use xlink:href="#DejaVuSans-20" x="1343.640625"/>
     <use xlink:href="#DejaVuSans-42" x="1375.427734"/>
     <use xlink:href="#DejaVuSans-65" x="1444.03125"/>
     <use xlink:href="#DejaVuSans-6e" x="1505.554688"/>
     <use xlink:href="#DejaVuSans-73" x="1568.933594"/>
    </g>
   </g>
   <g id="text_26">
    <!-- 1.0% -->
    <g transform="translate(342.41784 171.219815) scale(0.1 -0.1)">
     <use xlink:href="#DejaVuSans-31"/>
     <use xlink:href="#DejaVuSans-2e" x="63.623047"/>
     <use xlink:href="#DejaVuSans-30" x="95.410156"/>
     <use xlink:href="#DejaVuSans-25" x="159.033203"/>
    </g>
   </g>
   <g id="text_27">
    <!-- Vento Intensidade Excepcional -->
    <g transform="translate(106.740306 110.121738) scale(0.12 -0.12)">
     <defs>
      <path id="DejaVuSans-78" d="M 3513 3500 
L 2247 1797 
L 3578 0 
L 2900 0 
L 1881 1375 
L 863 0 
L 184 0 
L 1544 1831 
L 300 3500 
L 978 3500 
L 1906 2253 
L 2834 3500 
L 3513 3500 
z
" transform="scale(0.015625)"/>
     </defs>
     <use xlink:href="#DejaVuSans-56"/>
     <use xlink:href="#DejaVuSans-65" x="60.658203"/>
     <use xlink:href="#DejaVuSans-6e" x="122.181641"/>
     <use xlink:href="#DejaVuSans-74" x="185.560547"/>
     <use xlink:href="#DejaVuSans-6f" x="224.769531"/>
     <use xlink:href="#DejaVuSans-20" x="285.951172"/>
     <use xlink:href="#DejaVuSans-49" x="317.738281"/>
     <use xlink:href="#DejaVuSans-6e" x="347.230469"/>
     <use xlink:href="#DejaVuSans-74" x="410.609375"/>
     <use xlink:href="#DejaVuSans-65" x="449.818359"/>
     <use xlink:href="#DejaVuSans-6e" x="511.341797"/>
     <use xlink:href="#DejaVuSans-73" x="574.720703"/>
     <use xlink:href="#DejaVuSans-69" x="626.820312"/>
     <use xlink:href="#DejaVuSans-64" x="654.603516"/>
     <use xlink:href="#DejaVuSans-61" x="718.080078"/>
     <use xlink:href="#DejaVuSans-64" x="779.359375"/>
     <use xlink:href="#DejaVuSans-65" x="842.835938"/>
     <use xlink:href="#DejaVuSans-20" x="904.359375"/>
     <use xlink:href="#DejaVuSans-45" x="936.146484"/>
     <use xlink:href="#DejaVuSans-78" x="999.330078"/>
     <use xlink:href="#DejaVuSans-63" x="1056.759766"/>
     <use xlink:href="#DejaVuSans-65" x="1111.740234"/>
     <use xlink:href="#DejaVuSans-70" x="1173.263672"/>
     <use xlink:href="#DejaVuSans-63" x="1236.740234"/>
     <use xlink:href="#DejaVuSans-69" x="1291.720703"/>
     <use xlink:href="#DejaVuSans-6f" x="1319.503906"/>
     <use xlink:href="#DejaVuSans-6e" x="1380.685547"/>
     <use xlink:href="#DejaVuSans-61" x="1444.064453"/>
     <use xlink:href="#DejaVuSans-6c" x="1505.34375"/>
    </g>
   </g>
   <g id="text_28">
    <!-- 1.0% -->
    <g transform="translate(337.388572 175.475891) scale(0.1 -0.1)">
     <use xlink:href="#DejaVuSans-31"/>
     <use xlink:href="#DejaVuSans-2e" x="63.623047"/>
     <use xlink:href="#DejaVuSans-30" x="95.410156"/>
     <use xlink:href="#DejaVuSans-25" x="159.033203"/>
    </g>
   </g>
   <g id="text_29">
    <!-- Inundações Imprevisíveis -->
    <g transform="translate(131.802868 117.202638) scale(0.12 -0.12)">
     <use xlink:href="#DejaVuSans-49"/>
     <use xlink:href="#DejaVuSans-6e" x="29.492188"/>
     <use xlink:href="#DejaVuSans-75" x="92.871094"/>
     <use xlink:href="#DejaVuSans-6e" x="156.25"/>
     <use xlink:href="#DejaVuSans-64" x="219.628906"/>
     <use xlink:href="#DejaVuSans-61" x="283.105469"/>
     <use xlink:href="#DejaVuSans-e7" x="344.384766"/>
     <use xlink:href="#DejaVuSans-f5" x="399.365234"/>
     <use xlink:href="#DejaVuSans-65" x="460.546875"/>
     <use xlink:href="#DejaVuSans-73" x="522.070312"/>
     <use xlink:href="#DejaVuSans-20" x="574.169922"/>
     <use xlink:href="#DejaVuSans-49" x="605.957031"/>
     <use xlink:href="#DejaVuSans-6d" x="635.449219"/>
     <use xlink:href="#DejaVuSans-70" x="732.861328"/>
     <use xlink:href="#DejaVuSans-72" x="796.337891"/>
     <use xlink:href="#DejaVuSans-65" x="835.201172"/>
     <use xlink:href="#DejaVuSans-76" x="896.724609"/>
     <use xlink:href="#DejaVuSans-69" x="955.904297"/>
     <use xlink:href="#DejaVuSans-73" x="983.6875"/>
     <use xlink:href="#DejaVuSans-ed" x="1035.787109"/>
     <use xlink:href="#DejaVuSans-76" x="1063.570312"/>
     <use xlink:href="#DejaVuSans-65" x="1122.75"/>
     <use xlink:href="#DejaVuSans-69" x="1184.273438"/>
     <use xlink:href="#DejaVuSans-73" x="1212.056641"/>
    </g>
   </g>
   <g id="text_30">
    <!-- 0.6% -->
    <g transform="translate(333.45281 179.207291) scale(0.1 -0.1)">
     <use xlink:href="#DejaVuSans-30"/>
     <use xlink:href="#DejaVuSans-2e" x="63.623047"/>
     <use xlink:href="#DejaVuSans-36" x="95.410156"/>
     <use xlink:href="#DejaVuSans-25" x="159.033203"/>
    </g>
   </g>
   <g id="text_31">
    <!-- Neve/Gelo/Granizo Condição Excecional -->
    <g transform="translate(39.419419 121.515078) scale(0.12 -0.12)">
     <defs>
      <path id="DejaVuSans-7a" d="M 353 3500 
L 3084 3500 
L 3084 2975 
L 922 459 
L 3084 459 
L 3084 0 
L 275 0 
L 275 525 
L 2438 3041 
L 353 3041 
L 353 3500 
z
" transform="scale(0.015625)"/>
     </defs>
     <use xlink:href="#DejaVuSans-4e"/>
     <use xlink:href="#DejaVuSans-65" x="74.804688"/>
     <use xlink:href="#DejaVuSans-76" x="136.328125"/>
     <use xlink:href="#DejaVuSans-65" x="195.507812"/>
     <use xlink:href="#DejaVuSans-2f" x="257.03125"/>
     <use xlink:href="#DejaVuSans-47" x="290.722656"/>
     <use xlink:href="#DejaVuSans-65" x="368.212891"/>
     <use xlink:href="#DejaVuSans-6c" x="429.736328"/>
     <use xlink:href="#DejaVuSans-6f" x="457.519531"/>
     <use xlink:href="#DejaVuSans-2f" x="518.701172"/>
     <use xlink:href="#DejaVuSans-47" x="552.392578"/>
     <use xlink:href="#DejaVuSans-72" x="629.882812"/>
     <use xlink:href="#DejaVuSans-61" x="670.996094"/>
     <use xlink:href="#DejaVuSans-6e" x="732.275391"/>
     <use xlink:href="#DejaVuSans-69" x="795.654297"/>
     <use xlink:href="#DejaVuSans-7a" x="823.4375"/>
     <use xlink:href="#DejaVuSans-6f" x="875.927734"/>
     <use xlink:href="#DejaVuSans-20" x="937.109375"/>
     <use xlink:href="#DejaVuSans-43" x="968.896484"/>
     <use xlink:href="#DejaVuSans-6f" x="1038.720703"/>
     <use xlink:href="#DejaVuSans-6e" x="1099.902344"/>
     <use xlink:href="#DejaVuSans-64" x="1163.28125"/>
     <use xlink:href="#DejaVuSans-69" x="1226.757812"/>
     <use xlink:href="#DejaVuSans-e7" x="1254.541016"/>
     <use xlink:href="#DejaVuSans-e3" x="1309.521484"/>
     <use xlink:href="#DejaVuSans-6f" x="1370.800781"/>
     <use xlink:href="#DejaVuSans-20" x="1431.982422"/>
     <use xlink:href="#DejaVuSans-45" x="1463.769531"/>
     <use xlink:href="#DejaVuSans-78" x="1526.953125"/>
     <use xlink:href="#DejaVuSans-63" x="1584.382812"/>
     <use xlink:href="#DejaVuSans-65" x="1639.363281"/>
     <use xlink:href="#DejaVuSans-63" x="1700.886719"/>
     <use xlink:href="#DejaVuSans-69" x="1755.867188"/>
     <use xlink:href="#DejaVuSans-6f" x="1783.650391"/>
     <use xlink:href="#DejaVuSans-6e" x="1844.832031"/>
     <use xlink:href="#DejaVuSans-61" x="1908.210938"/>
     <use xlink:href="#DejaVuSans-6c" x="1969.490234"/>
    </g>
   </g>
   <g id="text_32">
    <!-- 0.4% -->
    <g transform="translate(331.049224 181.684304) scale(0.1 -0.1)">
     <use xlink:href="#DejaVuSans-30"/>
     <use xlink:href="#DejaVuSans-2e" x="63.623047"/>
     <use xlink:href="#DejaVuSans-34" x="95.410156"/>
     <use xlink:href="#DejaVuSans-25" x="159.033203"/>
    </g>
   </g>
   <g id="text_33">
    <!-- Deslizamento De Terras -->
    <g transform="translate(134.157826 124.589266) scale(0.12 -0.12)">
     <use xlink:href="#DejaVuSans-44"/>
     <use xlink:href="#DejaVuSans-65" x="77.001953"/>
     <use xlink:href="#DejaVuSans-73" x="138.525391"/>
     <use xlink:href="#DejaVuSans-6c" x="190.625"/>
     <use xlink:href="#DejaVuSans-69" x="218.408203"/>
     <use xlink:href="#DejaVuSans-7a" x="246.191406"/>
     <use xlink:href="#DejaVuSans-61" x="298.681641"/>
     <use xlink:href="#DejaVuSans-6d" x="359.960938"/>
     <use xlink:href="#DejaVuSans-65" x="457.373047"/>
     <use xlink:href="#DejaVuSans-6e" x="518.896484"/>
     <use xlink:href="#DejaVuSans-74" x="582.275391"/>
     <use xlink:href="#DejaVuSans-6f" x="621.484375"/>
     <use xlink:href="#DejaVuSans-20" x="682.666016"/>
     <use xlink:href="#DejaVuSans-44" x="714.453125"/>
     <use xlink:href="#DejaVuSans-65" x="791.455078"/>
     <use xlink:href="#DejaVuSans-20" x="852.978516"/>
     <use xlink:href="#DejaVuSans-54" x="884.765625"/>
     <use xlink:href="#DejaVuSans-65" x="928.849609"/>
     <use xlink:href="#DejaVuSans-72" x="990.373047"/>
     <use xlink:href="#DejaVuSans-72" x="1029.736328"/>
     <use xlink:href="#DejaVuSans-61" x="1070.849609"/>
     <use xlink:href="#DejaVuSans-73" x="1132.128906"/>
    </g>
   </g>
   <g id="text_34">
    <!-- 0.3% -->
    <g transform="translate(329.501992 183.36727) scale(0.1 -0.1)">
     <use xlink:href="#DejaVuSans-30"/>
     <use xlink:href="#DejaVuSans-2e" x="63.623047"/>
     <use xlink:href="#DejaVuSans-33" x="95.410156"/>
     <use xlink:href="#DejaVuSans-25" x="159.033203"/>
    </g>
   </g>
   <g id="text_35">
    <!-- Desabamento De Muros/Outras Construções -->
    <g transform="translate(7.2 127.000669) scale(0.12 -0.12)">
     <use xlink:href="#DejaVuSans-44"/>
     <use xlink:href="#DejaVuSans-65" x="77.001953"/>
     <use xlink:href="#DejaVuSans-73" x="138.525391"/>
     <use xlink:href="#DejaVuSans-61" x="190.625"/>
     <use xlink:href="#DejaVuSans-62" x="251.904297"/>
     <use xlink:href="#DejaVuSans-61" x="315.380859"/>
     <use xlink:href="#DejaVuSans-6d" x="376.660156"/>
     <use xlink:href="#DejaVuSans-65" x="474.072266"/>
     <use xlink:href="#DejaVuSans-6e" x="535.595703"/>
     <use xlink:href="#DejaVuSans-74" x="598.974609"/>
     <use xlink:href="#DejaVuSans-6f" x="638.183594"/>
     <use xlink:href="#DejaVuSans-20" x="699.365234"/>
     <use xlink:href="#DejaVuSans-44" x="731.152344"/>
     <use xlink:href="#DejaVuSans-65" x="808.154297"/>
     <use xlink:href="#DejaVuSans-20" x="869.677734"/>
     <use xlink:href="#DejaVuSans-4d" x="901.464844"/>
     <use xlink:href="#DejaVuSans-75" x="987.744141"/>
     <use xlink:href="#DejaVuSans-72" x="1051.123047"/>
     <use xlink:href="#DejaVuSans-6f" x="1089.986328"/>
     <use xlink:href="#DejaVuSans-73" x="1151.167969"/>
     <use xlink:href="#DejaVuSans-2f" x="1203.267578"/>
     <use xlink:href="#DejaVuSans-4f" x="1236.958984"/>
     <use xlink:href="#DejaVuSans-75" x="1315.669922"/>
     <use xlink:href="#DejaVuSans-74" x="1379.048828"/>
     <use xlink:href="#DejaVuSans-72" x="1418.257812"/>
     <use xlink:href="#DejaVuSans-61" x="1459.371094"/>
     <use xlink:href="#DejaVuSans-73" x="1520.650391"/>
     <use xlink:href="#DejaVuSans-20" x="1572.75"/>
     <use xlink:href="#DejaVuSans-43" x="1604.537109"/>
     <use xlink:href="#DejaVuSans-6f" x="1674.361328"/>
     <use xlink:href="#DejaVuSans-6e" x="1735.542969"/>
     <use xlink:href="#DejaVuSans-73" x="1798.921875"/>
     <use xlink:href="#DejaVuSans-74" x="1851.021484"/>
     <use xlink:href="#DejaVuSans-72" x="1890.230469"/>
     <use xlink:href="#DejaVuSans-75" x="1931.34375"/>
     <use xlink:href="#DejaVuSans-e7" x="1994.722656"/>
     <use xlink:href="#DejaVuSans-f5" x="2049.703125"/>
     <use xlink:href="#DejaVuSans-65" x="2110.884766"/>
     <use xlink:href="#DejaVuSans-73" x="2172.408203"/>
    </g>
   </g>
   <g id="text_36">
    <!-- 0.2% -->
    <g transform="translate(328.343405 184.676444) scale(0.1 -0.1)">
     <use xlink:href="#DejaVuSans-30"/>
     <use xlink:href="#DejaVuSans-2e" x="63.623047"/>
     <use xlink:href="#DejaVuSans-32" x="95.410156"/>
     <use xlink:href="#DejaVuSans-25" x="159.033203"/>
    </g>
   </g>
   <g id="text_37">
    <!-- Sabotagem -->
    <g transform="translate(203.95635 128.733956) scale(0.12 -0.12)">
     <use xlink:href="#DejaVuSans-53"/>
     <use xlink:href="#DejaVuSans-61" x="63.476562"/>
     <use xlink:href="#DejaVuSans-62" x="124.755859"/>
     <use xlink:href="#DejaVuSans-6f" x="188.232422"/>
     <use xlink:href="#DejaVuSans-74" x="249.414062"/>
     <use xlink:href="#DejaVuSans-61" x="288.623047"/>
     <use xlink:href="#DejaVuSans-67" x="349.902344"/>
     <use xlink:href="#DejaVuSans-65" x="413.378906"/>
     <use xlink:href="#DejaVuSans-6d" x="474.902344"/>
    </g>
   </g>
   <g id="text_38">
    <!-- 0.1% -->
    <g transform="translate(327.524937 185.62801) scale(0.1 -0.1)">
     <use xlink:href="#DejaVuSans-30"/>
     <use xlink:href="#DejaVuSans-2e" x="63.623047"/>
     <use xlink:href="#DejaVuSans-31" x="95.410156"/>
     <use xlink:href="#DejaVuSans-25" x="159.033203"/>
    </g>
   </g>
   <g id="text_39">
    <!-- Terramoto -->
    <g transform="translate(211.239585 129.487009) scale(0.12 -0.12)">
     <use xlink:href="#DejaVuSans-54"/>
     <use xlink:href="#DejaVuSans-65" x="44.083984"/>
     <use xlink:href="#DejaVuSans-72" x="105.607422"/>
     <use xlink:href="#DejaVuSans-72" x="144.970703"/>
     <use xlink:href="#DejaVuSans-61" x="186.083984"/>
     <use xlink:href="#DejaVuSans-6d" x="247.363281"/>
     <use xlink:href="#DejaVuSans-6f" x="344.775391"/>
     <use xlink:href="#DejaVuSans-74" x="405.957031"/>
     <use xlink:href="#DejaVuSans-6f" x="445.166016"/>
    </g>
   </g>
   <g id="text_40">
    <!-- 0.0% -->
    <g transform="translate(327.17761 186.038766) scale(0.1 -0.1)">
     <use xlink:href="#DejaVuSans-30"/>
     <use xlink:href="#DejaVuSans-2e" x="63.623047"/>
     <use xlink:href="#DejaVuSans-30" x="95.410156"/>
     <use xlink:href="#DejaVuSans-25" x="159.033203"/>
    </g>
   </g>
   <g id="text_41">
    <!-- Ruptura De Canal. De Fluídos -->
    <g transform="translate(95.549453 129.85283) scale(0.12 -0.12)">
     <use xlink:href="#DejaVuSans-52"/>
     <use xlink:href="#DejaVuSans-75" x="64.982422"/>
     <use xlink:href="#DejaVuSans-70" x="128.361328"/>
     <use xlink:href="#DejaVuSans-74" x="191.837891"/>
     <use xlink:href="#DejaVuSans-75" x="231.046875"/>
     <use xlink:href="#DejaVuSans-72" x="294.425781"/>
     <use xlink:href="#DejaVuSans-61" x="335.539062"/>
     <use xlink:href="#DejaVuSans-20" x="396.818359"/>
     <use xlink:href="#DejaVuSans-44" x="428.605469"/>
     <use xlink:href="#DejaVuSans-65" x="505.607422"/>
     <use xlink:href="#DejaVuSans-20" x="567.130859"/>
     <use xlink:href="#DejaVuSans-43" x="598.917969"/>
     <use xlink:href="#DejaVuSans-61" x="668.742188"/>
     <use xlink:href="#DejaVuSans-6e" x="730.021484"/>
     <use xlink:href="#DejaVuSans-61" x="793.400391"/>
     <use xlink:href="#DejaVuSans-6c" x="854.679688"/>
     <use xlink:href="#DejaVuSans-2e" x="882.462891"/>
     <use xlink:href="#DejaVuSans-20" x="914.25"/>
     <use xlink:href="#DejaVuSans-44" x="946.037109"/>
     <use xlink:href="#DejaVuSans-65" x="1023.039062"/>
     <use xlink:href="#DejaVuSans-20" x="1084.5625"/>
     <use xlink:href="#DejaVuSans-46" x="1116.349609"/>
     <use xlink:href="#DejaVuSans-6c" x="1173.869141"/>
     <use xlink:href="#DejaVuSans-75" x="1201.652344"/>
     <use xlink:href="#DejaVuSans-ed" x="1265.03125"/>
     <use xlink:href="#DejaVuSans-64" x="1292.814453"/>
     <use xlink:href="#DejaVuSans-6f" x="1356.291016"/>
     <use xlink:href="#DejaVuSans-73" x="1417.472656"/>
    </g>
   </g>
   <g id="text_42">
    <!-- 0.0% -->
    <g transform="translate(327.119924 186.107396) scale(0.1 -0.1)">
     <use xlink:href="#DejaVuSans-30"/>
     <use xlink:href="#DejaVuSans-2e" x="63.623047"/>
     <use xlink:href="#DejaVuSans-30" x="95.410156"/>
     <use xlink:href="#DejaVuSans-25" x="159.033203"/>
    </g>
   </g>
   <g id="text_43">
    <!-- Distribuição das Causas dos Incidentes -->
    <g transform="translate(178.827865 24.04375) scale(0.22 -0.22)">
     <defs>
      <path id="DejaVuSans-Bold-44" d="M 1791 3756 
L 1791 909 
L 2222 909 
Q 2959 909 3348 1275 
Q 3738 1641 3738 2338 
Q 3738 3031 3350 3393 
Q 2963 3756 2222 3756 
L 1791 3756 
z
M 588 4666 
L 1856 4666 
Q 2919 4666 3439 4514 
Q 3959 4363 4331 4000 
Q 4659 3684 4818 3271 
Q 4978 2859 4978 2338 
Q 4978 1809 4818 1395 
Q 4659 981 4331 666 
Q 3956 303 3431 151 
Q 2906 0 1856 0 
L 588 0 
L 588 4666 
z
" transform="scale(0.015625)"/>
      <path id="DejaVuSans-Bold-69" d="M 538 3500 
L 1656 3500 
L 1656 0 
L 538 0 
L 538 3500 
z
M 538 4863 
L 1656 4863 
L 1656 3950 
L 538 3950 
L 538 4863 
z
" transform="scale(0.015625)"/>
      <path id="DejaVuSans-Bold-73" d="M 3272 3391 
L 3272 2541 
Q 2913 2691 2578 2766 
Q 2244 2841 1947 2841 
Q 1628 2841 1473 2761 
Q 1319 2681 1319 2516 
Q 1319 2381 1436 2309 
Q 1553 2238 1856 2203 
L 2053 2175 
Q 2913 2066 3209 1816 
Q 3506 1566 3506 1031 
Q 3506 472 3093 190 
Q 2681 -91 1863 -91 
Q 1516 -91 1145 -36 
Q 775 19 384 128 
L 384 978 
Q 719 816 1070 734 
Q 1422 653 1784 653 
Q 2113 653 2278 743 
Q 2444 834 2444 1013 
Q 2444 1163 2330 1236 
Q 2216 1309 1875 1350 
L 1678 1375 
Q 931 1469 631 1722 
Q 331 1975 331 2491 
Q 331 3047 712 3315 
Q 1094 3584 1881 3584 
Q 2191 3584 2531 3537 
Q 2872 3491 3272 3391 
z
" transform="scale(0.015625)"/>
      <path id="DejaVuSans-Bold-74" d="M 1759 4494 
L 1759 3500 
L 2913 3500 
L 2913 2700 
L 1759 2700 
L 1759 1216 
Q 1759 972 1856 886 
Q 1953 800 2241 800 
L 2816 800 
L 2816 0 
L 1856 0 
Q 1194 0 917 276 
Q 641 553 641 1216 
L 641 2700 
L 84 2700 
L 84 3500 
L 641 3500 
L 641 4494 
L 1759 4494 
z
" transform="scale(0.015625)"/>
      <path id="DejaVuSans-Bold-72" d="M 3138 2547 
Q 2991 2616 2845 2648 
Q 2700 2681 2553 2681 
Q 2122 2681 1889 2404 
Q 1656 2128 1656 1613 
L 1656 0 
L 538 0 
L 538 3500 
L 1656 3500 
L 1656 2925 
Q 1872 3269 2151 3426 
Q 2431 3584 2822 3584 
Q 2878 3584 2943 3579 
Q 3009 3575 3134 3559 
L 3138 2547 
z
" transform="scale(0.015625)"/>
      <path id="DejaVuSans-Bold-62" d="M 2400 722 
Q 2759 722 2948 984 
Q 3138 1247 3138 1747 
Q 3138 2247 2948 2509 
Q 2759 2772 2400 2772 
Q 2041 2772 1848 2508 
Q 1656 2244 1656 1747 
Q 1656 1250 1848 986 
Q 2041 722 2400 722 
z
M 1656 2988 
Q 1888 3294 2169 3439 
Q 2450 3584 2816 3584 
Q 3463 3584 3878 3070 
Q 4294 2556 4294 1747 
Q 4294 938 3878 423 
Q 3463 -91 2816 -91 
Q 2450 -91 2169 54 
Q 1888 200 1656 506 
L 1656 0 
L 538 0 
L 538 4863 
L 1656 4863 
L 1656 2988 
z
" transform="scale(0.015625)"/>
      <path id="DejaVuSans-Bold-75" d="M 500 1363 
L 500 3500 
L 1625 3500 
L 1625 3150 
Q 1625 2866 1622 2436 
Q 1619 2006 1619 1863 
Q 1619 1441 1641 1255 
Q 1663 1069 1716 984 
Q 1784 875 1895 815 
Q 2006 756 2150 756 
Q 2500 756 2700 1025 
Q 2900 1294 2900 1772 
L 2900 3500 
L 4019 3500 
L 4019 0 
L 2900 0 
L 2900 506 
Q 2647 200 2364 54 
Q 2081 -91 1741 -91 
Q 1134 -91 817 281 
Q 500 653 500 1363 
z
" transform="scale(0.015625)"/>
      <path id="DejaVuSans-Bold-e7" d="M 3366 3391 
L 3366 2478 
Q 3138 2634 2908 2709 
Q 2678 2784 2431 2784 
Q 1963 2784 1702 2511 
Q 1441 2238 1441 1747 
Q 1441 1256 1702 982 
Q 1963 709 2431 709 
Q 2694 709 2930 787 
Q 3166 866 3366 1019 
L 3366 103 
Q 3103 6 2833 -42 
Q 2563 -91 2291 -91 
Q 1344 -91 809 395 
Q 275 881 275 1747 
Q 275 2613 809 3098 
Q 1344 3584 2291 3584 
Q 2566 3584 2833 3536 
Q 3100 3488 3366 3391 
z
M 2456 0 
Q 2638 -194 2723 -359 
Q 2809 -525 2809 -672 
Q 2809 -969 2617 -1111 
Q 2425 -1253 2028 -1253 
Q 1878 -1253 1718 -1233 
Q 1559 -1213 1397 -1172 
L 1394 -697 
Q 1550 -747 1679 -770 
Q 1809 -794 1913 -794 
Q 2094 -794 2195 -722 
Q 2297 -650 2297 -525 
Q 2297 -444 2230 -316 
Q 2163 -188 2022 0 
L 2456 0 
z
" transform="scale(0.015625)"/>
      <path id="DejaVuSans-Bold-e3" d="M 2106 1575 
Q 1756 1575 1579 1456 
Q 1403 1338 1403 1106 
Q 1403 894 1545 773 
Q 1688 653 1941 653 
Q 2256 653 2472 879 
Q 2688 1106 2688 1447 
L 2688 1575 
L 2106 1575 
z
M 3816 1997 
L 3816 0 
L 2688 0 
L 2688 519 
Q 2463 200 2181 54 
Q 1900 -91 1497 -91 
Q 953 -91 614 226 
Q 275 544 275 1050 
Q 275 1666 698 1953 
Q 1122 2241 2028 2241 
L 2688 2241 
L 2688 2328 
Q 2688 2594 2478 2717 
Q 2269 2841 1825 2841 
Q 1466 2841 1156 2769 
Q 847 2697 581 2553 
L 581 3406 
Q 941 3494 1303 3539 
Q 1666 3584 2028 3584 
Q 2975 3584 3395 3211 
Q 3816 2838 3816 1997 
z
M 2188 4263 
L 2016 4378 
Q 2003 4384 1984 4397 
Q 1838 4494 1759 4494 
Q 1647 4494 1587 4397 
Q 1528 4300 1528 4116 
L 1528 4091 
L 1094 4091 
Q 1094 4516 1255 4747 
Q 1416 4978 1706 4978 
Q 1819 4978 1933 4936 
Q 2047 4894 2175 4800 
L 2366 4666 
Q 2434 4619 2492 4594 
Q 2550 4569 2597 4569 
Q 2709 4569 2771 4669 
Q 2834 4769 2834 4947 
L 2834 4972 
L 3269 4972 
Q 3269 4547 3108 4315 
Q 2947 4084 2656 4084 
Q 2544 4084 2439 4121 
Q 2334 4159 2188 4263 
z
" transform="scale(0.015625)"/>
      <path id="DejaVuSans-Bold-6f" d="M 2203 2784 
Q 1831 2784 1636 2517 
Q 1441 2250 1441 1747 
Q 1441 1244 1636 976 
Q 1831 709 2203 709 
Q 2569 709 2762 976 
Q 2956 1244 2956 1747 
Q 2956 2250 2762 2517 
Q 2569 2784 2203 2784 
z
M 2203 3584 
Q 3106 3584 3614 3096 
Q 4122 2609 4122 1747 
Q 4122 884 3614 396 
Q 3106 -91 2203 -91 
Q 1297 -91 786 396 
Q 275 884 275 1747 
Q 275 2609 786 3096 
Q 1297 3584 2203 3584 
z
" transform="scale(0.015625)"/>
      <path id="DejaVuSans-Bold-20" transform="scale(0.015625)"/>
      <path id="DejaVuSans-Bold-64" d="M 2919 2988 
L 2919 4863 
L 4044 4863 
L 4044 0 
L 2919 0 
L 2919 506 
Q 2688 197 2409 53 
Q 2131 -91 1766 -91 
Q 1119 -91 703 423 
Q 288 938 288 1747 
Q 288 2556 703 3070 
Q 1119 3584 1766 3584 
Q 2128 3584 2408 3439 
Q 2688 3294 2919 2988 
z
M 2181 722 
Q 2541 722 2730 984 
Q 2919 1247 2919 1747 
Q 2919 2247 2730 2509 
Q 2541 2772 2181 2772 
Q 1825 2772 1636 2509 
Q 1447 2247 1447 1747 
Q 1447 1247 1636 984 
Q 1825 722 2181 722 
z
" transform="scale(0.015625)"/>
      <path id="DejaVuSans-Bold-61" d="M 2106 1575 
Q 1756 1575 1579 1456 
Q 1403 1338 1403 1106 
Q 1403 894 1545 773 
Q 1688 653 1941 653 
Q 2256 653 2472 879 
Q 2688 1106 2688 1447 
L 2688 1575 
L 2106 1575 
z
M 3816 1997 
L 3816 0 
L 2688 0 
L 2688 519 
Q 2463 200 2181 54 
Q 1900 -91 1497 -91 
Q 953 -91 614 226 
Q 275 544 275 1050 
Q 275 1666 698 1953 
Q 1122 2241 2028 2241 
L 2688 2241 
L 2688 2328 
Q 2688 2594 2478 2717 
Q 2269 2841 1825 2841 
Q 1466 2841 1156 2769 
Q 847 2697 581 2553 
L 581 3406 
Q 941 3494 1303 3539 
Q 1666 3584 2028 3584 
Q 2975 3584 3395 3211 
Q 3816 2838 3816 1997 
z
" transform="scale(0.015625)"/>
      <path id="DejaVuSans-Bold-43" d="M 4288 256 
Q 3956 84 3597 -3 
Q 3238 -91 2847 -91 
Q 1681 -91 1000 561 
Q 319 1213 319 2328 
Q 319 3447 1000 4098 
Q 1681 4750 2847 4750 
Q 3238 4750 3597 4662 
Q 3956 4575 4288 4403 
L 4288 3438 
Q 3953 3666 3628 3772 
Q 3303 3878 2944 3878 
Q 2300 3878 1931 3465 
Q 1563 3053 1563 2328 
Q 1563 1606 1931 1193 
Q 2300 781 2944 781 
Q 3303 781 3628 887 
Q 3953 994 4288 1222 
L 4288 256 
z
" transform="scale(0.015625)"/>
      <path id="DejaVuSans-Bold-49" d="M 588 4666 
L 1791 4666 
L 1791 0 
L 588 0 
L 588 4666 
z
" transform="scale(0.015625)"/>
      <path id="DejaVuSans-Bold-6e" d="M 4056 2131 
L 4056 0 
L 2931 0 
L 2931 347 
L 2931 1631 
Q 2931 2084 2911 2256 
Q 2891 2428 2841 2509 
Q 2775 2619 2662 2680 
Q 2550 2741 2406 2741 
Q 2056 2741 1856 2470 
Q 1656 2200 1656 1722 
L 1656 0 
L 538 0 
L 538 3500 
L 1656 3500 
L 1656 2988 
Q 1909 3294 2193 3439 
Q 2478 3584 2822 3584 
Q 3428 3584 3742 3212 
Q 4056 2841 4056 2131 
z
" transform="scale(0.015625)"/>
      <path id="DejaVuSans-Bold-63" d="M 3366 3391 
L 3366 2478 
Q 3138 2634 2908 2709 
Q 2678 2784 2431 2784 
Q 1963 2784 1702 2511 
Q 1441 2238 1441 1747 
Q 1441 1256 1702 982 
Q 1963 709 2431 709 
Q 2694 709 2930 787 
Q 3166 866 3366 1019 
L 3366 103 
Q 3103 6 2833 -42 
Q 2563 -91 2291 -91 
Q 1344 -91 809 395 
Q 275 881 275 1747 
Q 275 2613 809 3098 
Q 1344 3584 2291 3584 
Q 2566 3584 2833 3536 
Q 3100 3488 3366 3391 
z
" transform="scale(0.015625)"/>
      <path id="DejaVuSans-Bold-65" d="M 4031 1759 
L 4031 1441 
L 1416 1441 
Q 1456 1047 1700 850 
Q 1944 653 2381 653 
Q 2734 653 3104 758 
Q 3475 863 3866 1075 
L 3866 213 
Q 3469 63 3072 -14 
Q 2675 -91 2278 -91 
Q 1328 -91 801 392 
Q 275 875 275 1747 
Q 275 2603 792 3093 
Q 1309 3584 2216 3584 
Q 3041 3584 3536 3087 
Q 4031 2591 4031 1759 
z
M 2881 2131 
Q 2881 2450 2695 2645 
Q 2509 2841 2209 2841 
Q 1884 2841 1681 2658 
Q 1478 2475 1428 2131 
L 2881 2131 
z
" transform="scale(0.015625)"/>
     </defs>
     <use xlink:href="#DejaVuSans-Bold-44"/>
     <use xlink:href="#DejaVuSans-Bold-69" x="83.007812"/>
     <use xlink:href="#DejaVuSans-Bold-73" x="117.285156"/>
     <use xlink:href="#DejaVuSans-Bold-74" x="176.806641"/>
     <use xlink:href="#DejaVuSans-Bold-72" x="224.609375"/>
     <use xlink:href="#DejaVuSans-Bold-69" x="273.925781"/>
     <use xlink:href="#DejaVuSans-Bold-62" x="308.203125"/>
     <use xlink:href="#DejaVuSans-Bold-75" x="379.785156"/>
     <use xlink:href="#DejaVuSans-Bold-69" x="450.976562"/>
     <use xlink:href="#DejaVuSans-Bold-e7" x="485.253906"/>
     <use xlink:href="#DejaVuSans-Bold-e3" x="544.53125"/>
     <use xlink:href="#DejaVuSans-Bold-6f" x="612.011719"/>
     <use xlink:href="#DejaVuSans-Bold-20" x="680.712891"/>
     <use xlink:href="#DejaVuSans-Bold-64" x="715.527344"/>
     <use xlink:href="#DejaVuSans-Bold-61" x="787.109375"/>
     <use xlink:href="#DejaVuSans-Bold-73" x="854.589844"/>
     <use xlink:href="#DejaVuSans-Bold-20" x="914.111328"/>
     <use xlink:href="#DejaVuSans-Bold-43" x="948.925781"/>
     <use xlink:href="#DejaVuSans-Bold-61" x="1022.314453"/>
     <use xlink:href="#DejaVuSans-Bold-75" x="1089.794922"/>
     <use xlink:href="#DejaVuSans-Bold-73" x="1160.986328"/>
     <use xlink:href="#DejaVuSans-Bold-61" x="1220.507812"/>
     <use xlink:href="#DejaVuSans-Bold-73" x="1287.988281"/>
     <use xlink:href="#DejaVuSans-Bold-20" x="1347.509766"/>
     <use xlink:href="#DejaVuSans-Bold-64" x="1382.324219"/>
     <use xlink:href="#DejaVuSans-Bold-6f" x="1453.90625"/>
     <use xlink:href="#DejaVuSans-Bold-73" x="1522.607422"/>
     <use xlink:href="#DejaVuSans-Bold-20" x="1582.128906"/>
     <use xlink:href="#DejaVuSans-Bold-49" x="1616.943359"/>
     <use xlink:href="#DejaVuSans-Bold-6e" x="1654.150391"/>
     <use xlink:href="#DejaVuSans-Bold-63" x="1725.341797"/>
     <use xlink:href="#DejaVuSans-Bold-69" x="1784.619141"/>
     <use xlink:href="#DejaVuSans-Bold-64" x="1818.896484"/>
     <use xlink:href="#DejaVuSans-Bold-65" x="1890.478516"/>
     <use xlink:href="#DejaVuSans-Bold-6e" x="1958.300781"/>
     <use xlink:href="#DejaVuSans-Bold-74" x="2029.492188"/>
     <use xlink:href="#DejaVuSans-Bold-65" x="2077.294922"/>
     <use xlink:href="#DejaVuSans-Bold-73" x="2145.117188"/>
    </g>
   </g>
  </g>
 </g>
</svg>
