<?xml version="1.0" encoding="utf-8" standalone="no"?>
<!DOCTYPE svg PUBLIC "-//W3C//DTD SVG 1.1//EN"
  "http://www.w3.org/Graphics/SVG/1.1/DTD/svg11.dtd">
<svg xmlns:xlink="http://www.w3.org/1999/xlink" width="1080pt" height="576pt" viewBox="0 0 1080 576" xmlns="http://www.w3.org/2000/svg" version="1.1">
 <metadata>
  <rdf:RDF xmlns:dc="http://purl.org/dc/elements/1.1/" xmlns:cc="http://creativecommons.org/ns#" xmlns:rdf="http://www.w3.org/1999/02/22-rdf-syntax-ns#">
   <cc:Work>
    <dc:type rdf:resource="http://purl.org/dc/dcmitype/StillImage"/>
    <dc:date>2024-02-20T10:56:19.892652</dc:date>
    <dc:format>image/svg+xml</dc:format>
    <dc:creator>
     <cc:Agent>
      <dc:title>Matplotlib v3.7.1, https://matplotlib.org/</dc:title>
     </cc:Agent>
    </dc:creator>
   </cc:Work>
  </rdf:RDF>
 </metadata>
 <defs>
  <style type="text/css">*{stroke-linejoin: round; stroke-linecap: butt}</style>
 </defs>
 <g id="figure_1">
  <g id="patch_1">
   <path d="M 0 576 
L 1080 576 
L 1080 0 
L 0 0 
z
" style="fill: #ffffff"/>
  </g>
  <g id="axes_1">
   <g id="patch_2">
    <path d="M 63.56 430.352 
L 1069.2 430.352 
L 1069.2 27.24 
L 63.56 27.24 
z
" style="fill: #ffffff"/>
   </g>
   <g id="matplotlib.axis_1">
    <g id="xtick_1">
     <g id="line2d_1">
      <path d="M 109.270909 430.352 
L 109.270909 27.24 
" clip-path="url(#p33c159c88a)" style="fill: none; stroke: #b0b0b0; stroke-width: 0.8; stroke-linecap: square"/>
     </g>
     <g id="line2d_2">
      <defs>
       <path id="md934c6832f" d="M 0 0 
L 0 3.5 
" style="stroke: #000000; stroke-width: 0.8"/>
      </defs>
      <g>
       <use xlink:href="#md934c6832f" x="109.270909" y="430.352" style="stroke: #000000; stroke-width: 0.8"/>
      </g>
     </g>
     <g id="text_1">
      <!-- 00:00 -->
      <g transform="translate(101.033115 463.10284) rotate(-45) scale(0.1 -0.1)">
       <defs>
        <path id="DejaVuSans-30" d="M 2034 4250 
Q 1547 4250 1301 3770 
Q 1056 3291 1056 2328 
Q 1056 1369 1301 889 
Q 1547 409 2034 409 
Q 2525 409 2770 889 
Q 3016 1369 3016 2328 
Q 3016 3291 2770 3770 
Q 2525 4250 2034 4250 
z
M 2034 4750 
Q 2819 4750 3233 4129 
Q 3647 3509 3647 2328 
Q 3647 1150 3233 529 
Q 2819 -91 2034 -91 
Q 1250 -91 836 529 
Q 422 1150 422 2328 
Q 422 3509 836 4129 
Q 1250 4750 2034 4750 
z
" transform="scale(0.015625)"/>
        <path id="DejaVuSans-3a" d="M 750 794 
L 1409 794 
L 1409 0 
L 750 0 
L 750 794 
z
M 750 3309 
L 1409 3309 
L 1409 2516 
L 750 2516 
L 750 3309 
z
" transform="scale(0.015625)"/>
       </defs>
       <use xlink:href="#DejaVuSans-30"/>
       <use xlink:href="#DejaVuSans-30" x="63.623047"/>
       <use xlink:href="#DejaVuSans-3a" x="127.246094"/>
       <use xlink:href="#DejaVuSans-30" x="160.9375"/>
       <use xlink:href="#DejaVuSans-30" x="224.560547"/>
      </g>
     </g>
    </g>
    <g id="xtick_2">
     <g id="line2d_3">
      <path d="M 149.019526 430.352 
L 149.019526 27.24 
" clip-path="url(#p33c159c88a)" style="fill: none; stroke: #b0b0b0; stroke-width: 0.8; stroke-linecap: square"/>
     </g>
     <g id="line2d_4">
      <g>
       <use xlink:href="#md934c6832f" x="149.019526" y="430.352" style="stroke: #000000; stroke-width: 0.8"/>
      </g>
     </g>
     <g id="text_2">
      <!-- 01:00 -->
      <g transform="translate(140.781732 463.10284) rotate(-45) scale(0.1 -0.1)">
       <defs>
        <path id="DejaVuSans-31" d="M 794 531 
L 1825 531 
L 1825 4091 
L 703 3866 
L 703 4441 
L 1819 4666 
L 2450 4666 
L 2450 531 
L 3481 531 
L 3481 0 
L 794 0 
L 794 531 
z
" transform="scale(0.015625)"/>
       </defs>
       <use xlink:href="#DejaVuSans-30"/>
       <use xlink:href="#DejaVuSans-31" x="63.623047"/>
       <use xlink:href="#DejaVuSans-3a" x="127.246094"/>
       <use xlink:href="#DejaVuSans-30" x="160.9375"/>
       <use xlink:href="#DejaVuSans-30" x="224.560547"/>
      </g>
     </g>
    </g>
    <g id="xtick_3">
     <g id="line2d_5">
      <path d="M 188.768142 430.352 
L 188.768142 27.24 
" clip-path="url(#p33c159c88a)" style="fill: none; stroke: #b0b0b0; stroke-width: 0.8; stroke-linecap: square"/>
     </g>
     <g id="line2d_6">
      <g>
       <use xlink:href="#md934c6832f" x="188.768142" y="430.352" style="stroke: #000000; stroke-width: 0.8"/>
      </g>
     </g>
     <g id="text_3">
      <!-- 02:00 -->
      <g transform="translate(180.530348 463.10284) rotate(-45) scale(0.1 -0.1)">
       <defs>
        <path id="DejaVuSans-32" d="M 1228 531 
L 3431 531 
L 3431 0 
L 469 0 
L 469 531 
Q 828 903 1448 1529 
Q 2069 2156 2228 2338 
Q 2531 2678 2651 2914 
Q 2772 3150 2772 3378 
Q 2772 3750 2511 3984 
Q 2250 4219 1831 4219 
Q 1534 4219 1204 4116 
Q 875 4013 500 3803 
L 500 4441 
Q 881 4594 1212 4672 
Q 1544 4750 1819 4750 
Q 2544 4750 2975 4387 
Q 3406 4025 3406 3419 
Q 3406 3131 3298 2873 
Q 3191 2616 2906 2266 
Q 2828 2175 2409 1742 
Q 1991 1309 1228 531 
z
" transform="scale(0.015625)"/>
       </defs>
       <use xlink:href="#DejaVuSans-30"/>
       <use xlink:href="#DejaVuSans-32" x="63.623047"/>
       <use xlink:href="#DejaVuSans-3a" x="127.246094"/>
       <use xlink:href="#DejaVuSans-30" x="160.9375"/>
       <use xlink:href="#DejaVuSans-30" x="224.560547"/>
      </g>
     </g>
    </g>
    <g id="xtick_4">
     <g id="line2d_7">
      <path d="M 228.516759 430.352 
L 228.516759 27.24 
" clip-path="url(#p33c159c88a)" style="fill: none; stroke: #b0b0b0; stroke-width: 0.8; stroke-linecap: square"/>
     </g>
     <g id="line2d_8">
      <g>
       <use xlink:href="#md934c6832f" x="228.516759" y="430.352" style="stroke: #000000; stroke-width: 0.8"/>
      </g>
     </g>
     <g id="text_4">
      <!-- 03:00 -->
      <g transform="translate(220.278965 463.10284) rotate(-45) scale(0.1 -0.1)">
       <defs>
        <path id="DejaVuSans-33" d="M 2597 2516 
Q 3050 2419 3304 2112 
Q 3559 1806 3559 1356 
Q 3559 666 3084 287 
Q 2609 -91 1734 -91 
Q 1441 -91 1130 -33 
Q 819 25 488 141 
L 488 750 
Q 750 597 1062 519 
Q 1375 441 1716 441 
Q 2309 441 2620 675 
Q 2931 909 2931 1356 
Q 2931 1769 2642 2001 
Q 2353 2234 1838 2234 
L 1294 2234 
L 1294 2753 
L 1863 2753 
Q 2328 2753 2575 2939 
Q 2822 3125 2822 3475 
Q 2822 3834 2567 4026 
Q 2313 4219 1838 4219 
Q 1578 4219 1281 4162 
Q 984 4106 628 3988 
L 628 4550 
Q 988 4650 1302 4700 
Q 1616 4750 1894 4750 
Q 2613 4750 3031 4423 
Q 3450 4097 3450 3541 
Q 3450 3153 3228 2886 
Q 3006 2619 2597 2516 
z
" transform="scale(0.015625)"/>
       </defs>
       <use xlink:href="#DejaVuSans-30"/>
       <use xlink:href="#DejaVuSans-33" x="63.623047"/>
       <use xlink:href="#DejaVuSans-3a" x="127.246094"/>
       <use xlink:href="#DejaVuSans-30" x="160.9375"/>
       <use xlink:href="#DejaVuSans-30" x="224.560547"/>
      </g>
     </g>
    </g>
    <g id="xtick_5">
     <g id="line2d_9">
      <path d="M 268.265375 430.352 
L 268.265375 27.24 
" clip-path="url(#p33c159c88a)" style="fill: none; stroke: #b0b0b0; stroke-width: 0.8; stroke-linecap: square"/>
     </g>
     <g id="line2d_10">
      <g>
       <use xlink:href="#md934c6832f" x="268.265375" y="430.352" style="stroke: #000000; stroke-width: 0.8"/>
      </g>
     </g>
     <g id="text_5">
      <!-- 04:00 -->
      <g transform="translate(260.027581 463.10284) rotate(-45) scale(0.1 -0.1)">
       <defs>
        <path id="DejaVuSans-34" d="M 2419 4116 
L 825 1625 
L 2419 1625 
L 2419 4116 
z
M 2253 4666 
L 3047 4666 
L 3047 1625 
L 3713 1625 
L 3713 1100 
L 3047 1100 
L 3047 0 
L 2419 0 
L 2419 1100 
L 313 1100 
L 313 1709 
L 2253 4666 
z
" transform="scale(0.015625)"/>
       </defs>
       <use xlink:href="#DejaVuSans-30"/>
       <use xlink:href="#DejaVuSans-34" x="63.623047"/>
       <use xlink:href="#DejaVuSans-3a" x="127.246094"/>
       <use xlink:href="#DejaVuSans-30" x="160.9375"/>
       <use xlink:href="#DejaVuSans-30" x="224.560547"/>
      </g>
     </g>
    </g>
    <g id="xtick_6">
     <g id="line2d_11">
      <path d="M 308.013992 430.352 
L 308.013992 27.24 
" clip-path="url(#p33c159c88a)" style="fill: none; stroke: #b0b0b0; stroke-width: 0.8; stroke-linecap: square"/>
     </g>
     <g id="line2d_12">
      <g>
       <use xlink:href="#md934c6832f" x="308.013992" y="430.352" style="stroke: #000000; stroke-width: 0.8"/>
      </g>
     </g>
     <g id="text_6">
      <!-- 05:00 -->
      <g transform="translate(299.776198 463.10284) rotate(-45) scale(0.1 -0.1)">
       <defs>
        <path id="DejaVuSans-35" d="M 691 4666 
L 3169 4666 
L 3169 4134 
L 1269 4134 
L 1269 2991 
Q 1406 3038 1543 3061 
Q 1681 3084 1819 3084 
Q 2600 3084 3056 2656 
Q 3513 2228 3513 1497 
Q 3513 744 3044 326 
Q 2575 -91 1722 -91 
Q 1428 -91 1123 -41 
Q 819 9 494 109 
L 494 744 
Q 775 591 1075 516 
Q 1375 441 1709 441 
Q 2250 441 2565 725 
Q 2881 1009 2881 1497 
Q 2881 1984 2565 2268 
Q 2250 2553 1709 2553 
Q 1456 2553 1204 2497 
Q 953 2441 691 2322 
L 691 4666 
z
" transform="scale(0.015625)"/>
       </defs>
       <use xlink:href="#DejaVuSans-30"/>
       <use xlink:href="#DejaVuSans-35" x="63.623047"/>
       <use xlink:href="#DejaVuSans-3a" x="127.246094"/>
       <use xlink:href="#DejaVuSans-30" x="160.9375"/>
       <use xlink:href="#DejaVuSans-30" x="224.560547"/>
      </g>
     </g>
    </g>
    <g id="xtick_7">
     <g id="line2d_13">
      <path d="M 347.762609 430.352 
L 347.762609 27.24 
" clip-path="url(#p33c159c88a)" style="fill: none; stroke: #b0b0b0; stroke-width: 0.8; stroke-linecap: square"/>
     </g>
     <g id="line2d_14">
      <g>
       <use xlink:href="#md934c6832f" x="347.762609" y="430.352" style="stroke: #000000; stroke-width: 0.8"/>
      </g>
     </g>
     <g id="text_7">
      <!-- 06:00 -->
      <g transform="translate(339.524815 463.10284) rotate(-45) scale(0.1 -0.1)">
       <defs>
        <path id="DejaVuSans-36" d="M 2113 2584 
Q 1688 2584 1439 2293 
Q 1191 2003 1191 1497 
Q 1191 994 1439 701 
Q 1688 409 2113 409 
Q 2538 409 2786 701 
Q 3034 994 3034 1497 
Q 3034 2003 2786 2293 
Q 2538 2584 2113 2584 
z
M 3366 4563 
L 3366 3988 
Q 3128 4100 2886 4159 
Q 2644 4219 2406 4219 
Q 1781 4219 1451 3797 
Q 1122 3375 1075 2522 
Q 1259 2794 1537 2939 
Q 1816 3084 2150 3084 
Q 2853 3084 3261 2657 
Q 3669 2231 3669 1497 
Q 3669 778 3244 343 
Q 2819 -91 2113 -91 
Q 1303 -91 875 529 
Q 447 1150 447 2328 
Q 447 3434 972 4092 
Q 1497 4750 2381 4750 
Q 2619 4750 2861 4703 
Q 3103 4656 3366 4563 
z
" transform="scale(0.015625)"/>
       </defs>
       <use xlink:href="#DejaVuSans-30"/>
       <use xlink:href="#DejaVuSans-36" x="63.623047"/>
       <use xlink:href="#DejaVuSans-3a" x="127.246094"/>
       <use xlink:href="#DejaVuSans-30" x="160.9375"/>
       <use xlink:href="#DejaVuSans-30" x="224.560547"/>
      </g>
     </g>
    </g>
    <g id="xtick_8">
     <g id="line2d_15">
      <path d="M 387.511225 430.352 
L 387.511225 27.24 
" clip-path="url(#p33c159c88a)" style="fill: none; stroke: #b0b0b0; stroke-width: 0.8; stroke-linecap: square"/>
     </g>
     <g id="line2d_16">
      <g>
       <use xlink:href="#md934c6832f" x="387.511225" y="430.352" style="stroke: #000000; stroke-width: 0.8"/>
      </g>
     </g>
     <g id="text_8">
      <!-- 07:00 -->
      <g transform="translate(379.273431 463.10284) rotate(-45) scale(0.1 -0.1)">
       <defs>
        <path id="DejaVuSans-37" d="M 525 4666 
L 3525 4666 
L 3525 4397 
L 1831 0 
L 1172 0 
L 2766 4134 
L 525 4134 
L 525 4666 
z
" transform="scale(0.015625)"/>
       </defs>
       <use xlink:href="#DejaVuSans-30"/>
       <use xlink:href="#DejaVuSans-37" x="63.623047"/>
       <use xlink:href="#DejaVuSans-3a" x="127.246094"/>
       <use xlink:href="#DejaVuSans-30" x="160.9375"/>
       <use xlink:href="#DejaVuSans-30" x="224.560547"/>
      </g>
     </g>
    </g>
    <g id="xtick_9">
     <g id="line2d_17">
      <path d="M 427.259842 430.352 
L 427.259842 27.24 
" clip-path="url(#p33c159c88a)" style="fill: none; stroke: #b0b0b0; stroke-width: 0.8; stroke-linecap: square"/>
     </g>
     <g id="line2d_18">
      <g>
       <use xlink:href="#md934c6832f" x="427.259842" y="430.352" style="stroke: #000000; stroke-width: 0.8"/>
      </g>
     </g>
     <g id="text_9">
      <!-- 08:00 -->
      <g transform="translate(419.022048 463.10284) rotate(-45) scale(0.1 -0.1)">
       <defs>
        <path id="DejaVuSans-38" d="M 2034 2216 
Q 1584 2216 1326 1975 
Q 1069 1734 1069 1313 
Q 1069 891 1326 650 
Q 1584 409 2034 409 
Q 2484 409 2743 651 
Q 3003 894 3003 1313 
Q 3003 1734 2745 1975 
Q 2488 2216 2034 2216 
z
M 1403 2484 
Q 997 2584 770 2862 
Q 544 3141 544 3541 
Q 544 4100 942 4425 
Q 1341 4750 2034 4750 
Q 2731 4750 3128 4425 
Q 3525 4100 3525 3541 
Q 3525 3141 3298 2862 
Q 3072 2584 2669 2484 
Q 3125 2378 3379 2068 
Q 3634 1759 3634 1313 
Q 3634 634 3220 271 
Q 2806 -91 2034 -91 
Q 1263 -91 848 271 
Q 434 634 434 1313 
Q 434 1759 690 2068 
Q 947 2378 1403 2484 
z
M 1172 3481 
Q 1172 3119 1398 2916 
Q 1625 2713 2034 2713 
Q 2441 2713 2670 2916 
Q 2900 3119 2900 3481 
Q 2900 3844 2670 4047 
Q 2441 4250 2034 4250 
Q 1625 4250 1398 4047 
Q 1172 3844 1172 3481 
z
" transform="scale(0.015625)"/>
       </defs>
       <use xlink:href="#DejaVuSans-30"/>
       <use xlink:href="#DejaVuSans-38" x="63.623047"/>
       <use xlink:href="#DejaVuSans-3a" x="127.246094"/>
       <use xlink:href="#DejaVuSans-30" x="160.9375"/>
       <use xlink:href="#DejaVuSans-30" x="224.560547"/>
      </g>
     </g>
    </g>
    <g id="xtick_10">
     <g id="line2d_19">
      <path d="M 467.008458 430.352 
L 467.008458 27.24 
" clip-path="url(#p33c159c88a)" style="fill: none; stroke: #b0b0b0; stroke-width: 0.8; stroke-linecap: square"/>
     </g>
     <g id="line2d_20">
      <g>
       <use xlink:href="#md934c6832f" x="467.008458" y="430.352" style="stroke: #000000; stroke-width: 0.8"/>
      </g>
     </g>
     <g id="text_10">
      <!-- 09:00 -->
      <g transform="translate(458.770664 463.10284) rotate(-45) scale(0.1 -0.1)">
       <defs>
        <path id="DejaVuSans-39" d="M 703 97 
L 703 672 
Q 941 559 1184 500 
Q 1428 441 1663 441 
Q 2288 441 2617 861 
Q 2947 1281 2994 2138 
Q 2813 1869 2534 1725 
Q 2256 1581 1919 1581 
Q 1219 1581 811 2004 
Q 403 2428 403 3163 
Q 403 3881 828 4315 
Q 1253 4750 1959 4750 
Q 2769 4750 3195 4129 
Q 3622 3509 3622 2328 
Q 3622 1225 3098 567 
Q 2575 -91 1691 -91 
Q 1453 -91 1209 -44 
Q 966 3 703 97 
z
M 1959 2075 
Q 2384 2075 2632 2365 
Q 2881 2656 2881 3163 
Q 2881 3666 2632 3958 
Q 2384 4250 1959 4250 
Q 1534 4250 1286 3958 
Q 1038 3666 1038 3163 
Q 1038 2656 1286 2365 
Q 1534 2075 1959 2075 
z
" transform="scale(0.015625)"/>
       </defs>
       <use xlink:href="#DejaVuSans-30"/>
       <use xlink:href="#DejaVuSans-39" x="63.623047"/>
       <use xlink:href="#DejaVuSans-3a" x="127.246094"/>
       <use xlink:href="#DejaVuSans-30" x="160.9375"/>
       <use xlink:href="#DejaVuSans-30" x="224.560547"/>
      </g>
     </g>
    </g>
    <g id="xtick_11">
     <g id="line2d_21">
      <path d="M 506.757075 430.352 
L 506.757075 27.24 
" clip-path="url(#p33c159c88a)" style="fill: none; stroke: #b0b0b0; stroke-width: 0.8; stroke-linecap: square"/>
     </g>
     <g id="line2d_22">
      <g>
       <use xlink:href="#md934c6832f" x="506.757075" y="430.352" style="stroke: #000000; stroke-width: 0.8"/>
      </g>
     </g>
     <g id="text_11">
      <!-- 10:00 -->
      <g transform="translate(498.519281 463.10284) rotate(-45) scale(0.1 -0.1)">
       <use xlink:href="#DejaVuSans-31"/>
       <use xlink:href="#DejaVuSans-30" x="63.623047"/>
       <use xlink:href="#DejaVuSans-3a" x="127.246094"/>
       <use xlink:href="#DejaVuSans-30" x="160.9375"/>
       <use xlink:href="#DejaVuSans-30" x="224.560547"/>
      </g>
     </g>
    </g>
    <g id="xtick_12">
     <g id="line2d_23">
      <path d="M 546.505692 430.352 
L 546.505692 27.24 
" clip-path="url(#p33c159c88a)" style="fill: none; stroke: #b0b0b0; stroke-width: 0.8; stroke-linecap: square"/>
     </g>
     <g id="line2d_24">
      <g>
       <use xlink:href="#md934c6832f" x="546.505692" y="430.352" style="stroke: #000000; stroke-width: 0.8"/>
      </g>
     </g>
     <g id="text_12">
      <!-- 11:00 -->
      <g transform="translate(538.267898 463.10284) rotate(-45) scale(0.1 -0.1)">
       <use xlink:href="#DejaVuSans-31"/>
       <use xlink:href="#DejaVuSans-31" x="63.623047"/>
       <use xlink:href="#DejaVuSans-3a" x="127.246094"/>
       <use xlink:href="#DejaVuSans-30" x="160.9375"/>
       <use xlink:href="#DejaVuSans-30" x="224.560547"/>
      </g>
     </g>
    </g>
    <g id="xtick_13">
     <g id="line2d_25">
      <path d="M 586.254308 430.352 
L 586.254308 27.24 
" clip-path="url(#p33c159c88a)" style="fill: none; stroke: #b0b0b0; stroke-width: 0.8; stroke-linecap: square"/>
     </g>
     <g id="line2d_26">
      <g>
       <use xlink:href="#md934c6832f" x="586.254308" y="430.352" style="stroke: #000000; stroke-width: 0.8"/>
      </g>
     </g>
     <g id="text_13">
      <!-- 12:00 -->
      <g transform="translate(578.016514 463.10284) rotate(-45) scale(0.1 -0.1)">
       <use xlink:href="#DejaVuSans-31"/>
       <use xlink:href="#DejaVuSans-32" x="63.623047"/>
       <use xlink:href="#DejaVuSans-3a" x="127.246094"/>
       <use xlink:href="#DejaVuSans-30" x="160.9375"/>
       <use xlink:href="#DejaVuSans-30" x="224.560547"/>
      </g>
     </g>
    </g>
    <g id="xtick_14">
     <g id="line2d_27">
      <path d="M 626.002925 430.352 
L 626.002925 27.24 
" clip-path="url(#p33c159c88a)" style="fill: none; stroke: #b0b0b0; stroke-width: 0.8; stroke-linecap: square"/>
     </g>
     <g id="line2d_28">
      <g>
       <use xlink:href="#md934c6832f" x="626.002925" y="430.352" style="stroke: #000000; stroke-width: 0.8"/>
      </g>
     </g>
     <g id="text_14">
      <!-- 13:00 -->
      <g transform="translate(617.765131 463.10284) rotate(-45) scale(0.1 -0.1)">
       <use xlink:href="#DejaVuSans-31"/>
       <use xlink:href="#DejaVuSans-33" x="63.623047"/>
       <use xlink:href="#DejaVuSans-3a" x="127.246094"/>
       <use xlink:href="#DejaVuSans-30" x="160.9375"/>
       <use xlink:href="#DejaVuSans-30" x="224.560547"/>
      </g>
     </g>
    </g>
    <g id="xtick_15">
     <g id="line2d_29">
      <path d="M 665.751542 430.352 
L 665.751542 27.24 
" clip-path="url(#p33c159c88a)" style="fill: none; stroke: #b0b0b0; stroke-width: 0.8; stroke-linecap: square"/>
     </g>
     <g id="line2d_30">
      <g>
       <use xlink:href="#md934c6832f" x="665.751542" y="430.352" style="stroke: #000000; stroke-width: 0.8"/>
      </g>
     </g>
     <g id="text_15">
      <!-- 14:00 -->
      <g transform="translate(657.513748 463.10284) rotate(-45) scale(0.1 -0.1)">
       <use xlink:href="#DejaVuSans-31"/>
       <use xlink:href="#DejaVuSans-34" x="63.623047"/>
       <use xlink:href="#DejaVuSans-3a" x="127.246094"/>
       <use xlink:href="#DejaVuSans-30" x="160.9375"/>
       <use xlink:href="#DejaVuSans-30" x="224.560547"/>
      </g>
     </g>
    </g>
    <g id="xtick_16">
     <g id="line2d_31">
      <path d="M 705.500158 430.352 
L 705.500158 27.24 
" clip-path="url(#p33c159c88a)" style="fill: none; stroke: #b0b0b0; stroke-width: 0.8; stroke-linecap: square"/>
     </g>
     <g id="line2d_32">
      <g>
       <use xlink:href="#md934c6832f" x="705.500158" y="430.352" style="stroke: #000000; stroke-width: 0.8"/>
      </g>
     </g>
     <g id="text_16">
      <!-- 15:00 -->
      <g transform="translate(697.262364 463.10284) rotate(-45) scale(0.1 -0.1)">
       <use xlink:href="#DejaVuSans-31"/>
       <use xlink:href="#DejaVuSans-35" x="63.623047"/>
       <use xlink:href="#DejaVuSans-3a" x="127.246094"/>
       <use xlink:href="#DejaVuSans-30" x="160.9375"/>
       <use xlink:href="#DejaVuSans-30" x="224.560547"/>
      </g>
     </g>
    </g>
    <g id="xtick_17">
     <g id="line2d_33">
      <path d="M 745.248775 430.352 
L 745.248775 27.24 
" clip-path="url(#p33c159c88a)" style="fill: none; stroke: #b0b0b0; stroke-width: 0.8; stroke-linecap: square"/>
     </g>
     <g id="line2d_34">
      <g>
       <use xlink:href="#md934c6832f" x="745.248775" y="430.352" style="stroke: #000000; stroke-width: 0.8"/>
      </g>
     </g>
     <g id="text_17">
      <!-- 16:00 -->
      <g transform="translate(737.010981 463.10284) rotate(-45) scale(0.1 -0.1)">
       <use xlink:href="#DejaVuSans-31"/>
       <use xlink:href="#DejaVuSans-36" x="63.623047"/>
       <use xlink:href="#DejaVuSans-3a" x="127.246094"/>
       <use xlink:href="#DejaVuSans-30" x="160.9375"/>
       <use xlink:href="#DejaVuSans-30" x="224.560547"/>
      </g>
     </g>
    </g>
    <g id="xtick_18">
     <g id="line2d_35">
      <path d="M 784.997391 430.352 
L 784.997391 27.24 
" clip-path="url(#p33c159c88a)" style="fill: none; stroke: #b0b0b0; stroke-width: 0.8; stroke-linecap: square"/>
     </g>
     <g id="line2d_36">
      <g>
       <use xlink:href="#md934c6832f" x="784.997391" y="430.352" style="stroke: #000000; stroke-width: 0.8"/>
      </g>
     </g>
     <g id="text_18">
      <!-- 17:00 -->
      <g transform="translate(776.759597 463.10284) rotate(-45) scale(0.1 -0.1)">
       <use xlink:href="#DejaVuSans-31"/>
       <use xlink:href="#DejaVuSans-37" x="63.623047"/>
       <use xlink:href="#DejaVuSans-3a" x="127.246094"/>
       <use xlink:href="#DejaVuSans-30" x="160.9375"/>
       <use xlink:href="#DejaVuSans-30" x="224.560547"/>
      </g>
     </g>
    </g>
    <g id="xtick_19">
     <g id="line2d_37">
      <path d="M 824.746008 430.352 
L 824.746008 27.24 
" clip-path="url(#p33c159c88a)" style="fill: none; stroke: #b0b0b0; stroke-width: 0.8; stroke-linecap: square"/>
     </g>
     <g id="line2d_38">
      <g>
       <use xlink:href="#md934c6832f" x="824.746008" y="430.352" style="stroke: #000000; stroke-width: 0.8"/>
      </g>
     </g>
     <g id="text_19">
      <!-- 18:00 -->
      <g transform="translate(816.508214 463.10284) rotate(-45) scale(0.1 -0.1)">
       <use xlink:href="#DejaVuSans-31"/>
       <use xlink:href="#DejaVuSans-38" x="63.623047"/>
       <use xlink:href="#DejaVuSans-3a" x="127.246094"/>
       <use xlink:href="#DejaVuSans-30" x="160.9375"/>
       <use xlink:href="#DejaVuSans-30" x="224.560547"/>
      </g>
     </g>
    </g>
    <g id="xtick_20">
     <g id="line2d_39">
      <path d="M 864.494625 430.352 
L 864.494625 27.24 
" clip-path="url(#p33c159c88a)" style="fill: none; stroke: #b0b0b0; stroke-width: 0.8; stroke-linecap: square"/>
     </g>
     <g id="line2d_40">
      <g>
       <use xlink:href="#md934c6832f" x="864.494625" y="430.352" style="stroke: #000000; stroke-width: 0.8"/>
      </g>
     </g>
     <g id="text_20">
      <!-- 19:00 -->
      <g transform="translate(856.256831 463.10284) rotate(-45) scale(0.1 -0.1)">
       <use xlink:href="#DejaVuSans-31"/>
       <use xlink:href="#DejaVuSans-39" x="63.623047"/>
       <use xlink:href="#DejaVuSans-3a" x="127.246094"/>
       <use xlink:href="#DejaVuSans-30" x="160.9375"/>
       <use xlink:href="#DejaVuSans-30" x="224.560547"/>
      </g>
     </g>
    </g>
    <g id="xtick_21">
     <g id="line2d_41">
      <path d="M 904.243241 430.352 
L 904.243241 27.24 
" clip-path="url(#p33c159c88a)" style="fill: none; stroke: #b0b0b0; stroke-width: 0.8; stroke-linecap: square"/>
     </g>
     <g id="line2d_42">
      <g>
       <use xlink:href="#md934c6832f" x="904.243241" y="430.352" style="stroke: #000000; stroke-width: 0.8"/>
      </g>
     </g>
     <g id="text_21">
      <!-- 20:00 -->
      <g transform="translate(896.005447 463.10284) rotate(-45) scale(0.1 -0.1)">
       <use xlink:href="#DejaVuSans-32"/>
       <use xlink:href="#DejaVuSans-30" x="63.623047"/>
       <use xlink:href="#DejaVuSans-3a" x="127.246094"/>
       <use xlink:href="#DejaVuSans-30" x="160.9375"/>
       <use xlink:href="#DejaVuSans-30" x="224.560547"/>
      </g>
     </g>
    </g>
    <g id="xtick_22">
     <g id="line2d_43">
      <path d="M 943.991858 430.352 
L 943.991858 27.24 
" clip-path="url(#p33c159c88a)" style="fill: none; stroke: #b0b0b0; stroke-width: 0.8; stroke-linecap: square"/>
     </g>
     <g id="line2d_44">
      <g>
       <use xlink:href="#md934c6832f" x="943.991858" y="430.352" style="stroke: #000000; stroke-width: 0.8"/>
      </g>
     </g>
     <g id="text_22">
      <!-- 21:00 -->
      <g transform="translate(935.754064 463.10284) rotate(-45) scale(0.1 -0.1)">
       <use xlink:href="#DejaVuSans-32"/>
       <use xlink:href="#DejaVuSans-31" x="63.623047"/>
       <use xlink:href="#DejaVuSans-3a" x="127.246094"/>
       <use xlink:href="#DejaVuSans-30" x="160.9375"/>
       <use xlink:href="#DejaVuSans-30" x="224.560547"/>
      </g>
     </g>
    </g>
    <g id="xtick_23">
     <g id="line2d_45">
      <path d="M 983.740474 430.352 
L 983.740474 27.24 
" clip-path="url(#p33c159c88a)" style="fill: none; stroke: #b0b0b0; stroke-width: 0.8; stroke-linecap: square"/>
     </g>
     <g id="line2d_46">
      <g>
       <use xlink:href="#md934c6832f" x="983.740474" y="430.352" style="stroke: #000000; stroke-width: 0.8"/>
      </g>
     </g>
     <g id="text_23">
      <!-- 22:00 -->
      <g transform="translate(975.50268 463.10284) rotate(-45) scale(0.1 -0.1)">
       <use xlink:href="#DejaVuSans-32"/>
       <use xlink:href="#DejaVuSans-32" x="63.623047"/>
       <use xlink:href="#DejaVuSans-3a" x="127.246094"/>
       <use xlink:href="#DejaVuSans-30" x="160.9375"/>
       <use xlink:href="#DejaVuSans-30" x="224.560547"/>
      </g>
     </g>
    </g>
    <g id="xtick_24">
     <g id="line2d_47">
      <path d="M 1023.489091 430.352 
L 1023.489091 27.24 
" clip-path="url(#p33c159c88a)" style="fill: none; stroke: #b0b0b0; stroke-width: 0.8; stroke-linecap: square"/>
     </g>
     <g id="line2d_48">
      <g>
       <use xlink:href="#md934c6832f" x="1023.489091" y="430.352" style="stroke: #000000; stroke-width: 0.8"/>
      </g>
     </g>
     <g id="text_24">
      <!-- 23:00 -->
      <g transform="translate(1015.251297 463.10284) rotate(-45) scale(0.1 -0.1)">
       <use xlink:href="#DejaVuSans-32"/>
       <use xlink:href="#DejaVuSans-33" x="63.623047"/>
       <use xlink:href="#DejaVuSans-3a" x="127.246094"/>
       <use xlink:href="#DejaVuSans-30" x="160.9375"/>
       <use xlink:href="#DejaVuSans-30" x="224.560547"/>
      </g>
     </g>
    </g>
    <g id="text_25">
     <!-- Hora -->
     <g transform="translate(554.440938 476.171839) scale(0.1 -0.1)">
      <defs>
       <path id="DejaVuSans-48" d="M 628 4666 
L 1259 4666 
L 1259 2753 
L 3553 2753 
L 3553 4666 
L 4184 4666 
L 4184 0 
L 3553 0 
L 3553 2222 
L 1259 2222 
L 1259 0 
L 628 0 
L 628 4666 
z
" transform="scale(0.015625)"/>
       <path id="DejaVuSans-6f" d="M 1959 3097 
Q 1497 3097 1228 2736 
Q 959 2375 959 1747 
Q 959 1119 1226 758 
Q 1494 397 1959 397 
Q 2419 397 2687 759 
Q 2956 1122 2956 1747 
Q 2956 2369 2687 2733 
Q 2419 3097 1959 3097 
z
M 1959 3584 
Q 2709 3584 3137 3096 
Q 3566 2609 3566 1747 
Q 3566 888 3137 398 
Q 2709 -91 1959 -91 
Q 1206 -91 779 398 
Q 353 888 353 1747 
Q 353 2609 779 3096 
Q 1206 3584 1959 3584 
z
" transform="scale(0.015625)"/>
       <path id="DejaVuSans-72" d="M 2631 2963 
Q 2534 3019 2420 3045 
Q 2306 3072 2169 3072 
Q 1681 3072 1420 2755 
Q 1159 2438 1159 1844 
L 1159 0 
L 581 0 
L 581 3500 
L 1159 3500 
L 1159 2956 
Q 1341 3275 1631 3429 
Q 1922 3584 2338 3584 
Q 2397 3584 2469 3576 
Q 2541 3569 2628 3553 
L 2631 2963 
z
" transform="scale(0.015625)"/>
       <path id="DejaVuSans-61" d="M 2194 1759 
Q 1497 1759 1228 1600 
Q 959 1441 959 1056 
Q 959 750 1161 570 
Q 1363 391 1709 391 
Q 2188 391 2477 730 
Q 2766 1069 2766 1631 
L 2766 1759 
L 2194 1759 
z
M 3341 1997 
L 3341 0 
L 2766 0 
L 2766 531 
Q 2569 213 2275 61 
Q 1981 -91 1556 -91 
Q 1019 -91 701 211 
Q 384 513 384 1019 
Q 384 1609 779 1909 
Q 1175 2209 1959 2209 
L 2766 2209 
L 2766 2266 
Q 2766 2663 2505 2880 
Q 2244 3097 1772 3097 
Q 1472 3097 1187 3025 
Q 903 2953 641 2809 
L 641 3341 
Q 956 3463 1253 3523 
Q 1550 3584 1831 3584 
Q 2591 3584 2966 3190 
Q 3341 2797 3341 1997 
z
" transform="scale(0.015625)"/>
      </defs>
      <use xlink:href="#DejaVuSans-48"/>
      <use xlink:href="#DejaVuSans-6f" x="75.195312"/>
      <use xlink:href="#DejaVuSans-72" x="136.376953"/>
      <use xlink:href="#DejaVuSans-61" x="177.490234"/>
     </g>
    </g>
   </g>
   <g id="matplotlib.axis_2">
    <g id="ytick_1">
     <g id="line2d_49">
      <path d="M 63.56 359.863517 
L 1069.2 359.863517 
" clip-path="url(#p33c159c88a)" style="fill: none; stroke: #b0b0b0; stroke-width: 0.8; stroke-linecap: square"/>
     </g>
     <g id="line2d_50">
      <defs>
       <path id="m50ad4900ee" d="M 0 0 
L -3.5 0 
" style="stroke: #000000; stroke-width: 0.8"/>
      </defs>
      <g>
       <use xlink:href="#m50ad4900ee" x="63.56" y="359.863517" style="stroke: #000000; stroke-width: 0.8"/>
      </g>
     </g>
     <g id="text_26">
      <!-- 12000 -->
      <g transform="translate(24.7475 363.662735) scale(0.1 -0.1)">
       <use xlink:href="#DejaVuSans-31"/>
       <use xlink:href="#DejaVuSans-32" x="63.623047"/>
       <use xlink:href="#DejaVuSans-30" x="127.246094"/>
       <use xlink:href="#DejaVuSans-30" x="190.869141"/>
       <use xlink:href="#DejaVuSans-30" x="254.492188"/>
      </g>
     </g>
    </g>
    <g id="ytick_2">
     <g id="line2d_51">
      <path d="M 63.56 284.725835 
L 1069.2 284.725835 
" clip-path="url(#p33c159c88a)" style="fill: none; stroke: #b0b0b0; stroke-width: 0.8; stroke-linecap: square"/>
     </g>
     <g id="line2d_52">
      <g>
       <use xlink:href="#m50ad4900ee" x="63.56" y="284.725835" style="stroke: #000000; stroke-width: 0.8"/>
      </g>
     </g>
     <g id="text_27">
      <!-- 14000 -->
      <g transform="translate(24.7475 288.525054) scale(0.1 -0.1)">
       <use xlink:href="#DejaVuSans-31"/>
       <use xlink:href="#DejaVuSans-34" x="63.623047"/>
       <use xlink:href="#DejaVuSans-30" x="127.246094"/>
       <use xlink:href="#DejaVuSans-30" x="190.869141"/>
       <use xlink:href="#DejaVuSans-30" x="254.492188"/>
      </g>
     </g>
    </g>
    <g id="ytick_3">
     <g id="line2d_53">
      <path d="M 63.56 209.588153 
L 1069.2 209.588153 
" clip-path="url(#p33c159c88a)" style="fill: none; stroke: #b0b0b0; stroke-width: 0.8; stroke-linecap: square"/>
     </g>
     <g id="line2d_54">
      <g>
       <use xlink:href="#m50ad4900ee" x="63.56" y="209.588153" style="stroke: #000000; stroke-width: 0.8"/>
      </g>
     </g>
     <g id="text_28">
      <!-- 16000 -->
      <g transform="translate(24.7475 213.387372) scale(0.1 -0.1)">
       <use xlink:href="#DejaVuSans-31"/>
       <use xlink:href="#DejaVuSans-36" x="63.623047"/>
       <use xlink:href="#DejaVuSans-30" x="127.246094"/>
       <use xlink:href="#DejaVuSans-30" x="190.869141"/>
       <use xlink:href="#DejaVuSans-30" x="254.492188"/>
      </g>
     </g>
    </g>
    <g id="ytick_4">
     <g id="line2d_55">
      <path d="M 63.56 134.450471 
L 1069.2 134.450471 
" clip-path="url(#p33c159c88a)" style="fill: none; stroke: #b0b0b0; stroke-width: 0.8; stroke-linecap: square"/>
     </g>
     <g id="line2d_56">
      <g>
       <use xlink:href="#m50ad4900ee" x="63.56" y="134.450471" style="stroke: #000000; stroke-width: 0.8"/>
      </g>
     </g>
     <g id="text_29">
      <!-- 18000 -->
      <g transform="translate(24.7475 138.24969) scale(0.1 -0.1)">
       <use xlink:href="#DejaVuSans-31"/>
       <use xlink:href="#DejaVuSans-38" x="63.623047"/>
       <use xlink:href="#DejaVuSans-30" x="127.246094"/>
       <use xlink:href="#DejaVuSans-30" x="190.869141"/>
       <use xlink:href="#DejaVuSans-30" x="254.492188"/>
      </g>
     </g>
    </g>
    <g id="ytick_5">
     <g id="line2d_57">
      <path d="M 63.56 59.312789 
L 1069.2 59.312789 
" clip-path="url(#p33c159c88a)" style="fill: none; stroke: #b0b0b0; stroke-width: 0.8; stroke-linecap: square"/>
     </g>
     <g id="line2d_58">
      <g>
       <use xlink:href="#m50ad4900ee" x="63.56" y="59.312789" style="stroke: #000000; stroke-width: 0.8"/>
      </g>
     </g>
     <g id="text_30">
      <!-- 20000 -->
      <g transform="translate(24.7475 63.112008) scale(0.1 -0.1)">
       <use xlink:href="#DejaVuSans-32"/>
       <use xlink:href="#DejaVuSans-30" x="63.623047"/>
       <use xlink:href="#DejaVuSans-30" x="127.246094"/>
       <use xlink:href="#DejaVuSans-30" x="190.869141"/>
       <use xlink:href="#DejaVuSans-30" x="254.492188"/>
      </g>
     </g>
    </g>
    <g id="text_31">
     <!-- Energia Ativa (kWh) -->
     <g transform="translate(18.667812 278.588969) rotate(-90) scale(0.1 -0.1)">
      <defs>
       <path id="DejaVuSans-45" d="M 628 4666 
L 3578 4666 
L 3578 4134 
L 1259 4134 
L 1259 2753 
L 3481 2753 
L 3481 2222 
L 1259 2222 
L 1259 531 
L 3634 531 
L 3634 0 
L 628 0 
L 628 4666 
z
" transform="scale(0.015625)"/>
       <path id="DejaVuSans-6e" d="M 3513 2113 
L 3513 0 
L 2938 0 
L 2938 2094 
Q 2938 2591 2744 2837 
Q 2550 3084 2163 3084 
Q 1697 3084 1428 2787 
Q 1159 2491 1159 1978 
L 1159 0 
L 581 0 
L 581 3500 
L 1159 3500 
L 1159 2956 
Q 1366 3272 1645 3428 
Q 1925 3584 2291 3584 
Q 2894 3584 3203 3211 
Q 3513 2838 3513 2113 
z
" transform="scale(0.015625)"/>
       <path id="DejaVuSans-65" d="M 3597 1894 
L 3597 1613 
L 953 1613 
Q 991 1019 1311 708 
Q 1631 397 2203 397 
Q 2534 397 2845 478 
Q 3156 559 3463 722 
L 3463 178 
Q 3153 47 2828 -22 
Q 2503 -91 2169 -91 
Q 1331 -91 842 396 
Q 353 884 353 1716 
Q 353 2575 817 3079 
Q 1281 3584 2069 3584 
Q 2775 3584 3186 3129 
Q 3597 2675 3597 1894 
z
M 3022 2063 
Q 3016 2534 2758 2815 
Q 2500 3097 2075 3097 
Q 1594 3097 1305 2825 
Q 1016 2553 972 2059 
L 3022 2063 
z
" transform="scale(0.015625)"/>
       <path id="DejaVuSans-67" d="M 2906 1791 
Q 2906 2416 2648 2759 
Q 2391 3103 1925 3103 
Q 1463 3103 1205 2759 
Q 947 2416 947 1791 
Q 947 1169 1205 825 
Q 1463 481 1925 481 
Q 2391 481 2648 825 
Q 2906 1169 2906 1791 
z
M 3481 434 
Q 3481 -459 3084 -895 
Q 2688 -1331 1869 -1331 
Q 1566 -1331 1297 -1286 
Q 1028 -1241 775 -1147 
L 775 -588 
Q 1028 -725 1275 -790 
Q 1522 -856 1778 -856 
Q 2344 -856 2625 -561 
Q 2906 -266 2906 331 
L 2906 616 
Q 2728 306 2450 153 
Q 2172 0 1784 0 
Q 1141 0 747 490 
Q 353 981 353 1791 
Q 353 2603 747 3093 
Q 1141 3584 1784 3584 
Q 2172 3584 2450 3431 
Q 2728 3278 2906 2969 
L 2906 3500 
L 3481 3500 
L 3481 434 
z
" transform="scale(0.015625)"/>
       <path id="DejaVuSans-69" d="M 603 3500 
L 1178 3500 
L 1178 0 
L 603 0 
L 603 3500 
z
M 603 4863 
L 1178 4863 
L 1178 4134 
L 603 4134 
L 603 4863 
z
" transform="scale(0.015625)"/>
       <path id="DejaVuSans-20" transform="scale(0.015625)"/>
       <path id="DejaVuSans-41" d="M 2188 4044 
L 1331 1722 
L 3047 1722 
L 2188 4044 
z
M 1831 4666 
L 2547 4666 
L 4325 0 
L 3669 0 
L 3244 1197 
L 1141 1197 
L 716 0 
L 50 0 
L 1831 4666 
z
" transform="scale(0.015625)"/>
       <path id="DejaVuSans-74" d="M 1172 4494 
L 1172 3500 
L 2356 3500 
L 2356 3053 
L 1172 3053 
L 1172 1153 
Q 1172 725 1289 603 
Q 1406 481 1766 481 
L 2356 481 
L 2356 0 
L 1766 0 
Q 1100 0 847 248 
Q 594 497 594 1153 
L 594 3053 
L 172 3053 
L 172 3500 
L 594 3500 
L 594 4494 
L 1172 4494 
z
" transform="scale(0.015625)"/>
       <path id="DejaVuSans-76" d="M 191 3500 
L 800 3500 
L 1894 563 
L 2988 3500 
L 3597 3500 
L 2284 0 
L 1503 0 
L 191 3500 
z
" transform="scale(0.015625)"/>
       <path id="DejaVuSans-28" d="M 1984 4856 
Q 1566 4138 1362 3434 
Q 1159 2731 1159 2009 
Q 1159 1288 1364 580 
Q 1569 -128 1984 -844 
L 1484 -844 
Q 1016 -109 783 600 
Q 550 1309 550 2009 
Q 550 2706 781 3412 
Q 1013 4119 1484 4856 
L 1984 4856 
z
" transform="scale(0.015625)"/>
       <path id="DejaVuSans-6b" d="M 581 4863 
L 1159 4863 
L 1159 1991 
L 2875 3500 
L 3609 3500 
L 1753 1863 
L 3688 0 
L 2938 0 
L 1159 1709 
L 1159 0 
L 581 0 
L 581 4863 
z
" transform="scale(0.015625)"/>
       <path id="DejaVuSans-57" d="M 213 4666 
L 850 4666 
L 1831 722 
L 2809 4666 
L 3519 4666 
L 4500 722 
L 5478 4666 
L 6119 4666 
L 4947 0 
L 4153 0 
L 3169 4050 
L 2175 0 
L 1381 0 
L 213 4666 
z
" transform="scale(0.015625)"/>
       <path id="DejaVuSans-68" d="M 3513 2113 
L 3513 0 
L 2938 0 
L 2938 2094 
Q 2938 2591 2744 2837 
Q 2550 3084 2163 3084 
Q 1697 3084 1428 2787 
Q 1159 2491 1159 1978 
L 1159 0 
L 581 0 
L 581 4863 
L 1159 4863 
L 1159 2956 
Q 1366 3272 1645 3428 
Q 1925 3584 2291 3584 
Q 2894 3584 3203 3211 
Q 3513 2838 3513 2113 
z
" transform="scale(0.015625)"/>
       <path id="DejaVuSans-29" d="M 513 4856 
L 1013 4856 
Q 1481 4119 1714 3412 
Q 1947 2706 1947 2009 
Q 1947 1309 1714 600 
Q 1481 -109 1013 -844 
L 513 -844 
Q 928 -128 1133 580 
Q 1338 1288 1338 2009 
Q 1338 2731 1133 3434 
Q 928 4138 513 4856 
z
" transform="scale(0.015625)"/>
      </defs>
      <use xlink:href="#DejaVuSans-45"/>
      <use xlink:href="#DejaVuSans-6e" x="63.183594"/>
      <use xlink:href="#DejaVuSans-65" x="126.5625"/>
      <use xlink:href="#DejaVuSans-72" x="188.085938"/>
      <use xlink:href="#DejaVuSans-67" x="227.449219"/>
      <use xlink:href="#DejaVuSans-69" x="290.925781"/>
      <use xlink:href="#DejaVuSans-61" x="318.708984"/>
      <use xlink:href="#DejaVuSans-20" x="379.988281"/>
      <use xlink:href="#DejaVuSans-41" x="411.775391"/>
      <use xlink:href="#DejaVuSans-74" x="478.433594"/>
      <use xlink:href="#DejaVuSans-69" x="517.642578"/>
      <use xlink:href="#DejaVuSans-76" x="545.425781"/>
      <use xlink:href="#DejaVuSans-61" x="604.605469"/>
      <use xlink:href="#DejaVuSans-20" x="665.884766"/>
      <use xlink:href="#DejaVuSans-28" x="697.671875"/>
      <use xlink:href="#DejaVuSans-6b" x="736.685547"/>
      <use xlink:href="#DejaVuSans-57" x="794.595703"/>
      <use xlink:href="#DejaVuSans-68" x="893.472656"/>
      <use xlink:href="#DejaVuSans-29" x="956.851562"/>
     </g>
    </g>
   </g>
   <g id="line2d_59">
    <path d="M 109.270909 310.232964 
L 149.019526 348.415111 
L 188.768142 374.456089 
L 228.516759 392.894186 
L 268.265375 403.024893 
L 308.013992 394.657131 
L 347.762609 365.140696 
L 387.511225 327.563721 
L 427.259842 247.664633 
L 467.008458 180.866336 
L 506.757075 133.308032 
L 546.505692 117.146809 
L 586.254308 98.296653 
L 626.002925 98.836115 
L 665.751542 105.699499 
L 705.500158 105.659202 
L 745.248775 114.934164 
L 784.997391 127.907456 
L 824.746008 139.548644 
L 864.494625 133.171821 
L 904.243241 123.132081 
L 943.991858 137.027589 
L 983.740474 179.899325 
L 1023.489091 251.314201 
" clip-path="url(#p33c159c88a)" style="fill: none; stroke: #1f77b4; stroke-width: 1.5; stroke-linecap: square"/>
   </g>
   <g id="line2d_60">
    <path d="M 109.270909 305.589239 
L 149.019526 347.276575 
L 188.768142 371.080648 
L 228.516759 379.278561 
L 268.265375 392.498709 
L 308.013992 385.102627 
L 347.762609 357.252136 
L 387.511225 309.053155 
L 427.259842 227.114422 
L 467.008458 160.575644 
L 506.757075 115.659665 
L 546.505692 87.498645 
L 586.254308 87.883739 
L 626.002925 89.593818 
L 665.751542 92.562934 
L 705.500158 110.503245 
L 745.248775 119.966948 
L 784.997391 129.526078 
L 824.746008 125.828015 
L 864.494625 118.378018 
L 904.243241 123.520477 
L 943.991858 138.176371 
L 983.740474 185.898857 
L 1023.489091 261.216965 
" clip-path="url(#p33c159c88a)" style="fill: none; stroke: #ff7f0e; stroke-width: 1.5; stroke-linecap: square"/>
   </g>
   <g id="line2d_61">
    <path d="M 109.270909 313.320634 
L 149.019526 355.524338 
L 188.768142 381.199933 
L 228.516759 391.048629 
L 268.265375 398.602844 
L 308.013992 388.050661 
L 347.762609 368.049395 
L 387.511225 325.828997 
L 427.259842 255.807215 
L 467.008458 192.191537 
L 506.757075 176.108613 
L 546.505692 160.680899 
L 586.254308 150.68125 
L 626.002925 148.976983 
L 665.751542 160.308623 
L 705.500158 176.54066 
L 745.248775 189.237207 
L 784.997391 188.19493 
L 824.746008 183.982791 
L 864.494625 171.31632 
L 904.243241 163.718615 
L 943.991858 175.818799 
L 983.740474 210.509332 
L 1023.489091 269.359545 
" clip-path="url(#p33c159c88a)" style="fill: none; stroke: #2ca02c; stroke-width: 1.5; stroke-linecap: square"/>
   </g>
   <g id="line2d_62">
    <path d="M 109.270909 331.534959 
L 149.019526 366.375852 
L 188.768142 393.787726 
L 228.516759 402.602706 
L 268.265375 412.028727 
L 308.013992 402.464146 
L 347.762609 384.365928 
L 387.511225 337.777754 
L 427.259842 266.622972 
L 467.008458 201.275964 
L 506.757075 159.422639 
L 546.505692 143.151132 
L 586.254308 134.338134 
L 626.002925 141.525532 
L 665.751542 144.500795 
L 705.500158 155.477094 
L 745.248775 167.52247 
L 784.997391 178.753609 
L 824.746008 176.605925 
L 864.494625 164.933969 
L 904.243241 158.897781 
L 943.991858 164.443598 
L 983.740474 200.681279 
L 1023.489091 261.274861 
" clip-path="url(#p33c159c88a)" style="fill: none; stroke: #d62728; stroke-width: 1.5; stroke-linecap: square"/>
   </g>
   <g id="line2d_63">
    <path d="M 109.270909 311.714904 
L 149.019526 351.245994 
L 188.768142 378.416759 
L 228.516759 389.033016 
L 268.265375 397.578391 
L 308.013992 388.297122 
L 347.762609 373.010286 
L 387.511225 348.58459 
L 427.259842 296.597177 
L 467.008458 235.297703 
L 506.757075 183.520981 
L 546.505692 171.437972 
L 586.254308 158.451211 
L 626.002925 152.351495 
L 665.751542 152.02324 
L 705.500158 154.672547 
L 745.248775 168.661631 
L 784.997391 176.016017 
L 824.746008 169.64433 
L 864.494625 151.542926 
L 904.243241 151.594536 
L 943.991858 150.249738 
L 983.740474 186.974994 
L 1023.489091 246.813605 
" clip-path="url(#p33c159c88a)" style="fill: none; stroke: #9467bd; stroke-width: 1.5; stroke-linecap: square"/>
   </g>
   <g id="line2d_64">
    <path d="M 109.270909 309.151114 
L 149.019526 346.422986 
L 188.768142 366.438993 
L 228.516759 377.506935 
L 268.265375 386.496436 
L 308.013992 382.732716 
L 347.762609 370.523238 
L 387.511225 358.62578 
L 427.259842 305.796089 
L 467.008458 257.644554 
L 506.757075 212.64361 
L 546.505692 191.152154 
L 586.254308 145.67183 
L 626.002925 142.367192 
L 665.751542 147.43259 
L 705.500158 152.996078 
L 745.248775 164.437881 
L 784.997391 156.599378 
L 824.746008 141.003096 
L 864.494625 117.338108 
L 904.243241 107.526388 
L 943.991858 109.794076 
L 983.740474 146.49303 
L 1023.489091 205.173852 
" clip-path="url(#p33c159c88a)" style="fill: none; stroke: #8c564b; stroke-width: 1.5; stroke-linecap: square"/>
   </g>
   <g id="line2d_65">
    <path d="M 109.270909 274.659331 
L 149.019526 318.002293 
L 188.768142 343.583185 
L 228.516759 354.101052 
L 268.265375 367.696617 
L 308.013992 369.173679 
L 347.762609 341.226544 
L 387.511225 300.815423 
L 427.259842 221.863136 
L 467.008458 141.10653 
L 506.757075 92.771337 
L 546.505692 73.922168 
L 586.254308 56.687557 
L 626.002925 49.732408 
L 665.751542 45.563273 
L 705.500158 56.745459 
L 745.248775 65.663605 
L 784.997391 79.78115 
L 824.746008 91.474132 
L 864.494625 85.856591 
L 904.243241 86.670447 
L 943.991858 101.600148 
L 983.740474 141.548226 
L 1023.489091 208.379285 
" clip-path="url(#p33c159c88a)" style="fill: none; stroke: #e377c2; stroke-width: 1.5; stroke-linecap: square"/>
   </g>
   <g id="line2d_66">
    <path d="M 109.270909 273.372567 
L 149.019526 321.494823 
L 188.768142 347.866379 
L 228.516759 356.093008 
L 268.265375 365.276937 
L 308.013992 360.365276 
L 347.762609 333.713364 
L 387.511225 294.893534 
L 427.259842 218.542824 
L 467.008458 135.445601 
L 506.757075 104.149279 
L 546.505692 90.147597 
L 586.254308 77.549188 
L 626.002925 81.993592 
L 665.751542 100.358323 
L 705.500158 101.137486 
L 745.248775 114.297236 
L 784.997391 116.279289 
L 824.746008 117.735634 
L 864.494625 110.85671 
L 904.243241 105.149191 
L 943.991858 120.345168 
L 983.740474 163.920272 
L 1023.489091 233.180325 
" clip-path="url(#p33c159c88a)" style="fill: none; stroke: #7f7f7f; stroke-width: 1.5; stroke-linecap: square"/>
   </g>
   <g id="line2d_67">
    <path d="M 109.270909 291.806121 
L 149.019526 333.589231 
L 188.768142 362.131432 
L 228.516759 367.676407 
L 268.265375 375.004473 
L 308.013992 370.316093 
L 347.762609 344.697335 
L 387.511225 305.099589 
L 427.259842 219.173304 
L 467.008458 150.083214 
L 506.757075 107.86725 
L 546.505692 97.00184 
L 586.254308 83.373505 
L 626.002925 88.424353 
L 665.751542 92.535958 
L 705.500158 101.590174 
L 745.248775 118.845895 
L 784.997391 123.935032 
L 824.746008 114.86374 
L 864.494625 107.176211 
L 904.243241 100.458122 
L 943.991858 114.821585 
L 983.740474 165.392742 
L 1023.489091 257.158114 
" clip-path="url(#p33c159c88a)" style="fill: none; stroke: #bcbd22; stroke-width: 1.5; stroke-linecap: square"/>
   </g>
   <g id="line2d_68">
    <path d="M 109.270909 312.564746 
L 149.019526 340.383569 
L 188.768142 365.100448 
L 228.516759 370.382823 
L 268.265375 379.908996 
L 308.013992 377.343468 
L 347.762609 352.254693 
L 387.511225 318.30963 
L 427.259842 236.194377 
L 467.008458 160.110183 
L 506.757075 106.813947 
L 546.505692 92.546343 
L 586.254308 81.820806 
L 626.002925 82.867932 
L 665.751542 87.733181 
L 705.500158 94.660493 
L 745.248775 104.598195 
L 784.997391 119.208024 
L 824.746008 121.141684 
L 864.494625 108.760241 
L 904.243241 105.45044 
L 943.991858 118.734998 
L 983.740474 159.378023 
L 1023.489091 230.41026 
" clip-path="url(#p33c159c88a)" style="fill: none; stroke: #17becf; stroke-width: 1.5; stroke-linecap: square"/>
   </g>
   <g id="line2d_69">
    <path d="M 109.270909 290.569868 
L 149.019526 332.254345 
L 188.768142 358.659983 
L 228.516759 367.568869 
L 268.265375 377.742518 
L 308.013992 371.795805 
L 347.762609 349.141413 
L 387.511225 311.412973 
L 427.259842 233.097581 
L 467.008458 163.669951 
L 506.757075 119.232614 
L 546.505692 92.8003 
L 586.254308 75.763772 
L 626.002925 76.896434 
L 665.751542 67.466529 
L 705.500158 71.405911 
L 745.248775 75.089457 
L 784.997391 87.33949 
L 824.746008 92.835661 
L 864.494625 87.892605 
L 904.243241 90.989966 
L 943.991858 110.990497 
L 983.740474 155.660016 
L 1023.489091 221.678856 
" clip-path="url(#p33c159c88a)" style="fill: none; stroke: #1f77b4; stroke-width: 1.5; stroke-linecap: square"/>
   </g>
   <g id="line2d_70">
    <path d="M 109.270909 279.162787 
L 149.019526 322.000873 
L 188.768142 345.419239 
L 228.516759 354.180551 
L 268.265375 367.001018 
L 308.013992 365.158775 
L 347.762609 349.477219 
L 387.511225 328.377874 
L 427.259842 274.516162 
L 467.008458 212.79139 
L 506.757075 162.391226 
L 546.505692 138.632895 
L 586.254308 119.86976 
L 626.002925 118.352702 
L 665.751542 130.065766 
L 705.500158 146.238824 
L 745.248775 163.58021 
L 784.997391 169.520419 
L 824.746008 166.546412 
L 864.494625 146.411781 
L 904.243241 134.547697 
L 943.991858 146.322162 
L 983.740474 193.238809 
L 1023.489091 256.225326 
" clip-path="url(#p33c159c88a)" style="fill: none; stroke: #ff7f0e; stroke-width: 1.5; stroke-linecap: square"/>
   </g>
   <g id="line2d_71">
    <path d="M 109.270909 306.837613 
L 149.019526 340.327412 
L 188.768142 367.652228 
L 228.516759 376.696773 
L 268.265375 387.310716 
L 308.013992 382.7665 
L 347.762609 368.029521 
L 387.511225 350.466268 
L 427.259842 315.965018 
L 467.008458 262.978535 
L 506.757075 221.658831 
L 546.505692 199.773457 
L 586.254308 178.063242 
L 626.002925 182.809393 
L 665.751542 204.963395 
L 705.500158 209.811746 
L 745.248775 222.631674 
L 784.997391 223.677861 
L 824.746008 212.882695 
L 864.494625 177.659963 
L 904.243241 159.781375 
L 943.991858 168.781454 
L 983.740474 205.2173 
L 1023.489091 267.937584 
" clip-path="url(#p33c159c88a)" style="fill: none; stroke: #2ca02c; stroke-width: 1.5; stroke-linecap: square"/>
   </g>
   <g id="line2d_72">
    <path d="M 109.270909 323.280761 
L 149.019526 357.394408 
L 188.768142 378.378577 
L 228.516759 387.953133 
L 268.265375 400.5162 
L 308.013992 392.674764 
L 347.762609 371.330221 
L 387.511225 333.113121 
L 427.259842 254.725047 
L 467.008458 197.476652 
L 506.757075 159.112504 
L 546.505692 142.675031 
L 586.254308 130.273611 
L 626.002925 126.809137 
L 665.751542 141.643556 
L 705.500158 145.656225 
L 745.248775 160.066802 
L 784.997391 166.108174 
L 824.746008 165.710929 
L 864.494625 153.561656 
L 904.243241 149.876347 
L 943.991858 162.586212 
L 983.740474 200.292104 
L 1023.489091 263.386445 
" clip-path="url(#p33c159c88a)" style="fill: none; stroke: #d62728; stroke-width: 1.5; stroke-linecap: square"/>
   </g>
   <g id="line2d_73">
    <path d="M 109.270909 313.876289 
L 149.019526 354.481047 
L 188.768142 377.174299 
L 228.516759 385.274204 
L 268.265375 395.904125 
L 308.013992 387.238995 
L 347.762609 369.633545 
L 387.511225 348.897603 
L 427.259842 295.372955 
L 467.008458 233.032888 
L 506.757075 201.422361 
L 546.505692 178.692796 
L 586.254308 160.572781 
L 626.002925 157.573364 
L 665.751542 170.315753 
L 705.500158 183.208155 
L 745.248775 198.387008 
L 784.997391 202.423433 
L 824.746008 195.768951 
L 864.494625 166.693157 
L 904.243241 149.008526 
L 943.991858 159.692884 
L 983.740474 201.394213 
L 1023.489091 261.838527 
" clip-path="url(#p33c159c88a)" style="fill: none; stroke: #9467bd; stroke-width: 1.5; stroke-linecap: square"/>
   </g>
   <g id="line2d_74">
    <path d="M 109.270909 317.975433 
L 149.019526 353.778309 
L 188.768142 376.268142 
L 228.516759 386.778341 
L 268.265375 395.114046 
L 308.013992 388.360838 
L 347.762609 367.917695 
L 387.511225 330.52916 
L 427.259842 248.73006 
L 467.008458 185.253922 
L 506.757075 143.560467 
L 546.505692 129.673258 
L 586.254308 122.495884 
L 626.002925 125.778159 
L 665.751542 132.87151 
L 705.500158 139.630762 
L 745.248775 148.048494 
L 784.997391 158.996888 
L 824.746008 158.805364 
L 864.494625 142.753958 
L 904.243241 130.442406 
L 943.991858 145.014026 
L 983.740474 186.987176 
L 1023.489091 256.016652 
" clip-path="url(#p33c159c88a)" style="fill: none; stroke: #8c564b; stroke-width: 1.5; stroke-linecap: square"/>
   </g>
   <g id="line2d_75">
    <path d="M 109.270909 309.708924 
L 149.019526 349.544582 
L 188.768142 370.78875 
L 228.516759 382.508095 
L 268.265375 396.610899 
L 308.013992 388.389475 
L 347.762609 370.042188 
L 387.511225 326.374067 
L 427.259842 248.174016 
L 467.008458 177.31569 
L 506.757075 137.255601 
L 546.505692 120.336429 
L 586.254308 105.920831 
L 626.002925 113.452439 
L 665.751542 116.689446 
L 705.500158 122.259778 
L 745.248775 129.127517 
L 784.997391 149.159319 
L 824.746008 135.459574 
L 864.494625 125.903403 
L 904.243241 117.805758 
L 943.991858 132.964344 
L 983.740474 174.434101 
L 1023.489091 241.055879 
" clip-path="url(#p33c159c88a)" style="fill: none; stroke: #e377c2; stroke-width: 1.5; stroke-linecap: square"/>
   </g>
   <g id="line2d_76">
    <path d="M 109.270909 301.402867 
L 149.019526 342.633926 
L 188.768142 369.33871 
L 228.516759 376.731798 
L 268.265375 386.31669 
L 308.013992 378.543672 
L 347.762609 358.409185 
L 387.511225 315.057272 
L 427.259842 237.661485 
L 467.008458 174.02798 
L 506.757075 133.322675 
L 546.505692 123.491291 
L 586.254308 117.01972 
L 626.002925 115.153141 
L 665.751542 117.26991 
L 705.500158 122.246349 
L 745.248775 139.823089 
L 784.997391 146.638551 
L 824.746008 145.030767 
L 864.494625 121.789726 
L 904.243241 115.292793 
L 943.991858 133.16366 
L 983.740474 172.450552 
L 1023.489091 239.091916 
" clip-path="url(#p33c159c88a)" style="fill: none; stroke: #7f7f7f; stroke-width: 1.5; stroke-linecap: square"/>
   </g>
   <g id="line2d_77">
    <path d="M 109.270909 296.697144 
L 149.019526 334.794373 
L 188.768142 363.021175 
L 228.516759 366.747511 
L 268.265375 376.661726 
L 308.013992 369.869069 
L 347.762609 358.301584 
L 387.511225 335.063678 
L 427.259842 278.289639 
L 467.008458 210.765932 
L 506.757075 169.948158 
L 546.505692 155.399644 
L 586.254308 138.928182 
L 626.002925 140.998711 
L 665.751542 151.329162 
L 705.500158 159.155373 
L 745.248775 172.582621 
L 784.997391 176.792497 
L 824.746008 165.549718 
L 864.494625 142.956644 
L 904.243241 118.960902 
L 943.991858 133.605119 
L 983.740474 178.349566 
L 1023.489091 235.852388 
" clip-path="url(#p33c159c88a)" style="fill: none; stroke: #bcbd22; stroke-width: 1.5; stroke-linecap: square"/>
   </g>
   <g id="line2d_78">
    <path d="M 109.270909 290.719033 
L 149.019526 330.271149 
L 188.768142 357.653718 
L 228.516759 365.045486 
L 268.265375 380.019333 
L 308.013992 380.826059 
L 347.762609 372.942832 
L 387.511225 350.347739 
L 427.259842 305.245622 
L 467.008458 250.200121 
L 506.757075 205.032248 
L 546.505692 179.599355 
L 586.254308 158.488011 
L 626.002925 153.741173 
L 665.751542 169.1859 
L 705.500158 179.143339 
L 745.248775 196.156969 
L 784.997391 194.245024 
L 824.746008 176.629279 
L 864.494625 159.339652 
L 904.243241 138.490366 
L 943.991858 150.241871 
L 983.740474 186.049255 
L 1023.489091 246.480885 
" clip-path="url(#p33c159c88a)" style="fill: none; stroke: #17becf; stroke-width: 1.5; stroke-linecap: square"/>
   </g>
   <g id="line2d_79">
    <path d="M 109.270909 304.660176 
L 149.019526 342.05644 
L 188.768142 365.08932 
L 228.516759 377.199074 
L 268.265375 384.695215 
L 308.013992 377.274389 
L 347.762609 356.259542 
L 387.511225 321.878514 
L 427.259842 240.522774 
L 467.008458 161.644383 
L 506.757075 120.408243 
L 546.505692 98.395413 
L 586.254308 79.171923 
L 626.002925 67.046481 
L 665.751542 61.947407 
L 705.500158 58.075104 
L 745.248775 60.677262 
L 784.997391 69.670461 
L 824.746008 82.398866 
L 864.494625 83.624475 
L 904.243241 74.470131 
L 943.991858 94.867814 
L 983.740474 148.108874 
L 1023.489091 217.546269 
" clip-path="url(#p33c159c88a)" style="fill: none; stroke: #1f77b4; stroke-width: 1.5; stroke-linecap: square"/>
   </g>
   <g id="line2d_80">
    <path d="M 109.270909 280.88803 
L 149.019526 315.240603 
L 188.768142 341.11226 
L 228.516759 352.756967 
L 268.265375 364.301788 
L 308.013992 360.898611 
L 347.762609 339.778896 
L 387.511225 308.566861 
L 427.259842 228.411362 
L 467.008458 152.756381 
L 506.757075 106.837835 
L 546.505692 83.308742 
L 586.254308 69.530412 
L 626.002925 72.984028 
L 665.751542 72.77861 
L 705.500158 76.715057 
L 745.248775 93.393561 
L 784.997391 100.31011 
L 824.746008 91.534115 
L 864.494625 84.913934 
L 904.243241 76.556751 
L 943.991858 97.88534 
L 983.740474 145.294124 
L 1023.489091 213.443058 
" clip-path="url(#p33c159c88a)" style="fill: none; stroke: #ff7f0e; stroke-width: 1.5; stroke-linecap: square"/>
   </g>
   <g id="line2d_81">
    <path d="M 109.270909 273.892261 
L 149.019526 315.348109 
L 188.768142 339.391194 
L 228.516759 347.617992 
L 268.265375 362.567344 
L 308.013992 357.043494 
L 347.762609 333.610179 
L 387.511225 296.794908 
L 427.259842 219.062513 
L 467.008458 146.258397 
L 506.757075 107.796427 
L 546.505692 79.502484 
L 586.254308 54.790759 
L 626.002925 56.497288 
L 665.751542 57.592178 
L 705.500158 55.369548 
L 745.248775 64.957112 
L 784.997391 94.671929 
L 824.746008 89.938424 
L 864.494625 75.239174 
L 904.243241 70.939041 
L 943.991858 92.900368 
L 983.740474 144.294272 
L 1023.489091 212.505621 
" clip-path="url(#p33c159c88a)" style="fill: none; stroke: #2ca02c; stroke-width: 1.5; stroke-linecap: square"/>
   </g>
   <g id="line2d_82">
    <path d="M 109.270909 280.377473 
L 149.019526 324.143569 
L 188.768142 344.02478 
L 228.516759 353.240546 
L 268.265375 367.481703 
L 308.013992 360.474997 
L 347.762609 339.174904 
L 387.511225 307.01044 
L 427.259842 234.510712 
L 467.008458 159.516692 
L 506.757075 110.024025 
L 546.505692 89.565822 
L 586.254308 68.560918 
L 626.002925 60.071971 
L 665.751542 53.26924 
L 705.500158 52.579755 
L 745.248775 67.757886 
L 784.997391 78.400485 
L 824.746008 87.41678 
L 864.494625 90.120303 
L 904.243241 84.377613 
L 943.991858 113.108122 
L 983.740474 158.887025 
L 1023.489091 223.596909 
" clip-path="url(#p33c159c88a)" style="fill: none; stroke: #d62728; stroke-width: 1.5; stroke-linecap: square"/>
   </g>
   <g id="line2d_83">
    <path d="M 109.270909 271.832273 
L 149.019526 315.065715 
L 188.768142 341.548632 
L 228.516759 347.190644 
L 268.265375 359.418065 
L 308.013992 351.143601 
L 347.762609 334.40396 
L 387.511225 301.638816 
L 427.259842 226.280421 
L 467.008458 160.042671 
L 506.757075 120.185423 
L 546.505692 87.22375 
L 586.254308 61.96075 
L 626.002925 55.744528 
L 665.751542 55.559017 
L 705.500158 67.664425 
L 745.248775 82.447135 
L 784.997391 87.661155 
L 824.746008 94.281071 
L 864.494625 94.642018 
L 904.243241 91.575083 
L 943.991858 130.116259 
L 983.740474 172.747225 
L 1023.489091 236.665173 
" clip-path="url(#p33c159c88a)" style="fill: none; stroke: #9467bd; stroke-width: 1.5; stroke-linecap: square"/>
   </g>
   <g id="line2d_84">
    <path d="M 109.270909 286.747931 
L 149.019526 330.185538 
L 188.768142 352.772832 
L 228.516759 364.319567 
L 268.265375 372.122921 
L 308.013992 367.233302 
L 347.762609 353.723782 
L 387.511225 329.949604 
L 427.259842 283.195456 
L 467.008458 224.843139 
L 506.757075 187.289802 
L 546.505692 173.260461 
L 586.254308 151.808836 
L 626.002925 157.942969 
L 665.751542 166.108768 
L 705.500158 180.280311 
L 745.248775 195.765429 
L 784.997391 197.878648 
L 824.746008 185.765301 
L 864.494625 160.319287 
L 904.243241 137.208665 
L 943.991858 155.721137 
L 983.740474 195.461453 
L 1023.489091 256.549349 
" clip-path="url(#p33c159c88a)" style="fill: none; stroke: #8c564b; stroke-width: 1.5; stroke-linecap: square"/>
   </g>
   <g id="line2d_85">
    <path d="M 109.270909 309.029969 
L 149.019526 341.347452 
L 188.768142 367.918474 
L 228.516759 381.017308 
L 268.265375 394.374857 
L 308.013992 391.433468 
L 347.762609 375.553451 
L 387.511225 358.838078 
L 427.259842 318.763806 
L 467.008458 265.748894 
L 506.757075 220.363345 
L 546.505692 210.549201 
L 586.254308 192.278749 
L 626.002925 187.847371 
L 665.751542 201.762361 
L 705.500158 222.711974 
L 745.248775 229.962895 
L 784.997391 229.792559 
L 824.746008 215.051137 
L 864.494625 190.041418 
L 904.243241 162.847176 
L 943.991858 179.953604 
L 983.740474 220.822368 
L 1023.489091 284.1047 
" clip-path="url(#p33c159c88a)" style="fill: none; stroke: #e377c2; stroke-width: 1.5; stroke-linecap: square"/>
   </g>
   <g id="line2d_86">
    <path d="M 109.270909 326.999721 
L 149.019526 358.430234 
L 188.768142 380.784341 
L 228.516759 391.559891 
L 268.265375 403.35998 
L 308.013992 399.111718 
L 347.762609 373.172406 
L 387.511225 334.614404 
L 427.259842 264.607387 
L 467.008458 197.432622 
L 506.757075 156.996165 
L 546.505692 136.701707 
L 586.254308 124.981682 
L 626.002925 132.782986 
L 665.751542 141.932894 
L 705.500158 153.49977 
L 745.248775 171.018133 
L 784.997391 182.729724 
L 824.746008 169.548702 
L 864.494625 144.702398 
L 904.243241 134.625073 
L 943.991858 158.926475 
L 983.740474 207.603615 
L 1023.489091 272.847656 
" clip-path="url(#p33c159c88a)" style="fill: none; stroke: #7f7f7f; stroke-width: 1.5; stroke-linecap: square"/>
   </g>
   <g id="line2d_87">
    <path d="M 109.270909 331.1217 
L 149.019526 362.985795 
L 188.768142 383.570222 
L 228.516759 394.372352 
L 268.265375 398.442618 
L 308.013992 396.012326 
L 347.762609 371.065689 
L 387.511225 331.776581 
L 427.259842 256.058179 
L 467.008458 190.711775 
L 506.757075 156.592621 
L 546.505692 141.129854 
L 586.254308 131.180457 
L 626.002925 129.778129 
L 665.751542 141.21287 
L 705.500158 154.38832 
L 745.248775 171.218191 
L 784.997391 174.347889 
L 824.746008 163.498673 
L 864.494625 145.143981 
L 904.243241 120.933144 
L 943.991858 154.221667 
L 983.740474 203.909662 
L 1023.489091 264.178474 
" clip-path="url(#p33c159c88a)" style="fill: none; stroke: #bcbd22; stroke-width: 1.5; stroke-linecap: square"/>
   </g>
   <g id="line2d_88">
    <path d="M 109.270909 317.739519 
L 149.019526 357.300868 
L 188.768142 376.210983 
L 228.516759 383.951141 
L 268.265375 395.383045 
L 308.013992 386.848891 
L 347.762609 365.016077 
L 387.511225 325.220049 
L 427.259842 253.234928 
L 467.008458 191.045897 
L 506.757075 156.399162 
L 546.505692 142.536824 
L 586.254308 125.371198 
L 626.002925 134.405181 
L 665.751542 139.660799 
L 705.500158 153.067502 
L 745.248775 160.910842 
L 784.997391 177.081155 
L 824.746008 166.084249 
L 864.494625 153.444119 
L 904.243241 131.556162 
L 943.991858 152.245284 
L 983.740474 201.996214 
L 1023.489091 263.358396 
" clip-path="url(#p33c159c88a)" style="fill: none; stroke: #17becf; stroke-width: 1.5; stroke-linecap: square"/>
   </g>
   <g id="line2d_89">
    <path d="M 109.270909 323.872197 
L 149.019526 359.455866 
L 188.768142 377.130344 
L 228.516759 386.923511 
L 268.265375 396.678553 
L 308.013992 388.155996 
L 347.762609 365.080212 
L 387.511225 324.77196 
L 427.259842 252.185155 
L 467.008458 182.777136 
L 506.757075 149.247764 
L 546.505692 128.382608 
L 586.254308 114.521817 
L 626.002925 118.655744 
L 665.751542 129.914048 
L 705.500158 147.100403 
L 745.248775 154.926534 
L 784.997391 162.092155 
L 824.746008 160.822574 
L 864.494625 139.935283 
L 904.243241 121.476414 
L 943.991858 153.910572 
L 983.740474 205.709134 
L 1023.489091 398.438377 
" clip-path="url(#p33c159c88a)" style="fill: none; stroke: #1f77b4; stroke-width: 1.5; stroke-linecap: square"/>
   </g>
   <g id="patch_3">
    <path d="M 63.56 430.352 
L 63.56 27.24 
" style="fill: none; stroke: #000000; stroke-width: 0.8; stroke-linejoin: miter; stroke-linecap: square"/>
   </g>
   <g id="patch_4">
    <path d="M 1069.2 430.352 
L 1069.2 27.24 
" style="fill: none; stroke: #000000; stroke-width: 0.8; stroke-linejoin: miter; stroke-linecap: square"/>
   </g>
   <g id="patch_5">
    <path d="M 63.56 430.352 
L 1069.2 430.352 
" style="fill: none; stroke: #000000; stroke-width: 0.8; stroke-linejoin: miter; stroke-linecap: square"/>
   </g>
   <g id="patch_6">
    <path d="M 63.56 27.24 
L 1069.2 27.24 
" style="fill: none; stroke: #000000; stroke-width: 0.8; stroke-linejoin: miter; stroke-linecap: square"/>
   </g>
   <g id="text_32">
    <!-- Consumo Dirio de Energia Ativa em Agosto -->
    <g transform="translate(433.245625 21.24) scale(0.12 -0.12)">
     <defs>
      <path id="DejaVuSans-43" d="M 4122 4306 
L 4122 3641 
Q 3803 3938 3442 4084 
Q 3081 4231 2675 4231 
Q 1875 4231 1450 3742 
Q 1025 3253 1025 2328 
Q 1025 1406 1450 917 
Q 1875 428 2675 428 
Q 3081 428 3442 575 
Q 3803 722 4122 1019 
L 4122 359 
Q 3791 134 3420 21 
Q 3050 -91 2638 -91 
Q 1578 -91 968 557 
Q 359 1206 359 2328 
Q 359 3453 968 4101 
Q 1578 4750 2638 4750 
Q 3056 4750 3426 4639 
Q 3797 4528 4122 4306 
z
" transform="scale(0.015625)"/>
      <path id="DejaVuSans-73" d="M 2834 3397 
L 2834 2853 
Q 2591 2978 2328 3040 
Q 2066 3103 1784 3103 
Q 1356 3103 1142 2972 
Q 928 2841 928 2578 
Q 928 2378 1081 2264 
Q 1234 2150 1697 2047 
L 1894 2003 
Q 2506 1872 2764 1633 
Q 3022 1394 3022 966 
Q 3022 478 2636 193 
Q 2250 -91 1575 -91 
Q 1294 -91 989 -36 
Q 684 19 347 128 
L 347 722 
Q 666 556 975 473 
Q 1284 391 1588 391 
Q 1994 391 2212 530 
Q 2431 669 2431 922 
Q 2431 1156 2273 1281 
Q 2116 1406 1581 1522 
L 1381 1569 
Q 847 1681 609 1914 
Q 372 2147 372 2553 
Q 372 3047 722 3315 
Q 1072 3584 1716 3584 
Q 2034 3584 2315 3537 
Q 2597 3491 2834 3397 
z
" transform="scale(0.015625)"/>
      <path id="DejaVuSans-75" d="M 544 1381 
L 544 3500 
L 1119 3500 
L 1119 1403 
Q 1119 906 1312 657 
Q 1506 409 1894 409 
Q 2359 409 2629 706 
Q 2900 1003 2900 1516 
L 2900 3500 
L 3475 3500 
L 3475 0 
L 2900 0 
L 2900 538 
Q 2691 219 2414 64 
Q 2138 -91 1772 -91 
Q 1169 -91 856 284 
Q 544 659 544 1381 
z
M 1991 3584 
L 1991 3584 
z
" transform="scale(0.015625)"/>
      <path id="DejaVuSans-6d" d="M 3328 2828 
Q 3544 3216 3844 3400 
Q 4144 3584 4550 3584 
Q 5097 3584 5394 3201 
Q 5691 2819 5691 2113 
L 5691 0 
L 5113 0 
L 5113 2094 
Q 5113 2597 4934 2840 
Q 4756 3084 4391 3084 
Q 3944 3084 3684 2787 
Q 3425 2491 3425 1978 
L 3425 0 
L 2847 0 
L 2847 2094 
Q 2847 2600 2669 2842 
Q 2491 3084 2119 3084 
Q 1678 3084 1418 2786 
Q 1159 2488 1159 1978 
L 1159 0 
L 581 0 
L 581 3500 
L 1159 3500 
L 1159 2956 
Q 1356 3278 1631 3431 
Q 1906 3584 2284 3584 
Q 2666 3584 2933 3390 
Q 3200 3197 3328 2828 
z
" transform="scale(0.015625)"/>
      <path id="DejaVuSans-44" d="M 1259 4147 
L 1259 519 
L 2022 519 
Q 2988 519 3436 956 
Q 3884 1394 3884 2338 
Q 3884 3275 3436 3711 
Q 2988 4147 2022 4147 
L 1259 4147 
z
M 628 4666 
L 1925 4666 
Q 3281 4666 3915 4102 
Q 4550 3538 4550 2338 
Q 4550 1131 3912 565 
Q 3275 0 1925 0 
L 628 0 
L 628 4666 
z
" transform="scale(0.015625)"/>
      <path id="DejaVuSans-e1" d="M 2194 1759 
Q 1497 1759 1228 1600 
Q 959 1441 959 1056 
Q 959 750 1161 570 
Q 1363 391 1709 391 
Q 2188 391 2477 730 
Q 2766 1069 2766 1631 
L 2766 1759 
L 2194 1759 
z
M 3341 1997 
L 3341 0 
L 2766 0 
L 2766 531 
Q 2569 213 2275 61 
Q 1981 -91 1556 -91 
Q 1019 -91 701 211 
Q 384 513 384 1019 
Q 384 1609 779 1909 
Q 1175 2209 1959 2209 
L 2766 2209 
L 2766 2266 
Q 2766 2663 2505 2880 
Q 2244 3097 1772 3097 
Q 1472 3097 1187 3025 
Q 903 2953 641 2809 
L 641 3341 
Q 956 3463 1253 3523 
Q 1550 3584 1831 3584 
Q 2591 3584 2966 3190 
Q 3341 2797 3341 1997 
z
M 2290 5119 
L 2912 5119 
L 1894 3944 
L 1415 3944 
L 2290 5119 
z
" transform="scale(0.015625)"/>
      <path id="DejaVuSans-64" d="M 2906 2969 
L 2906 4863 
L 3481 4863 
L 3481 0 
L 2906 0 
L 2906 525 
Q 2725 213 2448 61 
Q 2172 -91 1784 -91 
Q 1150 -91 751 415 
Q 353 922 353 1747 
Q 353 2572 751 3078 
Q 1150 3584 1784 3584 
Q 2172 3584 2448 3432 
Q 2725 3281 2906 2969 
z
M 947 1747 
Q 947 1113 1208 752 
Q 1469 391 1925 391 
Q 2381 391 2643 752 
Q 2906 1113 2906 1747 
Q 2906 2381 2643 2742 
Q 2381 3103 1925 3103 
Q 1469 3103 1208 2742 
Q 947 2381 947 1747 
z
" transform="scale(0.015625)"/>
     </defs>
     <use xlink:href="#DejaVuSans-43"/>
     <use xlink:href="#DejaVuSans-6f" x="69.824219"/>
     <use xlink:href="#DejaVuSans-6e" x="131.005859"/>
     <use xlink:href="#DejaVuSans-73" x="194.384766"/>
     <use xlink:href="#DejaVuSans-75" x="246.484375"/>
     <use xlink:href="#DejaVuSans-6d" x="309.863281"/>
     <use xlink:href="#DejaVuSans-6f" x="407.275391"/>
     <use xlink:href="#DejaVuSans-20" x="468.457031"/>
     <use xlink:href="#DejaVuSans-44" x="500.244141"/>
     <use xlink:href="#DejaVuSans-69" x="577.246094"/>
     <use xlink:href="#DejaVuSans-e1" x="605.029297"/>
     <use xlink:href="#DejaVuSans-72" x="666.308594"/>
     <use xlink:href="#DejaVuSans-69" x="707.421875"/>
     <use xlink:href="#DejaVuSans-6f" x="735.205078"/>
     <use xlink:href="#DejaVuSans-20" x="796.386719"/>
     <use xlink:href="#DejaVuSans-64" x="828.173828"/>
     <use xlink:href="#DejaVuSans-65" x="891.650391"/>
     <use xlink:href="#DejaVuSans-20" x="953.173828"/>
     <use xlink:href="#DejaVuSans-45" x="984.960938"/>
     <use xlink:href="#DejaVuSans-6e" x="1048.144531"/>
     <use xlink:href="#DejaVuSans-65" x="1111.523438"/>
     <use xlink:href="#DejaVuSans-72" x="1173.046875"/>
     <use xlink:href="#DejaVuSans-67" x="1212.410156"/>
     <use xlink:href="#DejaVuSans-69" x="1275.886719"/>
     <use xlink:href="#DejaVuSans-61" x="1303.669922"/>
     <use xlink:href="#DejaVuSans-20" x="1364.949219"/>
     <use xlink:href="#DejaVuSans-41" x="1396.736328"/>
     <use xlink:href="#DejaVuSans-74" x="1463.394531"/>
     <use xlink:href="#DejaVuSans-69" x="1502.603516"/>
     <use xlink:href="#DejaVuSans-76" x="1530.386719"/>
     <use xlink:href="#DejaVuSans-61" x="1589.566406"/>
     <use xlink:href="#DejaVuSans-20" x="1650.845703"/>
     <use xlink:href="#DejaVuSans-65" x="1682.632812"/>
     <use xlink:href="#DejaVuSans-6d" x="1744.15625"/>
     <use xlink:href="#DejaVuSans-20" x="1841.568359"/>
     <use xlink:href="#DejaVuSans-41" x="1873.355469"/>
     <use xlink:href="#DejaVuSans-67" x="1941.763672"/>
     <use xlink:href="#DejaVuSans-6f" x="2005.240234"/>
     <use xlink:href="#DejaVuSans-73" x="2066.421875"/>
     <use xlink:href="#DejaVuSans-74" x="2118.521484"/>
     <use xlink:href="#DejaVuSans-6f" x="2157.730469"/>
    </g>
   </g>
   <g id="legend_1">
    <g id="patch_7">
     <path d="M 178.195625 557.5313 
L 954.564375 557.5313 
Q 956.564375 557.5313 956.564375 555.5313 
L 956.564375 497.8188 
Q 956.564375 495.8188 954.564375 495.8188 
L 178.195625 495.8188 
Q 176.195625 495.8188 176.195625 497.8188 
L 176.195625 555.5313 
Q 176.195625 557.5313 178.195625 557.5313 
z
" style="fill: #ffffff; opacity: 0.8; stroke: #cccccc; stroke-linejoin: miter"/>
    </g>
    <g id="line2d_90">
     <path d="M 180.195625 503.917237 
L 190.195625 503.917237 
L 200.195625 503.917237 
" style="fill: none; stroke: #1f77b4; stroke-width: 1.5; stroke-linecap: square"/>
    </g>
    <g id="text_33">
     <!-- Dia 1 -->
     <g transform="translate(208.195625 507.417237) scale(0.1 -0.1)">
      <use xlink:href="#DejaVuSans-44"/>
      <use xlink:href="#DejaVuSans-69" x="77.001953"/>
      <use xlink:href="#DejaVuSans-61" x="104.785156"/>
      <use xlink:href="#DejaVuSans-20" x="166.064453"/>
      <use xlink:href="#DejaVuSans-31" x="197.851562"/>
     </g>
    </g>
    <g id="line2d_91">
     <path d="M 180.195625 518.595362 
L 190.195625 518.595362 
L 200.195625 518.595362 
" style="fill: none; stroke: #ff7f0e; stroke-width: 1.5; stroke-linecap: square"/>
    </g>
    <g id="text_34">
     <!-- Dia 2 -->
     <g transform="translate(208.195625 522.095362) scale(0.1 -0.1)">
      <use xlink:href="#DejaVuSans-44"/>
      <use xlink:href="#DejaVuSans-69" x="77.001953"/>
      <use xlink:href="#DejaVuSans-61" x="104.785156"/>
      <use xlink:href="#DejaVuSans-20" x="166.064453"/>
      <use xlink:href="#DejaVuSans-32" x="197.851562"/>
     </g>
    </g>
    <g id="line2d_92">
     <path d="M 180.195625 533.273487 
L 190.195625 533.273487 
L 200.195625 533.273487 
" style="fill: none; stroke: #2ca02c; stroke-width: 1.5; stroke-linecap: square"/>
    </g>
    <g id="text_35">
     <!-- Dia 3 -->
     <g transform="translate(208.195625 536.773487) scale(0.1 -0.1)">
      <use xlink:href="#DejaVuSans-44"/>
      <use xlink:href="#DejaVuSans-69" x="77.001953"/>
      <use xlink:href="#DejaVuSans-61" x="104.785156"/>
      <use xlink:href="#DejaVuSans-20" x="166.064453"/>
      <use xlink:href="#DejaVuSans-33" x="197.851562"/>
     </g>
    </g>
    <g id="line2d_93">
     <path d="M 180.195625 547.951613 
L 190.195625 547.951613 
L 200.195625 547.951613 
" style="fill: none; stroke: #d62728; stroke-width: 1.5; stroke-linecap: square"/>
    </g>
    <g id="text_36">
     <!-- Dia 4 -->
     <g transform="translate(208.195625 551.451613) scale(0.1 -0.1)">
      <use xlink:href="#DejaVuSans-44"/>
      <use xlink:href="#DejaVuSans-69" x="77.001953"/>
      <use xlink:href="#DejaVuSans-61" x="104.785156"/>
      <use xlink:href="#DejaVuSans-20" x="166.064453"/>
      <use xlink:href="#DejaVuSans-34" x="197.851562"/>
     </g>
    </g>
    <g id="line2d_94">
     <path d="M 254.3425 503.917237 
L 264.3425 503.917237 
L 274.3425 503.917237 
" style="fill: none; stroke: #9467bd; stroke-width: 1.5; stroke-linecap: square"/>
    </g>
    <g id="text_37">
     <!-- Dia 5 -->
     <g transform="translate(282.3425 507.417237) scale(0.1 -0.1)">
      <use xlink:href="#DejaVuSans-44"/>
      <use xlink:href="#DejaVuSans-69" x="77.001953"/>
      <use xlink:href="#DejaVuSans-61" x="104.785156"/>
      <use xlink:href="#DejaVuSans-20" x="166.064453"/>
      <use xlink:href="#DejaVuSans-35" x="197.851562"/>
     </g>
    </g>
    <g id="line2d_95">
     <path d="M 254.3425 518.595362 
L 264.3425 518.595362 
L 274.3425 518.595362 
" style="fill: none; stroke: #8c564b; stroke-width: 1.5; stroke-linecap: square"/>
    </g>
    <g id="text_38">
     <!-- Dia 6 -->
     <g transform="translate(282.3425 522.095362) scale(0.1 -0.1)">
      <use xlink:href="#DejaVuSans-44"/>
      <use xlink:href="#DejaVuSans-69" x="77.001953"/>
      <use xlink:href="#DejaVuSans-61" x="104.785156"/>
      <use xlink:href="#DejaVuSans-20" x="166.064453"/>
      <use xlink:href="#DejaVuSans-36" x="197.851562"/>
     </g>
    </g>
    <g id="line2d_96">
     <path d="M 254.3425 533.273487 
L 264.3425 533.273487 
L 274.3425 533.273487 
" style="fill: none; stroke: #e377c2; stroke-width: 1.5; stroke-linecap: square"/>
    </g>
    <g id="text_39">
     <!-- Dia 7 -->
     <g transform="translate(282.3425 536.773487) scale(0.1 -0.1)">
      <use xlink:href="#DejaVuSans-44"/>
      <use xlink:href="#DejaVuSans-69" x="77.001953"/>
      <use xlink:href="#DejaVuSans-61" x="104.785156"/>
      <use xlink:href="#DejaVuSans-20" x="166.064453"/>
      <use xlink:href="#DejaVuSans-37" x="197.851562"/>
     </g>
    </g>
    <g id="line2d_97">
     <path d="M 328.489375 503.917237 
L 338.489375 503.917237 
L 348.489375 503.917237 
" style="fill: none; stroke: #7f7f7f; stroke-width: 1.5; stroke-linecap: square"/>
    </g>
    <g id="text_40">
     <!-- Dia 8 -->
     <g transform="translate(356.489375 507.417237) scale(0.1 -0.1)">
      <use xlink:href="#DejaVuSans-44"/>
      <use xlink:href="#DejaVuSans-69" x="77.001953"/>
      <use xlink:href="#DejaVuSans-61" x="104.785156"/>
      <use xlink:href="#DejaVuSans-20" x="166.064453"/>
      <use xlink:href="#DejaVuSans-38" x="197.851562"/>
     </g>
    </g>
    <g id="line2d_98">
     <path d="M 328.489375 518.595362 
L 338.489375 518.595362 
L 348.489375 518.595362 
" style="fill: none; stroke: #bcbd22; stroke-width: 1.5; stroke-linecap: square"/>
    </g>
    <g id="text_41">
     <!-- Dia 9 -->
     <g transform="translate(356.489375 522.095362) scale(0.1 -0.1)">
      <use xlink:href="#DejaVuSans-44"/>
      <use xlink:href="#DejaVuSans-69" x="77.001953"/>
      <use xlink:href="#DejaVuSans-61" x="104.785156"/>
      <use xlink:href="#DejaVuSans-20" x="166.064453"/>
      <use xlink:href="#DejaVuSans-39" x="197.851562"/>
     </g>
    </g>
    <g id="line2d_99">
     <path d="M 328.489375 533.273487 
L 338.489375 533.273487 
L 348.489375 533.273487 
" style="fill: none; stroke: #17becf; stroke-width: 1.5; stroke-linecap: square"/>
    </g>
    <g id="text_42">
     <!-- Dia 10 -->
     <g transform="translate(356.489375 536.773487) scale(0.1 -0.1)">
      <use xlink:href="#DejaVuSans-44"/>
      <use xlink:href="#DejaVuSans-69" x="77.001953"/>
      <use xlink:href="#DejaVuSans-61" x="104.785156"/>
      <use xlink:href="#DejaVuSans-20" x="166.064453"/>
      <use xlink:href="#DejaVuSans-31" x="197.851562"/>
      <use xlink:href="#DejaVuSans-30" x="261.474609"/>
     </g>
    </g>
    <g id="line2d_100">
     <path d="M 408.99875 503.917237 
L 418.99875 503.917237 
L 428.99875 503.917237 
" style="fill: none; stroke: #1f77b4; stroke-width: 1.5; stroke-linecap: square"/>
    </g>
    <g id="text_43">
     <!-- Dia 11 -->
     <g transform="translate(436.99875 507.417237) scale(0.1 -0.1)">
      <use xlink:href="#DejaVuSans-44"/>
      <use xlink:href="#DejaVuSans-69" x="77.001953"/>
      <use xlink:href="#DejaVuSans-61" x="104.785156"/>
      <use xlink:href="#DejaVuSans-20" x="166.064453"/>
      <use xlink:href="#DejaVuSans-31" x="197.851562"/>
      <use xlink:href="#DejaVuSans-31" x="261.474609"/>
     </g>
    </g>
    <g id="line2d_101">
     <path d="M 408.99875 518.595362 
L 418.99875 518.595362 
L 428.99875 518.595362 
" style="fill: none; stroke: #ff7f0e; stroke-width: 1.5; stroke-linecap: square"/>
    </g>
    <g id="text_44">
     <!-- Dia 12 -->
     <g transform="translate(436.99875 522.095362) scale(0.1 -0.1)">
      <use xlink:href="#DejaVuSans-44"/>
      <use xlink:href="#DejaVuSans-69" x="77.001953"/>
      <use xlink:href="#DejaVuSans-61" x="104.785156"/>
      <use xlink:href="#DejaVuSans-20" x="166.064453"/>
      <use xlink:href="#DejaVuSans-31" x="197.851562"/>
      <use xlink:href="#DejaVuSans-32" x="261.474609"/>
     </g>
    </g>
    <g id="line2d_102">
     <path d="M 408.99875 533.273487 
L 418.99875 533.273487 
L 428.99875 533.273487 
" style="fill: none; stroke: #2ca02c; stroke-width: 1.5; stroke-linecap: square"/>
    </g>
    <g id="text_45">
     <!-- Dia 13 -->
     <g transform="translate(436.99875 536.773487) scale(0.1 -0.1)">
      <use xlink:href="#DejaVuSans-44"/>
      <use xlink:href="#DejaVuSans-69" x="77.001953"/>
      <use xlink:href="#DejaVuSans-61" x="104.785156"/>
      <use xlink:href="#DejaVuSans-20" x="166.064453"/>
      <use xlink:href="#DejaVuSans-31" x="197.851562"/>
      <use xlink:href="#DejaVuSans-33" x="261.474609"/>
     </g>
    </g>
    <g id="line2d_103">
     <path d="M 489.508125 503.917237 
L 499.508125 503.917237 
L 509.508125 503.917237 
" style="fill: none; stroke: #d62728; stroke-width: 1.5; stroke-linecap: square"/>
    </g>
    <g id="text_46">
     <!-- Dia 14 -->
     <g transform="translate(517.508125 507.417237) scale(0.1 -0.1)">
      <use xlink:href="#DejaVuSans-44"/>
      <use xlink:href="#DejaVuSans-69" x="77.001953"/>
      <use xlink:href="#DejaVuSans-61" x="104.785156"/>
      <use xlink:href="#DejaVuSans-20" x="166.064453"/>
      <use xlink:href="#DejaVuSans-31" x="197.851562"/>
      <use xlink:href="#DejaVuSans-34" x="261.474609"/>
     </g>
    </g>
    <g id="line2d_104">
     <path d="M 489.508125 518.595362 
L 499.508125 518.595362 
L 509.508125 518.595362 
" style="fill: none; stroke: #9467bd; stroke-width: 1.5; stroke-linecap: square"/>
    </g>
    <g id="text_47">
     <!-- Dia 15 -->
     <g transform="translate(517.508125 522.095362) scale(0.1 -0.1)">
      <use xlink:href="#DejaVuSans-44"/>
      <use xlink:href="#DejaVuSans-69" x="77.001953"/>
      <use xlink:href="#DejaVuSans-61" x="104.785156"/>
      <use xlink:href="#DejaVuSans-20" x="166.064453"/>
      <use xlink:href="#DejaVuSans-31" x="197.851562"/>
      <use xlink:href="#DejaVuSans-35" x="261.474609"/>
     </g>
    </g>
    <g id="line2d_105">
     <path d="M 489.508125 533.273487 
L 499.508125 533.273487 
L 509.508125 533.273487 
" style="fill: none; stroke: #8c564b; stroke-width: 1.5; stroke-linecap: square"/>
    </g>
    <g id="text_48">
     <!-- Dia 16 -->
     <g transform="translate(517.508125 536.773487) scale(0.1 -0.1)">
      <use xlink:href="#DejaVuSans-44"/>
      <use xlink:href="#DejaVuSans-69" x="77.001953"/>
      <use xlink:href="#DejaVuSans-61" x="104.785156"/>
      <use xlink:href="#DejaVuSans-20" x="166.064453"/>
      <use xlink:href="#DejaVuSans-31" x="197.851562"/>
      <use xlink:href="#DejaVuSans-36" x="261.474609"/>
     </g>
    </g>
    <g id="line2d_106">
     <path d="M 570.0175 503.917237 
L 580.0175 503.917237 
L 590.0175 503.917237 
" style="fill: none; stroke: #e377c2; stroke-width: 1.5; stroke-linecap: square"/>
    </g>
    <g id="text_49">
     <!-- Dia 17 -->
     <g transform="translate(598.0175 507.417237) scale(0.1 -0.1)">
      <use xlink:href="#DejaVuSans-44"/>
      <use xlink:href="#DejaVuSans-69" x="77.001953"/>
      <use xlink:href="#DejaVuSans-61" x="104.785156"/>
      <use xlink:href="#DejaVuSans-20" x="166.064453"/>
      <use xlink:href="#DejaVuSans-31" x="197.851562"/>
      <use xlink:href="#DejaVuSans-37" x="261.474609"/>
     </g>
    </g>
    <g id="line2d_107">
     <path d="M 570.0175 518.595362 
L 580.0175 518.595362 
L 590.0175 518.595362 
" style="fill: none; stroke: #7f7f7f; stroke-width: 1.5; stroke-linecap: square"/>
    </g>
    <g id="text_50">
     <!-- Dia 18 -->
     <g transform="translate(598.0175 522.095362) scale(0.1 -0.1)">
      <use xlink:href="#DejaVuSans-44"/>
      <use xlink:href="#DejaVuSans-69" x="77.001953"/>
      <use xlink:href="#DejaVuSans-61" x="104.785156"/>
      <use xlink:href="#DejaVuSans-20" x="166.064453"/>
      <use xlink:href="#DejaVuSans-31" x="197.851562"/>
      <use xlink:href="#DejaVuSans-38" x="261.474609"/>
     </g>
    </g>
    <g id="line2d_108">
     <path d="M 570.0175 533.273487 
L 580.0175 533.273487 
L 590.0175 533.273487 
" style="fill: none; stroke: #bcbd22; stroke-width: 1.5; stroke-linecap: square"/>
    </g>
    <g id="text_51">
     <!-- Dia 19 -->
     <g transform="translate(598.0175 536.773487) scale(0.1 -0.1)">
      <use xlink:href="#DejaVuSans-44"/>
      <use xlink:href="#DejaVuSans-69" x="77.001953"/>
      <use xlink:href="#DejaVuSans-61" x="104.785156"/>
      <use xlink:href="#DejaVuSans-20" x="166.064453"/>
      <use xlink:href="#DejaVuSans-31" x="197.851562"/>
      <use xlink:href="#DejaVuSans-39" x="261.474609"/>
     </g>
    </g>
    <g id="line2d_109">
     <path d="M 650.526875 503.917237 
L 660.526875 503.917237 
L 670.526875 503.917237 
" style="fill: none; stroke: #17becf; stroke-width: 1.5; stroke-linecap: square"/>
    </g>
    <g id="text_52">
     <!-- Dia 20 -->
     <g transform="translate(678.526875 507.417237) scale(0.1 -0.1)">
      <use xlink:href="#DejaVuSans-44"/>
      <use xlink:href="#DejaVuSans-69" x="77.001953"/>
      <use xlink:href="#DejaVuSans-61" x="104.785156"/>
      <use xlink:href="#DejaVuSans-20" x="166.064453"/>
      <use xlink:href="#DejaVuSans-32" x="197.851562"/>
      <use xlink:href="#DejaVuSans-30" x="261.474609"/>
     </g>
    </g>
    <g id="line2d_110">
     <path d="M 650.526875 518.595362 
L 660.526875 518.595362 
L 670.526875 518.595362 
" style="fill: none; stroke: #1f77b4; stroke-width: 1.5; stroke-linecap: square"/>
    </g>
    <g id="text_53">
     <!-- Dia 21 -->
     <g transform="translate(678.526875 522.095362) scale(0.1 -0.1)">
      <use xlink:href="#DejaVuSans-44"/>
      <use xlink:href="#DejaVuSans-69" x="77.001953"/>
      <use xlink:href="#DejaVuSans-61" x="104.785156"/>
      <use xlink:href="#DejaVuSans-20" x="166.064453"/>
      <use xlink:href="#DejaVuSans-32" x="197.851562"/>
      <use xlink:href="#DejaVuSans-31" x="261.474609"/>
     </g>
    </g>
    <g id="line2d_111">
     <path d="M 650.526875 533.273487 
L 660.526875 533.273487 
L 670.526875 533.273487 
" style="fill: none; stroke: #ff7f0e; stroke-width: 1.5; stroke-linecap: square"/>
    </g>
    <g id="text_54">
     <!-- Dia 22 -->
     <g transform="translate(678.526875 536.773487) scale(0.1 -0.1)">
      <use xlink:href="#DejaVuSans-44"/>
      <use xlink:href="#DejaVuSans-69" x="77.001953"/>
      <use xlink:href="#DejaVuSans-61" x="104.785156"/>
      <use xlink:href="#DejaVuSans-20" x="166.064453"/>
      <use xlink:href="#DejaVuSans-32" x="197.851562"/>
      <use xlink:href="#DejaVuSans-32" x="261.474609"/>
     </g>
    </g>
    <g id="line2d_112">
     <path d="M 731.03625 503.917237 
L 741.03625 503.917237 
L 751.03625 503.917237 
" style="fill: none; stroke: #2ca02c; stroke-width: 1.5; stroke-linecap: square"/>
    </g>
    <g id="text_55">
     <!-- Dia 23 -->
     <g transform="translate(759.03625 507.417237) scale(0.1 -0.1)">
      <use xlink:href="#DejaVuSans-44"/>
      <use xlink:href="#DejaVuSans-69" x="77.001953"/>
      <use xlink:href="#DejaVuSans-61" x="104.785156"/>
      <use xlink:href="#DejaVuSans-20" x="166.064453"/>
      <use xlink:href="#DejaVuSans-32" x="197.851562"/>
      <use xlink:href="#DejaVuSans-33" x="261.474609"/>
     </g>
    </g>
    <g id="line2d_113">
     <path d="M 731.03625 518.595362 
L 741.03625 518.595362 
L 751.03625 518.595362 
" style="fill: none; stroke: #d62728; stroke-width: 1.5; stroke-linecap: square"/>
    </g>
    <g id="text_56">
     <!-- Dia 24 -->
     <g transform="translate(759.03625 522.095362) scale(0.1 -0.1)">
      <use xlink:href="#DejaVuSans-44"/>
      <use xlink:href="#DejaVuSans-69" x="77.001953"/>
      <use xlink:href="#DejaVuSans-61" x="104.785156"/>
      <use xlink:href="#DejaVuSans-20" x="166.064453"/>
      <use xlink:href="#DejaVuSans-32" x="197.851562"/>
      <use xlink:href="#DejaVuSans-34" x="261.474609"/>
     </g>
    </g>
    <g id="line2d_114">
     <path d="M 731.03625 533.273487 
L 741.03625 533.273487 
L 751.03625 533.273487 
" style="fill: none; stroke: #9467bd; stroke-width: 1.5; stroke-linecap: square"/>
    </g>
    <g id="text_57">
     <!-- Dia 25 -->
     <g transform="translate(759.03625 536.773487) scale(0.1 -0.1)">
      <use xlink:href="#DejaVuSans-44"/>
      <use xlink:href="#DejaVuSans-69" x="77.001953"/>
      <use xlink:href="#DejaVuSans-61" x="104.785156"/>
      <use xlink:href="#DejaVuSans-20" x="166.064453"/>
      <use xlink:href="#DejaVuSans-32" x="197.851562"/>
      <use xlink:href="#DejaVuSans-35" x="261.474609"/>
     </g>
    </g>
    <g id="line2d_115">
     <path d="M 811.545625 503.917237 
L 821.545625 503.917237 
L 831.545625 503.917237 
" style="fill: none; stroke: #8c564b; stroke-width: 1.5; stroke-linecap: square"/>
    </g>
    <g id="text_58">
     <!-- Dia 26 -->
     <g transform="translate(839.545625 507.417237) scale(0.1 -0.1)">
      <use xlink:href="#DejaVuSans-44"/>
      <use xlink:href="#DejaVuSans-69" x="77.001953"/>
      <use xlink:href="#DejaVuSans-61" x="104.785156"/>
      <use xlink:href="#DejaVuSans-20" x="166.064453"/>
      <use xlink:href="#DejaVuSans-32" x="197.851562"/>
      <use xlink:href="#DejaVuSans-36" x="261.474609"/>
     </g>
    </g>
    <g id="line2d_116">
     <path d="M 811.545625 518.595362 
L 821.545625 518.595362 
L 831.545625 518.595362 
" style="fill: none; stroke: #e377c2; stroke-width: 1.5; stroke-linecap: square"/>
    </g>
    <g id="text_59">
     <!-- Dia 27 -->
     <g transform="translate(839.545625 522.095362) scale(0.1 -0.1)">
      <use xlink:href="#DejaVuSans-44"/>
      <use xlink:href="#DejaVuSans-69" x="77.001953"/>
      <use xlink:href="#DejaVuSans-61" x="104.785156"/>
      <use xlink:href="#DejaVuSans-20" x="166.064453"/>
      <use xlink:href="#DejaVuSans-32" x="197.851562"/>
      <use xlink:href="#DejaVuSans-37" x="261.474609"/>
     </g>
    </g>
    <g id="line2d_117">
     <path d="M 811.545625 533.273487 
L 821.545625 533.273487 
L 831.545625 533.273487 
" style="fill: none; stroke: #7f7f7f; stroke-width: 1.5; stroke-linecap: square"/>
    </g>
    <g id="text_60">
     <!-- Dia 28 -->
     <g transform="translate(839.545625 536.773487) scale(0.1 -0.1)">
      <use xlink:href="#DejaVuSans-44"/>
      <use xlink:href="#DejaVuSans-69" x="77.001953"/>
      <use xlink:href="#DejaVuSans-61" x="104.785156"/>
      <use xlink:href="#DejaVuSans-20" x="166.064453"/>
      <use xlink:href="#DejaVuSans-32" x="197.851562"/>
      <use xlink:href="#DejaVuSans-38" x="261.474609"/>
     </g>
    </g>
    <g id="line2d_118">
     <path d="M 892.055 503.917237 
L 902.055 503.917237 
L 912.055 503.917237 
" style="fill: none; stroke: #bcbd22; stroke-width: 1.5; stroke-linecap: square"/>
    </g>
    <g id="text_61">
     <!-- Dia 29 -->
     <g transform="translate(920.055 507.417237) scale(0.1 -0.1)">
      <use xlink:href="#DejaVuSans-44"/>
      <use xlink:href="#DejaVuSans-69" x="77.001953"/>
      <use xlink:href="#DejaVuSans-61" x="104.785156"/>
      <use xlink:href="#DejaVuSans-20" x="166.064453"/>
      <use xlink:href="#DejaVuSans-32" x="197.851562"/>
      <use xlink:href="#DejaVuSans-39" x="261.474609"/>
     </g>
    </g>
    <g id="line2d_119">
     <path d="M 892.055 518.595362 
L 902.055 518.595362 
L 912.055 518.595362 
" style="fill: none; stroke: #17becf; stroke-width: 1.5; stroke-linecap: square"/>
    </g>
    <g id="text_62">
     <!-- Dia 30 -->
     <g transform="translate(920.055 522.095362) scale(0.1 -0.1)">
      <use xlink:href="#DejaVuSans-44"/>
      <use xlink:href="#DejaVuSans-69" x="77.001953"/>
      <use xlink:href="#DejaVuSans-61" x="104.785156"/>
      <use xlink:href="#DejaVuSans-20" x="166.064453"/>
      <use xlink:href="#DejaVuSans-33" x="197.851562"/>
      <use xlink:href="#DejaVuSans-30" x="261.474609"/>
     </g>
    </g>
    <g id="line2d_120">
     <path d="M 892.055 533.273487 
L 902.055 533.273487 
L 912.055 533.273487 
" style="fill: none; stroke: #1f77b4; stroke-width: 1.5; stroke-linecap: square"/>
    </g>
    <g id="text_63">
     <!-- Dia 31 -->
     <g transform="translate(920.055 536.773487) scale(0.1 -0.1)">
      <use xlink:href="#DejaVuSans-44"/>
      <use xlink:href="#DejaVuSans-69" x="77.001953"/>
      <use xlink:href="#DejaVuSans-61" x="104.785156"/>
      <use xlink:href="#DejaVuSans-20" x="166.064453"/>
      <use xlink:href="#DejaVuSans-33" x="197.851562"/>
      <use xlink:href="#DejaVuSans-31" x="261.474609"/>
     </g>
    </g>
   </g>
  </g>
 </g>
 <defs>
  <clipPath id="p33c159c88a">
   <rect x="63.56" y="27.24" width="1005.64" height="403.112"/>
  </clipPath>
 </defs>
</svg>
